<?xml version="1.0" encoding="UTF-8"?>
<svg id="Layer_5" data-name="Layer 5" xmlns="http://www.w3.org/2000/svg" viewBox="0 0 737.24 851.39">
  <defs>
    <style>
      .cls-1 {
        fill: #231f20;
      }
    </style>
  </defs>
  <path class="cls-1" d="M327.24,834.83L16.55,524.14C5.21,512.8-.28,497.84,.05,483c-.06-.64-.06-113.03,0-113.67-.37-14.8,5.14-29.78,16.46-41.11L327.24,17.52c22.05-22.05,57.84-22.05,79.89,0l77.6,77.6c22.07,22.07,22.05,57.84,0,79.89l-139.82,139.82h335.84c31.15,0,56.47,25.31,56.47,56.47v109.78c.02,31.17-25.27,56.49-56.47,56.47H344.91l139.82,139.82c22.05,22.05,22.05,57.84,0,79.89l-77.6,77.6c-22.05,22.05-57.84,22.05-79.89,0v-.02Z"/>
</svg>