<?xml version="1.0" encoding="UTF-8"?>
<svg id="Layer_2" data-name="Layer 2" xmlns="http://www.w3.org/2000/svg" viewBox="0 0 850.41 738.22">
  <defs>
    <style>
      .cls-1 {
        fill: #231f20;
      }
    </style>
  </defs>
  <path class="cls-1" d="M39.38,366.99c0-2.7,.68-7.93,5.14-12.39L355.05,44.07c4.59-4.59,9.91-5.16,12.7-5.1l2.21,.04,.57-.06c12.29-.04,97.51-.04,109.8,0l.61,.06,2.25-.06c2.74-.06,8.03,.49,12.6,5.06l310.55,310.55c4.47,4.47,5.14,9.69,5.14,12.39s-.68,7.93-5.14,12.39l-77.55,77.55c-4.47,4.47-9.69,5.14-12.39,5.14s-7.93-.68-12.39-5.14l-138-138c-11.47-11.47-28.56-14.85-43.53-8.66-14.97,6.21-24.66,20.69-24.66,36.89v333.26c0,9.65-7.85,17.51-17.51,17.51h-109.76c-6.29,0-10.43-3.2-12.35-5.12-1.91-1.91-5.12-6.06-5.12-12.39V347.16c0-16.2-9.67-30.69-24.66-36.89-14.97-6.21-32.06-2.81-43.53,8.66l-138,138c-6.84,6.84-17.96,6.84-24.81,0l-77.55-77.55c-4.47-4.47-5.14-9.69-5.14-12.39m-38.92,0c0,14.44,5.51,28.9,16.53,39.92l77.55,77.55c22.04,22.04,57.79,22.04,79.85,0l138-138c.64-.64,1.74-.18,1.74,.72v333.26c.02,31.14,25.3,56.39,56.46,56.37h109.72c31.14,0,56.44-25.3,56.44-56.44V347.16c0-.9,1.11-1.35,1.74-.72l138,138c22.04,22.04,57.77,22.06,79.85,0l77.55-77.55c11.02-11.02,16.53-25.46,16.53-39.92s-5.51-28.9-16.53-39.92L523.33,16.5C512,5.17,497.05-.32,482.24,.05c-.64-.06-112.97-.06-113.61,0-14.83-.35-29.81,5.16-41.11,16.49L16.99,327.06C5.97,338.08,.46,352.52,.46,366.99h-.02Z"/>
</svg>