<?xml version="1.0" encoding="UTF-8"?>
<svg id="Layer_3" data-name="Layer 3" xmlns="http://www.w3.org/2000/svg" viewBox="0 0 737.24 851.39">
  <path d="M167.67,40.28c6.25,0,11.97,2.27,16.98,6.75l402.64,359.71c7.57,6.77,8.7,15.09,8.7,19.44s-1.13,12.68-8.7,19.44L184.66,805.34c-5.02,4.48-10.73,6.75-16.98,6.75-10.98,0-26.45-8.13-26.45-26.2V66.48c0-18.07,15.47-26.2,26.45-26.2m0-38c-33.03,0-64.45,25.85-64.45,64.2V785.9c0,38.35,31.43,64.2,64.45,64.2,14.65,0,29.62-5.08,42.3-16.42l402.64-359.71c28.51-25.48,28.51-70.09,0-95.56L209.97,18.7c-12.68-11.33-27.65-16.42-42.3-16.42h0Z"/>
</svg>