<?xml version="1.0" encoding="UTF-8"?>
<svg id="Layer_3" data-name="Layer 3" xmlns="http://www.w3.org/2000/svg" viewBox="0 0 847.81 851.39">
  <path d="M423.9,198.8c4.36,0,12.68,1.13,19.44,8.7l359.71,402.64c10.16,11.37,6.43,23.38,4.35,28.02-2.08,4.64-8.55,15.42-23.8,15.42H64.2c-15.25,0-21.72-10.78-23.8-15.42-2.07-4.64-5.8-16.65,4.35-28.02L404.46,207.5c6.77-7.57,15.09-8.7,19.44-8.7m0-38c-17.52,0-35.04,7.13-47.78,21.39L16.42,584.82c-36.88,41.28-7.58,106.76,47.78,106.76H783.61c55.36,0,84.66-65.48,47.78-106.76L471.69,182.18c-12.74-14.26-30.26-21.39-47.78-21.39h0Z"/>
</svg>