<?xml version="1.0" encoding="UTF-8"?>
<svg id="Layer_2" data-name="Layer 2" xmlns="http://www.w3.org/2000/svg" viewBox="0 0 850.41 849.97">
  <defs>
    <style>
      .cls-1 {
        fill: #231f20;
      }
    </style>
  </defs>
  <path class="cls-1" d="M426.85,38.94c2.7,0,7.93,.68,12.39,5.14l310.53,310.53c4.59,4.59,5.16,9.91,5.1,12.7l-.04,2.21,.06,.57c.04,12.29,.04,97.51,0,109.8l-.06,.61,.06,2.25c.06,2.74-.49,8.03-5.06,12.6l-310.55,310.55c-4.47,4.47-9.69,5.14-12.39,5.14s-7.93-.68-12.39-5.14l-77.55-77.55c-4.47-4.47-5.14-9.69-5.14-12.39s.68-7.93,5.14-12.39l138-138c11.47-11.47,14.85-28.56,8.66-43.53-6.21-14.97-20.69-24.66-36.89-24.66H113.45c-9.65,0-17.51-7.85-17.51-17.51v-109.76c0-6.29,3.2-10.43,5.12-12.35,1.91-1.91,6.06-5.12,12.39-5.12H446.68c16.2,0,30.69-9.67,36.89-24.66,6.21-14.97,2.81-32.06-8.66-43.53l-138-138c-6.84-6.84-6.84-17.96,0-24.81l77.55-77.55c4.47-4.47,9.69-5.14,12.39-5.14m0-38.92c-14.44,0-28.9,5.51-39.92,16.53l-77.55,77.55c-22.04,22.04-22.04,57.79,0,79.85l138,138c.64,.64,.18,1.74-.72,1.74H113.39c-31.14,.02-56.39,25.3-56.37,56.46v109.72c0,31.14,25.3,56.44,56.44,56.44H446.68c.9,0,1.35,1.11,.72,1.74l-138,138c-22.04,22.04-22.06,57.77,0,79.85l77.55,77.55c11.02,11.02,25.46,16.53,39.92,16.53s28.9-5.51,39.92-16.53l310.55-310.55c11.33-11.33,16.82-26.28,16.45-41.09,.06-.64,.06-112.97,0-113.61,.35-14.83-5.16-29.81-16.49-41.11L466.77,16.55C455.75,5.53,441.31,.02,426.85,.02h0v-.02Z"/>
</svg>