<?xml version="1.0" encoding="UTF-8"?>
<svg id="Layer_8" data-name="Layer 8" xmlns="http://www.w3.org/2000/svg" viewBox="0 0 888.04 851.39">
  <path d="M781.55,1.17H106.49C58.17,1.17,19,40.35,19,88.66V763.72c0,48.32,39.17,87.48,87.49,87.48H781.55c48.32,0,87.49-39.16,87.49-87.48V88.66c0-48.31-39.17-87.48-87.49-87.48ZM146.78,645.84c-8.31-8.32-12.46-19.21-12.46-30.11s4.16-21.79,12.46-30.11l174.05-174.04L145.73,236.49c-16.63-16.63-16.63-43.59,0-60.22,8.32-8.31,19.21-12.46,30.11-12.46s21.8,4.16,30.12,12.46l204.07,204.07c.88,.89,1.72,1.8,2.5,2.74l.06,.06c7.31,8.09,10.96,18.3,10.96,28.52,0,10.9-4.15,21.79-12.46,30.11l-204.07,204.07c-16.63,16.63-43.59,16.63-60.22,0h0Zm595.53,.46c-7.71,7.71-18.34,12.47-30.11,12.47H424.06c-23.52,0-42.58-19.06-42.58-42.58,0-11.76,4.77-22.41,12.47-30.11,7.71-7.71,18.34-12.47,30.11-12.47h288.14c23.52,0,42.58,19.06,42.58,42.58,0,11.76-4.77,22.41-12.47,30.11h0Z"/>
</svg>