<?xml version="1.0" encoding="UTF-8"?>
<svg id="Layer_1" data-name="Layer 1" xmlns="http://www.w3.org/2000/svg" viewBox="0 0 536.93 95.68">
  <polygon points="0 0 59.02 0 59.02 6.34 6.61 6.34 6.61 44.33 53.76 44.33 53.76 50.66 6.61 50.66 6.61 89.33 59.02 89.33 59.02 95.66 0 95.66 0 0"/>
  <polygon points="157.51 81.69 85.59 0 157.38 0 157.38 0 157.51 81.69"/>
  <polygon points="89.74 14.92 161.41 95.67 89.87 95.67 89.74 14.92"/>
  <path d="M257.08,82.75l3.09,5.66c-2.06,1.24-4.43,2.43-7.13,3.56h0c-2.69,1.16-5.67,2.06-8.89,2.72-3.23.66-6.74.98-10.51.98-7.28,0-13.89-1.25-19.81-3.76-5.93-2.51-11.01-5.93-15.23-10.28-4.23-4.34-7.49-9.35-9.77-15.01-2.29-5.67-3.45-11.71-3.45-18.12,0-6.86,1.23-13.22,3.65-19.11,2.41-5.87,5.83-11.02,10.24-15.41,4.39-4.39,9.51-7.81,15.36-10.28C220.46,1.25,226.8,0,233.63,0c5.03,0,9.74.66,14.15,1.98,4.39,1.31,8.39,3.03,11.99,5.13l-2.83,5.93c-3.15-1.93-6.7-3.56-10.64-4.88-3.96-1.31-8.14-1.97-12.53-1.97-5.66,0-11.01,1.08-16.05,3.22-5.03,2.17-9.45,5.15-13.26,8.96-3.81,3.81-6.8,8.29-8.97,13.38-2.14,5.09-3.22,10.59-3.22,16.46s.96,10.94,2.88,15.95c1.94,5,4.72,9.4,8.37,13.18,3.64,3.77,8.02,6.74,13.14,8.89,5.11,2.16,10.82,3.22,17.11,3.22,4.66,0,8.96-.63,12.87-1.9,3.91-1.27,7.38-2.88,10.44-4.81Z"/>
  <path d="M368.38,29.46c-2.48-5.79-5.88-10.9-10.21-15.29-4.35-4.38-9.39-7.84-15.14-10.36-5.75-2.52-11.78-3.79-18.46-3.79s-12.87,1.28-18.62,3.85-10.78,6.09-15.06,10.52c-4.29,4.46-7.62,9.56-9.98,15.37-2.39,5.81-3.56,11.81-3.56,18.38s1.18,12.72,3.62,18.47c2.43,5.75,5.81,10.8,10.15,15.13,4.32,4.36,9.35,7.76,15.05,10.23,5.7,2.48,11.6,3.71,18.26,3.71s12.86-1.23,18.61-3.71c5.75-2.47,10.79-5.88,15.14-10.23s7.73-9.38,10.21-15.13c2.46-5.75,3.7-12.06,3.7-18.61s-1.24-12.73-3.71-18.54ZM340.85,86.73c-.32.14-.64.27-.96.4-.63.25-1.28.49-1.94.71-4.28,1.44-8.88,2.16-13.51,2.16-5.7,0-11.06-1.09-16.09-3.27-5.02-2.17-9.43-5.16-13.26-9-3.82-3.82-6.8-8.28-8.93-13.35-2.16-5.07-3.21-10.6-3.21-16.28,0-2.66.23-5.27.68-7.81.28-1.52.64-3.03,1.08-4.51.4-1.31.86-2.61,1.38-3.9.7-1.72,1.49-3.37,2.38-4.95.54-.95,1.11-1.87,1.71-2.77.14-.22.29-.45.47-.67.24-.37.5-.73.78-1.08.09-.15.2-.29.33-.44.29-.38.59-.76.9-1.13.11-.15.24-.31.39-.46.26-.32.53-.63.81-.94.21-.24.43-.48.67-.71.11-.13.23-.26.36-.39,3.79-3.92,8.21-7.01,13.28-9.27,5.07-2.28,10.63-3.41,16.41-3.41s11.21,1.12,16.28,3.34c4.45,1.95,8.41,4.53,11.9,7.73.49.45.96.91,1.44,1.41,3.81,3.88,6.82,8.37,9,13.49,2.18,5.12,3.27,10.47,3.27,16.34s-1.09,11.34-3.27,16.41c-2.18,5.06-5.19,9.52-9,13.35-3.82,3.83-8.27,6.83-13.35,9Z"/>
  <path d="M416.34,49.17h-14.42V6.34h16.18c3.41,0,6.51.57,9.3,1.68,2.78,1.13,5.16,2.65,7.14,4.58,1.97,1.94,3.48,4.16,4.51,6.67,1.02,2.52,1.55,5.21,1.55,8.08,0,2.43-.39,4.92-1.15,7.48-.77,2.56-2.05,4.92-3.84,7.07-1.81,2.16-4.27,3.91-7.41,5.25-3.15,1.35-7.1,2.02-11.86,2.02Z"/>
  <path d="M423.94,55.01l25.01,40.66h-47.02v-40.15h14.82c2.59,0,4.99-.18,7.19-.51Z"/>
  <path d="M417.16,0h39.48v95.66h-.01l-25.9-42.47c.09-.03.2-.07.3-.11,3.85-1.62,7.01-3.77,9.43-6.47,2.42-2.7,4.18-5.73,5.25-9.09,1.08-3.37,1.62-6.84,1.62-10.44,0-4.76-.9-8.84-2.69-12.26-1.81-3.41-4.16-6.21-7.07-8.42-2.92-2.2-6.16-3.81-9.7-4.85-3.56-1.02-7.13-1.55-10.71-1.55Z"/>
  <polygon points="536.93 0 536.93 6.34 484.52 6.34 484.52 44.33 531.68 44.33 531.68 50.66 484.52 50.66 484.52 89.33 536.93 89.33 536.93 95.66 477.91 95.66 477.91 0 536.93 0"/>
</svg>