<?xml version="1.0" encoding="UTF-8"?>
<svg xmlns="http://www.w3.org/2000/svg" viewBox="0 0 850.91 850.91">
  <path d="M757.73.5h-193.28c-51.19,0-92.69,41.49-92.69,92.68v193.28c0,51.19,41.5,92.69,92.69,92.69h193.28c51.19,0,92.68-41.5,92.68-92.69V93.19c0-51.19-41.49-92.68-92.68-92.68ZM766.78,255.47c0,22.08-17.9,39.97-39.98,39.97h-131.43c-22.08,0-39.98-17.89-39.98-39.97V124.19c0-22.08,17.9-39.98,39.98-39.98h131.43c22.08,0,39.98,17.91,39.98,39.98v131.27Z"/>
  <path d="M757.73,472.24h-193.28c-51.19,0-92.69,41.49-92.69,92.68v193.28c0,51.19,41.5,92.69,92.69,92.69h193.28c51.19,0,92.68-41.5,92.68-92.69v-193.28c0-51.19-41.49-92.68-92.68-92.68ZM766.78,727.2c0,22.08-17.9,39.97-39.98,39.97h-131.43c-22.08,0-39.98-17.89-39.98-39.97v-131.27c0-22.08,17.9-39.98,39.98-39.98h131.43c22.08,0,39.98,17.91,39.98,39.98v131.27Z"/>
  <path d="M285.99,472.24H92.71C41.52,472.24.02,513.73.02,564.92v193.28c0,51.19,41.5,92.69,92.69,92.69h193.28c51.19,0,92.68-41.5,92.68-92.69v-193.28c0-51.19-41.49-92.68-92.68-92.68ZM295.04,727.2c0,22.08-17.9,39.97-39.98,39.97H123.63c-22.08,0-39.98-17.89-39.98-39.97v-131.27c0-22.08,17.9-39.98,39.98-39.98h131.43c22.08,0,39.98,17.91,39.98,39.98v131.27Z"/>
  <path d="M285.99.5H92.71C41.52.5.02,41.99.02,93.18v193.28c0,51.19,41.5,92.69,92.69,92.69h193.28c51.19,0,92.68-41.5,92.68-92.69V93.19c0-51.19-41.49-92.68-92.68-92.68ZM295.04,255.47c0,22.08-17.9,39.97-39.98,39.97H123.63c-22.08,0-39.98-17.89-39.98-39.97V124.19c0-22.08,17.9-39.98,39.98-39.98h131.43c22.08,0,39.98,17.91,39.98,39.98v131.27Z"/>
</svg>