<?xml version="1.0" encoding="UTF-8"?>
<svg id="Layer_132" data-name="Layer 132" xmlns="http://www.w3.org/2000/svg" viewBox="0 0 850.91 850.91">
  <defs>
    <style>
      .cls-1 {
        fill: #231f20;
      }
    </style>
  </defs>
  <path class="cls-1" d="M850.41,425.7c0,85.72-25.36,165.5-68.99,232.27-3.99,6.11-8.13,12.11-12.42,18-77.33,106.02-202.51,174.92-343.78,174.92-9.89,0-19.71-.34-29.44-1-7.86-.54-13.64-7.62-12.62-15.44l16.86-129.86c.91-7.01,7.01-12.21,14.08-11.92,3.69.15,7.4.23,11.11.23,71.37,0,138.47-27.79,188.93-78.26,8.96-8.96,17.2-18.44,24.7-28.38,4.41-5.83,8.56-11.83,12.45-17.97,26.78-42.27,41.11-91.32,41.11-142.58,0-41.62-9.45-81.78-27.34-118.05-3.14-6.36-.97-14.07,5.1-17.75l111.98-67.93c6.73-4.08,15.53-1.68,19.21,5.28,31.32,59.24,49.05,126.77,49.05,198.44Z"/>
  <path class="cls-1" d="M733.64,154.26l-100.89,83.54c-5.48,4.54-13.49,4.09-18.51-.95-.03-.03-.06-.06-.09-.09-19.32-19.32-41.07-35.32-64.57-47.7-6.45-3.41-13.04-6.54-19.74-9.38-18.97-8.07-38.88-13.92-59.4-17.39-7.16-1.22-14.39-2.14-21.68-2.77-3.5-.31-7.01-.54-10.53-.71-7.29-.35-13.01-6.38-13.01-13.68V14.43c0-7.74,6.41-13.95,14.14-13.7,10.01.33,19.94,1,29.76,2.01,7.28.74,14.5,1.68,21.67,2.79,37.43,5.79,73.25,16.47,106.79,31.37,6.68,2.95,13.26,6.08,19.75,9.38,44.2,22.42,83.95,52.34,117.59,88.09,5.4,5.74,4.79,14.87-1.28,19.9Z"/>
  <path class="cls-1" d="M236.28,614.63c16.27,16.27,34.28,30.19,53.59,41.57,6.14,3.62,8.54,11.28,5.49,17.71l-56.12,118.27c-3.38,7.13-12.08,9.95-18.98,6.14-57.79-31.85-107.38-76.76-144.78-130.74-4.49-6.48-2.57-15.42,4.17-19.51l111.94-67.89c6.09-3.69,13.95-2.08,18.17,3.65,7.98,10.82,16.82,21.11,26.51,30.8Z"/>
  <path class="cls-1" d="M205.22,273.94c-.04.06-.08.12-.12.18-3.39,4.9-10.11,6.14-15.02,2.75l-112.26-77.38c-4.9-3.38-6.18-10.1-2.8-14.99.07-.1.14-.2.21-.3,3.38-4.89,10.1-6.07,15-2.7l112.26,77.39c4.93,3.4,6.15,10.14,2.74,15.06Z"/>
</svg>