<?xml version="1.0" encoding="UTF-8"?>
<svg id="Layer_132" data-name="Layer 132" xmlns="http://www.w3.org/2000/svg" viewBox="0 0 850.91 850.91">
  <defs>
    <style>
      .cls-1 {
        fill: #231f20;
      }
    </style>
  </defs>
  <path class="cls-1" d="M850.41,425.7c0,85.72-25.36,165.5-68.99,232.27-3.99,6.11-8.13,12.11-12.42,18-77.33,106.02-202.51,174.92-343.78,174.92-14.82,0-29.47-.76-43.9-2.24l20.36-156.78c7.79.68,15.64,1.02,23.54,1.02,71.37,0,138.47-27.79,188.93-78.26,8.96-8.96,17.2-18.44,24.7-28.38,4.41-5.83,8.56-11.83,12.45-17.97,26.78-42.27,41.11-91.32,41.11-142.58,0-45.92-11.51-90.08-33.16-129.17l135.12-81.96c35.66,62.21,56.04,134.29,56.04,211.13Z"/>
  <path class="cls-1" d="M744.69,145.11l-121.78,100.84c-2.84-3.12-5.76-6.18-8.76-9.19-19.32-19.32-41.07-35.32-64.57-47.7-6.45-3.41-13.04-6.54-19.74-9.38-18.97-8.07-38.88-13.92-59.4-17.39-7.16-1.22-14.39-2.14-21.68-2.77-7.79-.68-15.64-1.02-23.54-1.02V.5c14.82,0,29.47.76,43.9,2.24,7.28.74,14.5,1.68,21.67,2.79,37.43,5.79,73.25,16.47,106.79,31.37,6.68,2.95,13.26,6.08,19.75,9.38,48.56,24.63,91.75,58.31,127.36,98.83Z"/>
  <path class="cls-1" d="M236.28,614.63c19.32,19.32,41.08,35.32,64.58,47.7l-67.75,142.79c-67.64-34.31-124.88-86.19-165.7-149.62l135.14-81.96c9.75,14.62,21.02,28.38,33.73,41.09Z"/>
  <path class="cls-1" d="M211.57,265.15c-4.4,5.83-8.55,11.82-12.44,17.96l-130.11-89.69c3.98-6.11,8.12-12.1,12.42-17.98l130.13,89.71Z"/>
</svg>