<?xml version="1.0" encoding="UTF-8"?>
<svg id="Layer_130" data-name="Layer 130" xmlns="http://www.w3.org/2000/svg" viewBox="0 0 850.91 850.91">
  <defs>
    <style>
      .cls-1 {
        fill: #231f20;
      }
    </style>
  </defs>
  <path class="cls-1" d="M425.22,85.66c45.94,0,90.46,8.98,132.33,26.69,40.48,17.12,76.85,41.65,108.11,72.91,31.26,31.26,55.78,67.63,72.91,108.11,17.71,41.87,26.69,86.39,26.69,132.33s-8.98,90.46-26.69,132.33c-17.12,40.48-41.65,76.85-72.91,108.11s-67.63,55.78-108.11,72.91c-41.87,17.71-86.39,26.69-132.33,26.69s-90.46-8.98-132.33-26.69c-40.48-17.12-76.85-41.65-108.11-72.91-31.26-31.26-55.78-67.63-72.91-108.11-17.71-41.87-26.69-86.39-26.69-132.33s8.98-90.46,26.69-132.33c17.12-40.48,41.65-76.85,72.91-108.11,31.26-31.26,67.63-55.78,108.11-72.91,41.87-17.71,86.39-26.69,132.33-26.69M425.22,1.66C191.03,1.66,1.18,191.51,1.18,425.7s189.85,424.03,424.03,424.03,424.03-189.85,424.03-424.03S659.4,1.66,425.22,1.66h0Z"/>
  <path class="cls-1" d="M425.22,254.18c7.97,0,15.93,3.94,20.48,11.83l129.16,223.72c9.1,15.77-2.28,35.48-20.48,35.48h-258.33c-18.21,0-29.59-19.71-20.48-35.48l129.16-223.72c4.55-7.88,12.52-11.83,20.48-11.83M425.22,170.18c-18.26,0-36.32,4.66-52.24,13.49-17.03,9.44-31.2,23.39-40.99,40.34l-129.17,223.72c-9.79,16.95-14.78,36.2-14.44,55.67.32,18.2,5.31,36.17,14.44,51.99,9.13,15.81,22.2,29.13,37.8,38.5,16.69,10.03,35.85,15.33,55.43,15.33h258.33c19.58,0,38.74-5.3,55.43-15.33,15.6-9.37,28.67-22.69,37.8-38.5,9.13-15.81,14.12-33.79,14.44-51.99.34-19.46-4.65-38.71-14.44-55.67l-129.16-223.72c-9.79-16.95-23.96-30.9-40.99-40.34-15.92-8.82-33.98-13.49-52.24-13.49h0Z"/>
</svg>