<?xml version="1.0" encoding="UTF-8"?>
<svg id="Layer_30" data-name="Layer 30" xmlns="http://www.w3.org/2000/svg" viewBox="0 0 850.41 850.42">
  <defs>
    <style>
      .cls-1 {
        fill: #231f20;
      }
    </style>
  </defs>
  <path d="M838.15,779.03l-177.53-177.52c50.49-63.33,80.66-143.56,80.66-230.85C741.28,165.96,575.34,.02,370.64,.02S0,165.96,0,370.66s165.94,370.64,370.64,370.64c87.29,0,167.52-30.17,230.85-80.66l177.52,177.53c16.33,16.33,42.81,16.33,59.14,0s16.33-42.81,0-59.14Zm-203.02-296.68c-14.45,34.17-35.15,64.87-61.54,91.26s-57.09,47.09-91.26,61.54c-35.33,14.95-72.91,22.53-111.69,22.53s-76.36-7.58-111.7-22.53c-34.16-14.45-64.87-35.15-91.25-61.54-26.39-26.39-47.1-57.09-61.55-91.26-14.94-35.33-22.52-72.91-22.52-111.69s7.58-76.36,22.52-111.7c14.45-34.16,35.16-64.87,61.55-91.25,26.38-26.39,57.09-47.1,91.25-61.55,35.34-14.94,72.91-22.52,111.7-22.52s76.36,7.58,111.69,22.52c34.17,14.45,64.87,35.16,91.26,61.55,26.39,26.38,47.09,57.09,61.54,91.25,14.95,35.34,22.53,72.91,22.53,111.7s-7.58,76.36-22.53,111.69Z"/>
  <rect class="cls-1" x="153.54" y="328.84" width="434.19" height="83.63" rx="41.81" ry="41.81"/>
</svg>