<?xml version="1.0" encoding="UTF-8"?>
<svg id="Layer_132" data-name="Layer 132" xmlns="http://www.w3.org/2000/svg" viewBox="0 0 850.91 850.91">
  <defs>
    <style>
      .cls-1 {
        fill: #231f20;
      }
    </style>
  </defs>
  <path class="cls-1" d="M850.41,425.7c0,85.72-25.36,165.5-68.99,232.27-3.99,6.11-8.13,12.11-12.42,18-77.33,106.02-202.51,174.92-343.78,174.92-9.89,0-19.71-.34-29.44-1-7.86-.54-13.64-7.62-12.62-15.44l16.86-129.86c.91-7.01,7.01-12.21,14.08-11.92,3.69.15,7.4.23,11.11.23,71.37,0,138.47-27.79,188.93-78.26,8.96-8.96,17.2-18.44,24.7-28.38,4.41-5.83,8.56-11.83,12.45-17.97,26.78-42.27,41.11-91.32,41.11-142.58,0-41.62-9.45-81.78-27.34-118.05-3.14-6.36-.97-14.07,5.1-17.75l111.98-67.93c6.73-4.08,15.53-1.68,19.21,5.28,31.32,59.24,49.05,126.77,49.05,198.44Z"/>
  <path class="cls-1" d="M715.35,134.8l-95.25,89.92c-5.17,4.88-13.19,4.96-18.53.25-.03-.03-.06-.06-.1-.08-20.53-18.02-43.28-32.58-67.53-43.41-6.66-2.98-13.44-5.68-20.31-8.08-19.45-6.82-39.7-11.37-60.4-13.5-7.22-.75-14.5-1.2-21.81-1.36-3.51-.08-7.03-.09-10.56-.02-7.3.13-13.39-5.52-13.87-12.8l-8.49-130.43c-.5-7.72,5.49-14.34,13.22-14.59,10.01-.32,19.96-.3,29.83.07,7.31.27,14.58.73,21.81,1.38,37.73,3.35,74.17,11.68,108.6,24.37,6.86,2.51,13.63,5.21,20.32,8.08,45.56,19.5,87.18,46.77,123.06,80.26,5.76,5.38,5.74,14.53.01,19.94Z"/>
  <path class="cls-1" d="M200.04,569.53c12.39,19.39,26.97,36.86,43.39,52.13,5.21,4.85,5.92,12.85,1.55,18.48l-80.26,103.42c-4.84,6.23-13.93,7.11-19.86,1.91-49.58-43.54-88.34-98.07-113.24-158.84-2.99-7.3.81-15.61,8.27-18.16l123.93-42.2c6.74-2.29,14.07.97,16.96,7.48,5.46,12.28,11.89,24.24,19.26,35.78Z"/>
  <path class="cls-1" d="M322.78,178.84c-.07.03-.13.06-.2.08-5.51,2.28-11.82-.33-14.11-5.84l-52.3-125.92c-2.28-5.49.29-11.83,5.78-14.11.11-.05.23-.09.34-.14,5.49-2.27,11.78.39,14.06,5.87l52.3,125.92c2.29,5.52-.34,11.86-5.87,14.14Z"/>
</svg>