<?xml version="1.0" encoding="UTF-8"?>
<svg xmlns="http://www.w3.org/2000/svg" viewBox="0 0 850.35 850.35">
  <path d="M850.35,48.04V802.31c0,26.53-21.51,48.04-48.04,48.04h-171.87c-18.33,0-35.64-8.4-46.98-22.8l-243.52-309.3c-29.93-38.02-91.02-16.85-91.02,31.53v252.55c0,26.52-21.5,48.02-48.02,48.02H48.02c-26.52,0-48.02-21.5-48.02-48.02V48.02C0,21.5,21.5,0,48.02,0H219.9c18.33,0,35.64,8.4,46.99,22.8l243.46,309.07c29.96,38.03,91.08,16.85,91.08-31.56V48.04c0-26.53,21.51-48.04,48.04-48.04h152.85c26.53,0,48.04,21.51,48.04,48.04Z"/>
</svg>