<?xml version="1.0" encoding="UTF-8"?>
<svg id="Layer_101" data-name="Layer 101" xmlns="http://www.w3.org/2000/svg" viewBox="0 0 850.91 850.91">
  <defs>
    <style>
      .cls-1 {
        fill: #010101;
        stroke-width: 0px;
      }
    </style>
  </defs>
  <path class="cls-1" d="M757.57,467.55H92.87C41.68,467.55.18,509.04.18,560.23v197.97c0,51.19,41.5,92.69,92.69,92.69h664.7c51.19,0,92.68-41.5,92.68-92.69v-197.97c0-51.19-41.49-92.68-92.68-92.68ZM766.62,727.2c0,22.08-17.9,39.97-39.98,39.97H123.79c-22.08,0-39.98-17.89-39.98-39.97v-135.96c0-22.08,17.9-39.98,39.98-39.98h602.85c22.08,0,39.98,17.9,39.98,39.98v135.96Z"/>
  <path class="cls-1" d="M757.57.5H92.87C41.68.5.18,41.99.18,93.18v197.97c0,51.19,41.5,92.69,92.69,92.69h664.7c51.19,0,92.68-41.5,92.68-92.69V93.18c0-51.19-41.49-92.68-92.68-92.68ZM766.62,260.15c0,22.08-17.9,39.97-39.98,39.97H123.79c-22.08,0-39.98-17.89-39.98-39.97V124.19c0-22.08,17.9-39.98,39.98-39.98h602.85c22.08,0,39.98,17.9,39.98,39.98v135.96Z"/>
</svg>