<?xml version="1.0" encoding="UTF-8"?>
<svg xmlns="http://www.w3.org/2000/svg" viewBox="0 0 850.91 850.91">
  <path d="M425.22,84.5c46.1,0,90.77,9.01,132.78,26.78,40.62,17.18,77.12,41.79,108.48,73.16,31.36,31.36,55.97,67.86,73.16,108.48,17.77,42.01,26.78,86.69,26.78,132.78s-9.01,90.77-26.78,132.78c-17.18,40.62-41.79,77.12-73.16,108.48-31.36,31.36-67.86,55.97-108.48,73.16-42.01,17.77-86.69,26.78-132.78,26.78s-90.77-9.01-132.78-26.78c-40.62-17.18-77.12-41.79-108.48-73.16-31.36-31.36-55.97-67.86-73.16-108.48-17.77-42.01-26.78-86.69-26.78-132.78s9.01-90.77,26.78-132.78c17.18-40.62,41.79-77.12,73.16-108.48,31.36-31.36,67.86-55.97,108.48-73.16,42.01-17.77,86.69-26.78,132.78-26.78M425.22.5h0C190.39.5.02,190.87.02,425.7H.02C.02,660.53,190.39,850.89,425.22,850.89h0c234.83,0,425.2-190.37,425.2-425.2h0C850.41,190.87,660.05.5,425.22.5h0Z"/>
  <path d="M595.12,467.6h-241.44l95.16,95.16c16.36,16.36,16.36,42.9,0,59.26h0c-16.36,16.36-42.9,16.36-59.26,0l-161.94-161.94c-18.99-18.99-18.99-49.77,0-68.76l24.89-24.89,137.06-137.06c16.37-16.37,42.9-16.36,59.26,0h0c16.36,16.37,16.36,42.9,0,59.26l-95.15,95.15h241.42c23.14,0,41.9,18.76,41.9,41.9h0c0,23.14-18.76,41.91-41.9,41.91Z"/>
</svg>