<?xml version="1.0" encoding="UTF-8"?>
<svg id="Layer_9" data-name="Layer 9" xmlns="http://www.w3.org/2000/svg" viewBox="0 0 888.04 888.03">
  <path d="M802.46,529.52l-46.94-27.11c-20.71-11.95-33.27-34.11-33.24-58.03v-.77c-.03-23.92,12.53-46.07,33.24-58.03l46.94-27.11c34.07-19.67,45.74-63.24,26.08-97.31l-33.94-58.77c-19.67-34.07-63.24-45.74-97.31-26.08l-46.9,27.08c-20.74,11.98-46.24,11.74-66.95-.28-.23-.13-.46-.27-.7-.4-20.68-11.92-33.55-33.87-33.55-57.75v-54.15c0-39.34-31.89-71.23-71.24-71.23h-67.86c-39.35,0-71.24,31.89-71.24,71.23v54.15c0,23.87-12.87,45.83-33.55,57.75-.23,.13-.47,.27-.7,.4-20.72,12.02-46.22,12.25-66.95,.28l-46.9-27.08c-34.07-19.67-77.64-7.99-97.31,26.08l-33.93,58.77c-19.67,34.07-8,77.63,26.08,97.31l46.94,27.11c20.71,11.95,33.27,34.11,33.24,58.03v.77c.03,23.92-12.53,46.07-33.24,58.03l-46.94,27.11c-34.08,19.67-45.75,63.24-26.08,97.31l33.93,58.77c19.67,34.07,63.25,45.74,97.31,26.08l46.9-27.08c20.74-11.98,46.24-11.74,66.95,.28,.23,.13,.46,.27,.7,.4,20.68,11.92,33.55,33.87,33.55,57.75v54.15c0,39.35,31.89,71.24,71.24,71.24h67.86c39.35,0,71.24-31.89,71.24-71.24v-54.15c0-23.87,12.87-45.83,33.55-57.75,.23-.13,.47-.27,.7-.4,20.72-12.02,46.22-12.25,66.95-.28l46.9,27.08c34.07,19.67,77.64,7.99,97.31-26.08l33.94-58.77c19.67-34.07,7.99-77.63-26.08-97.31h0Zm-330.26,52.19c-9.1,1.85-18.52,2.82-28.17,2.82s-19.07-.97-28.17-2.82c-30.37-6.18-57.18-22.16-76.99-44.49-12.45-14.04-22.12-30.58-28.18-48.78-4.65-13.97-7.18-28.91-7.18-44.44s2.52-30.48,7.18-44.44c6.06-18.19,15.74-34.73,28.18-48.78,19.81-22.32,46.62-38.3,76.99-44.49,9.1-1.85,18.52-2.82,28.17-2.82s19.07,.97,28.17,2.82c30.37,6.18,57.18,22.16,76.99,44.49,12.45,14.04,22.12,30.58,28.18,48.78,4.65,13.97,7.18,28.91,7.18,44.44s-2.52,30.48-7.18,44.44c-6.06,18.19-15.74,34.73-28.18,48.78-19.81,22.32-46.62,38.3-76.99,44.49Z"/>
</svg>