<?xml version="1.0" encoding="UTF-8"?>
<svg id="Layer_18" data-name="Layer 18" xmlns="http://www.w3.org/2000/svg" viewBox="0 0 850.41 850.41">
  <defs>
    <style>
      .cls-1 {
        fill: #231f20;
      }
    </style>
  </defs>
  <path class="cls-1" d="M712.99,.91H343.31c-.27,0-.55,0-.82,0-102.26,.43-185.49,82.99-187.03,184.98h-18.06c-71.95,0-130.49,58.54-130.49,130.51v402.62c0,71.95,58.54,130.49,130.49,130.49H507.09c.27,0,.55,0,.82-.01,102.25-.43,185.5-82.98,187.03-184.98h18.05c71.96,0,130.5-58.53,130.5-130.49V131.4C843.49,59.45,784.95,.91,712.99,.91ZM137.4,786.05c-36.96,0-67.02-30.06-67.02-67.02V316.41c0-36.97,30.06-67.04,67.02-67.04h114.78c36.96,0,67.02,30.07,67.02,67.04v345.24c0,1.49,.02,2.98,.05,4.46,.04,1.48,.09,2.96,.16,4.43,.02,.57,.05,1.15,.09,1.72,.01,.3,.03,.59,.05,.89,.03,.6,.07,1.2,.12,1.79,.03,.48,.06,.96,.11,1.44,.05,.7,.1,1.39,.17,2.08,.06,.69,.12,1.39,.19,2.08,.09,.89,.19,1.77,.29,2.65,.06,.57,.13,1.14,.2,1.71,.63,5.09,1.47,10.11,2.5,15.06,.12,.6,.25,1.19,.38,1.79,.15,.69,.3,1.38,.46,2.07,.21,.88,.41,1.76,.63,2.63,.17,.7,.35,1.4,.53,2.09,.17,.67,.34,1.33,.52,2,.8,2.96,1.67,5.89,2.61,8.78,.21,.67,.44,1.34,.66,2.01,.22,.67,.45,1.35,.69,2.01,.23,.67,.47,1.33,.71,1.99,.24,.67,.48,1.33,.73,1.99,.49,1.32,1,2.63,1.52,3.93,.58,1.45,1.18,2.9,1.8,4.33,.21,.5,.43,1,.65,1.5,.44,1.01,.89,2.01,1.35,3.01,2.47,5.36,5.19,10.58,8.14,15.65,.35,.6,.7,1.2,1.06,1.8,.35,.6,.71,1.2,1.08,1.79,.36,.59,.73,1.18,1.1,1.77,2.06,3.3,4.23,6.54,6.49,9.69,.33,.46,.66,.92,1,1.37,.4,.56,.81,1.12,1.23,1.67,2.74,3.67,5.61,7.24,8.61,10.7,.44,.51,.88,1.02,1.33,1.52H137.4Zm369.69,0c-68.61,0-124.42-55.8-124.42-124.4V316.41c0-71.97-58.54-130.51-130.49-130.51h-33.25c1.54-67.27,56.74-121.52,124.38-121.52s124.41,55.81,124.41,124.41v345.25c0,71.96,58.54,130.49,130.49,130.49h33.25c-1.53,67.27-56.74,121.52-124.37,121.52Zm272.93-252.01c0,36.96-30.07,67.03-67.03,67.03h-114.78c-36.95,0-67.02-30.07-67.02-67.03V188.79c0-1.49-.02-2.98-.05-4.46-.04-1.48-.09-2.96-.16-4.43-.02-.57-.05-1.15-.09-1.72-.01-.3-.03-.59-.05-.89-.03-.6-.07-1.2-.12-1.79-.03-.48-.06-.96-.11-1.44-.05-.7-.1-1.39-.17-2.08-.06-.69-.12-1.39-.19-2.08-.09-.89-.19-1.77-.29-2.65-.06-.57-.13-1.14-.2-1.71-.24-1.96-.52-3.9-.82-5.83-.09-.61-.19-1.21-.29-1.82-.41-2.49-.88-4.96-1.39-7.41-.12-.6-.25-1.19-.38-1.79-.16-.76-.33-1.52-.51-2.28-.17-.75-.35-1.51-.54-2.26-.18-.75-.37-1.51-.57-2.26-.38-1.5-.79-2.99-1.21-4.47-.41-1.44-.83-2.86-1.27-4.28-.02-.05-.03-.1-.05-.15-.23-.74-.46-1.47-.7-2.2-.48-1.47-.97-2.92-1.48-4.37-.26-.72-.52-1.44-.78-2.16-.25-.69-.51-1.38-.77-2.07-.28-.74-.57-1.48-.86-2.22-.28-.71-.57-1.42-.86-2.13-.58-1.41-1.17-2.81-1.78-4.21-1-2.27-2.04-4.52-3.12-6.75-.57-1.16-1.14-2.32-1.73-3.47-.24-.46-.48-.93-.73-1.4-.3-.59-.61-1.17-.93-1.75-1.6-2.99-3.28-5.93-5.04-8.82-.39-.64-.79-1.29-1.19-1.93-2.63-4.21-5.43-8.32-8.39-12.31-.39-.53-.78-1.05-1.18-1.57-2.92-3.87-5.99-7.62-9.21-11.25h229.01c36.96,0,67.03,30.07,67.03,67.02v402.64Z"/>
</svg>