<?xml version="1.0" encoding="UTF-8"?>
<svg id="Layer_40" data-name="Layer 40" xmlns="http://www.w3.org/2000/svg" viewBox="0 0 850.89 850.9">
  <defs>
    <style>
      .cls-1 {
        fill: #010101;
        stroke-width: 0px;
      }
    </style>
  </defs>
  <path class="cls-1" d="M850.39,422.64v334.6c0,51.72-41.93,93.65-93.65,93.65h-174.96c-27.62,0-50-22.39-50-50v-127.72c0-51.94-42.1-94.04-94.04-94.04h-25.09c-51.94,0-94.04,42.1-94.04,94.04v127.72c0,27.62-22.39,50-50,50H93.66C41.93,850.89,0,808.96,0,757.24v-334.6c0-27.06,10.82-53,30.04-72.04l182.56-180.83L353.84,29.86c39.52-39.15,103.2-39.15,142.72,0l141.24,139.91,182.55,180.83c19.22,19.04,30.04,44.98,30.04,72.04Z"/>
</svg>