<?xml version="1.0" encoding="UTF-8"?>
<svg id="Layer_59" data-name="Layer 59" xmlns="http://www.w3.org/2000/svg" viewBox="0 0 850.93 850.91">
  <defs>
    <style>
      .cls-1 {
        fill: #231f20;
        stroke-width: 0px;
      }
    </style>
  </defs>
  <path class="cls-1" d="M50.78,833.22l83.24-10,109.28-13.13,10.62-1.27c18.47-2.21,31.64-18.98,29.42-37.45l-24.39-203.12c-2.22-18.48-18.98-31.65-37.45-29.42l-16.31,1.95c-18.47,2.23-31.64,18.99-29.43,37.46l11,91.51c-23.86-23.22-44.02-49.62-60.17-78.83-7.33-13.27-13.74-26.93-19.2-40.94-10.42-26.73-17.43-54.7-20.91-83.61-5.29-44.03-2.09-87.94,9.49-130.49,11.98-44.01,32.49-84.71,60.97-120.96,28.48-36.25,63.17-65.82,103.09-87.88,38.6-21.33,80.5-34.82,124.54-40.12,26.5-3.18,52.95-3.29,79.08-.35,4.44.5,8.82-1.33,11.58-4.84l41.18-52.42c5.96-7.58,1.78-18.74-7.68-20.63C356.58-21.65,193.27,32.68,90.87,163.03-16.1,299.2-26.73,480.28,49.1,624.16c22.08,41.93,51.53,80.71,88.06,114.29l-96.37,11.57c-18.47,2.23-31.64,18.99-29.42,37.45l1.96,16.32c2.22,18.46,18.98,31.63,37.45,29.42Z"/>
  <path class="cls-1" d="M334.06,822.07c-5.96,7.58-1.78,18.74,7.68,20.63,152.15,30.35,315.45-23.99,417.85-154.34,106.97-136.17,117.62-317.26,41.79-461.15-22.08-41.93-51.52-80.7-88.06-114.27l96.32-11.57h.04c18.47-2.22,31.65-18.99,29.42-37.46l-1.95-16.31c-2.23-18.47-18.99-31.64-37.45-29.42l-203.13,24.39c-18.47,2.22-31.64,18.99-29.42,37.45l24.39,203.13c2.22,18.46,18.98,31.63,37.45,29.42l16.31-1.97c18.47-2.21,31.65-18.98,29.42-37.45l-10.98-91.53c23.85,23.22,44.01,49.63,60.15,78.84,7.33,13.27,13.74,26.93,19.2,40.94,10.44,26.73,17.44,54.7,20.91,83.6,5.28,44.04,2.09,87.94-9.48,130.5-11.99,44.01-32.5,84.71-60.98,120.96s-63.16,65.81-103.08,87.88c-38.61,21.32-80.51,34.82-124.55,40.11-26.5,3.18-52.95,3.29-79.09.35-4.44-.5-8.82,1.33-11.58,4.84l-41.18,52.42Z"/>
</svg>