<?xml version="1.0" encoding="UTF-8"?>
<svg id="Layer_22" data-name="Layer 22" xmlns="http://www.w3.org/2000/svg" viewBox="0 0 850.41 850.42">
  <defs>
    <style>
      .cls-1 {
        fill: #231f20;
      }
    </style>
  </defs>
  <circle class="cls-1" cx="425.2" cy="425.22" r="82.7" transform="translate(-176.14 425.21) rotate(-45)"/>
  <path class="cls-1" d="M425.2,201.24c-152.35,0-288.41,71.46-377.98,133.65-62.96,43.72-62.96,136.95,0,180.67,89.57,62.19,225.63,133.64,377.98,133.64s288.41-71.45,377.97-133.64c62.96-43.72,62.96-136.95,0-180.67-89.57-62.19-225.62-133.65-377.98-133.65Zm0,393.06c-93.38,0-169.09-75.71-169.09-169.08s75.71-169.09,169.09-169.09,169.08,75.71,169.08,169.09-75.71,169.08-169.08,169.08Z"/>
</svg>