<?xml version="1.0" encoding="UTF-8"?>
<svg id="Layer_57" data-name="Layer 57" xmlns="http://www.w3.org/2000/svg" viewBox="0 0 850.9 850.9">
  <defs>
    <style>
      .cls-1 {
        fill: #010101;
        stroke-width: 0px;
      }
    </style>
  </defs>
  <path class="cls-1" d="M83.79,727.19v-144.71c0-15.8-12.81-28.61-28.61-28.61h-26.41c-15.8,0-28.61,12.81-28.61,28.61v175.72c0,51.19,41.5,92.69,92.69,92.69h175.57c15.8,0,28.61-12.81,28.61-28.61v-26.5c0-15.8-12.81-28.61-28.61-28.61H123.77c-22.08,0-39.98-17.9-39.98-39.98ZM92.85.5C41.66.5.16,42,.16,93.19v175.73c0,15.8,12.81,28.61,28.61,28.61h26.41c15.8,0,28.61-12.81,28.61-28.61V124.19c0-22.08,17.9-39.98,39.98-39.98h144.65c15.8,0,28.61-12.81,28.61-28.61v-26.49c0-15.8-12.81-28.61-28.61-28.61H92.85ZM766.6,727.2c0,22.07-17.9,39.97-39.97,39.97h-144.65c-15.8,0-28.61,12.81-28.61,28.61v26.5c0,15.8,12.81,28.61,28.61,28.61h175.57c51.19,0,92.68-41.49,92.68-92.68v-175.73c0-15.8-12.81-28.61-28.61-28.61h-26.41c-15.8,0-28.61,12.81-28.61,28.61v144.72ZM757.55.5h-175.57c-15.8,0-28.61,12.81-28.61,28.61v26.49c0,15.8,12.81,28.61,28.61,28.61h144.64c22.08,0,39.98,17.9,39.98,39.98v144.73c0,15.8,12.81,28.61,28.61,28.61h26.41c15.8,0,28.61-12.81,28.61-28.61V93.18c0-51.19-41.49-92.68-92.68-92.68Z"/>
  <rect class="cls-1" x="174.15" y="174.57" width="502.1" height="83.71" rx="27.17" ry="27.17"/>
  <rect class="cls-1" x="174.15" y="383.84" width="502.1" height="83.71" rx="27.17" ry="27.17"/>
  <rect class="cls-1" x="174.15" y="593.12" width="502.1" height="83.71" rx="27.17" ry="27.17"/>
</svg>