<?xml version="1.0" encoding="UTF-8"?>
<svg id="Layer_87" data-name="Layer 87" xmlns="http://www.w3.org/2000/svg" viewBox="0 0 850.91 850.91">
  <defs>
    <style>
      .cls-1 {
        fill: #010101;
        stroke-width: 0px;
      }
    </style>
  </defs>
  <path class="cls-1" d="M794.22,758.05V93.35c0-51.19-41.49-92.69-92.68-92.69H148.9c-51.19,0-92.69,41.5-92.69,92.69v664.7c0,51.19,41.5,92.68,92.69,92.68h552.64c51.19,0,92.68-41.49,92.68-92.68ZM179.9,767.1c-22.08,0-39.97-17.9-39.97-39.98V124.27c0-22.08,17.89-39.98,39.97-39.98h490.63c22.08,0,39.98,17.9,39.98,39.98v602.85c0,22.08-17.9,39.98-39.98,39.98H179.9Z"/>
  <g>
    <path class="cls-1" d="M336.61,293.74c0,10.38.95,20.62,2.83,30.67,1.09,5.8-3.39,11.14-9.29,11.14h-66.14c-11.55,0-22.01-4.68-29.57-12.25-7.5-7.49-12.16-17.82-12.25-29.24-.17-23.18,19.38-42.14,42.56-42.14h65.4c5.9,0,10.38,5.35,9.29,11.14-1.89,10.05-2.83,20.29-2.83,30.68Z"/>
    <path class="cls-1" d="M618.32,244.74c-6.34-14.99-15.4-28.44-26.93-39.97-11.53-11.53-24.98-20.59-39.97-26.93-15.56-6.58-32.05-9.92-49-9.92s-33.43,3.34-49,9.92c-14.99,6.34-28.43,15.4-39.96,26.93s-20.59,24.98-26.93,39.97c-2.92,6.91-5.2,13.99-6.84,21.23-2.05,9.06-3.08,18.34-3.08,27.77s1.03,18.7,3.08,27.76c1.64,7.24,3.92,14.33,6.84,21.24,6.34,14.99,15.4,28.43,26.93,39.96,11.53,11.53,24.97,20.59,39.96,26.93,15.57,6.58,32.05,9.92,49,9.92s33.44-3.34,49-9.92c14.99-6.34,28.44-15.4,39.97-26.93s20.59-24.97,26.93-39.96c6.58-15.57,9.92-32.06,9.92-49s-3.34-33.44-9.92-49ZM502.42,335.55c-23.09,0-41.81-18.72-41.81-41.81s18.72-41.82,41.81-41.82,41.82,18.72,41.82,41.82-18.72,41.81-41.82,41.81Z"/>
  </g>
  <g>
    <path class="cls-1" d="M513.82,557.65c0-10.38-.95-20.62-2.83-30.67-1.09-5.8,3.39-11.14,9.29-11.14h66.14c11.55,0,22.01,4.68,29.57,12.25,7.5,7.49,12.16,17.82,12.25,29.24.17,23.18-19.38,42.14-42.56,42.14h-65.4c-5.9,0-10.38-5.35-9.29-11.14,1.89-10.05,2.83-20.29,2.83-30.68Z"/>
    <path class="cls-1" d="M232.11,606.65c6.34,14.99,15.4,28.44,26.93,39.97,11.53,11.53,24.98,20.59,39.97,26.93,15.56,6.58,32.05,9.92,49,9.92s33.43-3.34,49-9.92c14.99-6.34,28.43-15.4,39.96-26.93s20.59-24.98,26.93-39.97c2.92-6.91,5.2-13.99,6.84-21.23,2.05-9.06,3.08-18.34,3.08-27.77s-1.03-18.7-3.08-27.76c-1.64-7.24-3.92-14.33-6.84-21.24-6.34-14.99-15.4-28.43-26.93-39.96-11.53-11.53-24.97-20.59-39.96-26.93-15.57-6.58-32.05-9.92-49-9.92s-33.44,3.34-49,9.92c-14.99,6.34-28.44,15.4-39.97,26.93s-20.59,24.97-26.93,39.96c-6.58,15.57-9.92,32.06-9.92,49s3.34,33.44,9.92,49ZM348.01,515.84c23.09,0,41.81,18.72,41.81,41.81s-18.72,41.82-41.81,41.82-41.82-18.72-41.82-41.82,18.72-41.81,41.82-41.81Z"/>
  </g>
</svg>