<?xml version="1.0" encoding="UTF-8"?>
<svg xmlns="http://www.w3.org/2000/svg" viewBox="0 0 850.91 850.91">
  <path d="M285.99,472.24H92.71C41.52,472.24.02,513.73.02,564.92v193.28c0,51.19,41.5,92.69,92.69,92.69h193.28c51.19,0,92.68-41.5,92.68-92.69v-193.28c0-51.19-41.49-92.68-92.68-92.68Z"/>
  <path d="M757.73.5h-193.28c-51.19,0-92.69,41.49-92.69,92.68v193.28c0,51.19,41.5,92.69,92.69,92.69h193.28c51.19,0,92.68-41.5,92.68-92.69V93.19c0-51.19-41.49-92.68-92.68-92.68Z"/>
  <path d="M285.99.5H92.71C41.52.5.02,41.99.02,93.18v193.28c0,51.19,41.5,92.69,92.69,92.69h193.28c51.19,0,92.68-41.5,92.68-92.69V93.19c0-51.19-41.49-92.68-92.68-92.68Z"/>
  <path d="M757.73,472.24h-193.28c-51.19,0-92.69,41.49-92.69,92.68v193.28c0,51.19,41.5,92.69,92.69,92.69h193.28c51.19,0,92.68-41.5,92.68-92.69v-193.28c0-51.19-41.49-92.68-92.68-92.68Z"/>
</svg>