<?xml version="1.0" encoding="UTF-8"?>
<svg id="Layer_54" data-name="Layer 54" xmlns="http://www.w3.org/2000/svg" viewBox="0 0 850.89 850.9">
  <defs>
    <style>
      .cls-1 {
        fill: #231f20;
        stroke-width: 0px;
      }
    </style>
  </defs>
  <path class="cls-1" d="M771.13,483.17c12.6,12.6,12.6,33.02,0,45.62l-286.68,286.69-18.57,18.57c-22.47,22.46-58.89,22.46-81.35,0l-18.57-18.57L79.26,528.79c-12.6-12.6-12.6-33.03,0-45.62l13.63-13.63c12.6-12.6,33.03-12.6,45.62,0l231.7,231.7c4.83,4.83,13.09,1.41,13.09-5.42V32.76c0-17.82,14.45-32.26,32.26-32.26h19.27c17.82,0,32.26,14.44,32.26,32.26v663.06c0,6.83,8.26,10.25,13.09,5.42l231.7-231.71c12.6-12.6,33.03-12.6,45.62,0l13.63,13.63Z"/>
</svg>