<?xml version="1.0" encoding="UTF-8"?>
<svg id="Layer_116" data-name="Layer 116" xmlns="http://www.w3.org/2000/svg" viewBox="0 0 850.91 850.91">
  <defs>
    <style>
      .cls-1 {
        fill: #231f20;
        stroke-width: 0px;
      }
    </style>
  </defs>
  <path class="cls-1" d="M844.45,52.14c0,23.19-18.8,42-42,42-165.89,0-250.3,170.25-339.66,350.49-46.57,93.92-94.72,191.04-156.5,264.81-27.19,32.48-55.73,58.83-85.86,79.18h259.93c4.37-13.23,16.83-22.77,31.52-22.77,18.32,0,33.18,14.85,33.18,33.18s-14.86,33.18-33.18,33.18c-14.69,0-27.15-9.54-31.52-22.77H184.97c-42.1,21.16-87.21,31.59-135.91,31.59-23.2,0-42-18.8-42-42s18.8-42,42-42c165.08,0,249.3-169.87,338.47-349.71,46.64-94.08,94.88-191.37,156.84-265.31,27.33-32.61,56.01-59.06,86.29-79.46h-260.6c-4.36,13.22-16.82,22.77-31.51,22.77-18.32,0-33.18-14.86-33.18-33.18s14.86-33.18,33.18-33.18c14.69,0,27.15,9.54,31.51,22.77h296.13c42.21-21.16,87.43-31.59,136.26-31.59,23.2,0,42,18.8,42,42Z"/>
</svg>