<?xml version="1.0" encoding="UTF-8"?>
<svg id="Layer_112" data-name="Layer 112" xmlns="http://www.w3.org/2000/svg" viewBox="0 0 850.91 850.91">
  <defs>
    <style>
      .cls-1 {
        fill: #231f20;
      }
    </style>
  </defs>
  <g>
    <path class="cls-1" d="M821.92,190.99l-581.72-.44c-15.74,0-28.49-12.76-28.49-28.49v-26.8c0-15.74,12.76-28.49,28.49-28.49l581.72.44c15.74,0,28.49,12.76,28.49,28.49v26.8c0,15.74-12.76,28.49-28.49,28.49Z"/>
    <path class="cls-1" d="M821.92,467.59l-581.72-.44c-15.74,0-28.49-12.76-28.49-28.49v-26.8c0-15.74,12.76-28.49,28.49-28.49l581.72.44c15.74,0,28.49,12.76,28.49,28.49v26.8c0,15.74-12.76,28.49-28.49,28.49Z"/>
    <path class="cls-1" d="M821.92,744.19l-581.72-.44c-15.74,0-28.49-12.76-28.49-28.49v-26.8c0-15.74,12.76-28.49,28.49-28.49l581.72.44c15.74,0,28.49,12.76,28.49,28.49v26.8c0,15.74-12.76,28.49-28.49,28.49Z"/>
  </g>
  <circle class="cls-1" cx="70.73" cy="149.09" r="70.71"/>
  <circle class="cls-1" cx="70.73" cy="425.7" r="70.71"/>
  <circle class="cls-1" cx="70.73" cy="702.3" r="70.71"/>
</svg>