<?xml version="1.0" encoding="UTF-8"?>
<svg id="Layer_124" data-name="Layer 124" xmlns="http://www.w3.org/2000/svg" viewBox="0 0 850.91 850.91">
  <defs>
    <style>
      .cls-1 {
        fill: #231f20;
      }
    </style>
  </defs>
  <rect class="cls-1" x="96.83" y=".5" width="656.78" height="84.11" rx="32" ry="32"/>
  <rect class="cls-1" x="96.83" y="766.78" width="656.78" height="84.11" rx="32" ry="32"/>
  <path class="cls-1" d="M576.44,514.9c12.6,12.6,12.6,33.03,0,45.63l-91.97,91.97-18.58,18.57c-22.46,22.46-58.88,22.46-81.35,0l-110.54-110.54c-12.6-12.6-12.6-33.03,0-45.63l13.62-13.62c12.6-12.6,33.03-12.6,45.63,0l36.98,36.98c4.83,4.83,13.09,1.41,13.09-5.43v-156.89s.01-57.39.01-57.39c0-6.83-8.26-10.25-13.09-5.42l-36.99,36.99c-12.6,12.6-33.03,12.6-45.63,0l-13.62-13.63c-12.6-12.6-12.6-33.02,0-45.62l110.54-110.54c22.47-22.47,58.89-22.47,81.35,0l18.58,18.57,91.97,91.97c12.6,12.6,12.6,33.02,0,45.62l-13.63,13.63c-12.6,12.6-33.02,12.6-45.62,0l-36.98-36.98c-4.83-4.83-13.09-1.41-13.09,5.42v156.37s0,57.91,0,57.91c0,6.84,8.26,10.26,13.09,5.43l36.99-36.99c12.6-12.6,33.02-12.6,45.62,0l13.63,13.62Z"/>
</svg>