<?xml version="1.0" encoding="UTF-8"?>
<svg id="Layer_2" data-name="Layer 2" xmlns="http://www.w3.org/2000/svg" viewBox="0 0 631.47 631.47">
  <path d="M315.73,631.47c-42.58,0-83.94-8.36-122.92-24.85-37.6-15.9-71.36-38.66-100.33-67.63-28.97-28.97-51.73-62.73-67.64-100.34C8.36,399.69,0,358.34,0,315.73s8.36-83.96,24.84-122.92c15.91-37.61,38.67-71.37,67.64-100.34,28.98-28.98,62.73-51.73,100.34-67.63C231.78,8.36,273.13,0,315.73,0c107.39,0,206.44,53.83,264.98,143.98,10.46,16.1,14.02,35.32,10.02,54.1-4,18.78-15.07,34.89-31.18,45.34-11.68,7.58-25.2,11.6-39.1,11.6-24.47,0-47.03-12.24-60.34-32.75-31.91-49.15-85.88-78.49-144.38-78.49-94.81,0-171.95,77.13-171.95,171.95s77.13,171.96,171.95,171.96,171.96-77.14,171.96-171.96c0-3.43-.1-6.83-.29-10.11l-1.54-26.01,143.6-8.3,1.49,25.98c.35,6.13,.53,12.33,.53,18.44,0,42.61-8.36,83.96-24.84,122.92-15.91,37.61-38.66,71.37-67.64,100.34-28.98,28.98-62.73,51.73-100.33,67.63-38.98,16.49-80.34,24.85-122.93,24.85Z"/>
</svg>