<?xml version="1.0" encoding="UTF-8"?>
<svg id="Layer_126" data-name="Layer 126" xmlns="http://www.w3.org/2000/svg" viewBox="0 0 850.91 850.91">
  <defs>
    <style>
      .cls-1 {
        fill: #010101;
      }
    </style>
  </defs>
  <path class="cls-1" d="M632.57.5H217.88c-51.19,0-92.69,41.49-92.69,92.68v665.02c0,51.19,41.5,92.69,92.69,92.69h414.69c51.19,0,92.68-41.5,92.68-92.69V93.19c0-51.19-41.49-92.68-92.68-92.68ZM641.62,727.2c0,22.08-17.9,39.97-39.98,39.97H248.8c-22.08,0-39.98-17.89-39.98-39.97V124.19c0-22.08,17.9-39.98,39.98-39.98h352.84c22.08,0,39.98,17.91,39.98,39.98v603.01Z"/>
  <rect class="cls-1" x="301.85" y="704.65" width="246.74" height="25.85" rx="12.92" ry="12.92"/>
</svg>