<?xml version="1.0" encoding="UTF-8"?>
<svg id="Layer_77" data-name="Layer 77" xmlns="http://www.w3.org/2000/svg" viewBox="0 0 850.91 850.91">
  <defs>
    <style>
      .cls-1 {
        fill: #231f20;
        stroke-width: 0px;
      }
    </style>
  </defs>
  <circle class="cls-1" cx="425.22" cy="425.7" r="257.4"/>
  <path class="cls-1" d="M425.22,84.5c46.1,0,90.77,9.01,132.78,26.78,40.62,17.18,77.12,41.79,108.48,73.16,31.36,31.36,55.97,67.86,73.16,108.48,17.77,42.01,26.78,86.69,26.78,132.78s-9.01,90.77-26.78,132.78c-17.18,40.62-41.79,77.12-73.16,108.48-31.36,31.36-67.86,55.97-108.48,73.16-42.01,17.77-86.69,26.78-132.78,26.78s-90.77-9.01-132.78-26.78c-40.62-17.18-77.12-41.79-108.48-73.16-31.36-31.36-55.97-67.86-73.16-108.48-17.77-42.01-26.78-86.69-26.78-132.78s9.01-90.77,26.78-132.78c17.18-40.62,41.79-77.12,73.16-108.48,31.36-31.36,67.86-55.97,108.48-73.16,42.01-17.77,86.69-26.78,132.78-26.78M425.22.5h0C190.39.5.02,190.87.02,425.7H.02C.02,660.53,190.39,850.89,425.22,850.89h0c234.83,0,425.2-190.37,425.2-425.2h0C850.41,190.87,660.05.5,425.22.5h0Z"/>
</svg>