<?xml version="1.0" encoding="UTF-8"?>
<svg xmlns="http://www.w3.org/2000/svg" viewBox="0 0 850.91 850.91">
  <path d="M821.47,325.29h-42.98v-58.29c0-51.19-41.49-92.68-92.68-92.68l-592.94-.06C41.68,174.26.18,215.75.18,266.94v317.39c0,51.19,41.5,92.69,92.69,92.69l592.94.06c51.19,0,92.68-41.5,92.68-92.69v-58.28h42.98c15.98,0,28.94-12.96,28.94-28.95v-142.93c0-15.98-12.96-28.94-28.94-28.94ZM694.86,553.39c0,22.08-17.9,39.97-39.98,39.97l-531.09-.06c-22.08,0-39.98-17.89-39.98-39.97v-255.38c0-22.08,17.9-39.98,39.98-39.98l531.09.06c22.08,0,39.98,17.9,39.98,39.98v255.38Z"/>
  <path d="M611.06,361v129.39c0,10.64-8.62,19.26-19.25,19.26l-404.94-.06c-10.64,0-19.26-8.62-19.26-19.26v-129.39c0-10.63,8.62-19.26,19.26-19.26l404.94.06c10.63,0,19.25,8.63,19.25,19.26Z"/>
</svg>