<?xml version="1.0" encoding="UTF-8"?>
<svg xmlns="http://www.w3.org/2000/svg" viewBox="0 0 850.89 850.9">
  <rect x="383.3" y="341.94" width="83.79" height="849.5" rx="31.36" ry="31.36" transform="translate(1191.89 341.5) rotate(90)"/>
  <path d="M459.85,259.32h-69.29c-51.19,0-92.69,41.49-92.69,92.68v236.18c0,51.19,41.5,92.69,92.69,92.69h69.29c51.19,0,92.68-41.5,92.68-92.69v-236.18c0-51.19-41.49-92.68-92.68-92.68ZM468.9,557.18c0,22.08-17.9,39.97-39.98,39.97h-7.44c-22.08,0-39.98-17.89-39.98-39.97v-174.17c0-22.08,17.9-39.98,39.98-39.98h7.44c22.08,0,39.98,17.9,39.98,39.98v174.17Z"/>
  <path d="M161.98,42.81h-69.29C41.5,42.81,0,84.3,0,135.49v452.69C0,639.36,41.5,680.86,92.69,680.86h69.29c51.19,0,92.68-41.5,92.68-92.69V135.49c0-51.19-41.49-92.68-92.68-92.68ZM171.03,557.17c0,22.08-17.9,39.97-39.98,39.97h-7.44c-22.08,0-39.98-17.89-39.98-39.97V166.5c0-22.08,17.9-39.98,39.98-39.98h7.44c22.08,0,39.98,17.9,39.98,39.98v390.68Z"/>
  <path d="M757.71,166.5h-69.29c-51.19,0-92.69,41.49-92.69,92.68v329c0,51.19,41.5,92.69,92.69,92.69h69.29c51.19,0,92.68-41.5,92.68-92.69v-329c0-51.19-41.49-92.68-92.68-92.68ZM766.76,557.18c0,22.08-17.9,39.97-39.98,39.97h-7.44c-22.08,0-39.98-17.89-39.98-39.97v-266.99c0-22.08,17.9-39.98,39.98-39.98h7.44c22.08,0,39.98,17.9,39.98,39.98v266.99Z"/>
</svg>