<?xml version="1.0" encoding="UTF-8"?>
<svg xmlns="http://www.w3.org/2000/svg" viewBox="0 0 850.91 850.91">
  <path d="M850.33,184.89v481.61c0,51.19-41.5,92.69-92.69,92.69h-202.69c-15.42,0-27.76-12.94-26.85-28.34.55-9.29.83-18.64.83-28.06v-.28c0-14.94,12.1-27.04,27.04-27.04h170.76c22.08,0,39.98-17.9,39.98-39.98V215.9c0-22.08-17.9-39.98-39.98-39.98H123.87c-22.08,0-39.98,17.9-39.98,39.98h0c0,7.44-6.15,13.4-13.58,13.19-4.59-.13-9.19-.2-13.81-.2-14.06,0-28.02.61-41.88,1.82-7.73.68-14.38-5.4-14.37-13.16v-32.66c.01-12.93,2.66-25.24,7.45-36.42,7.94-18.59,21.79-34.05,39.19-44.02,13.57-7.79,29.3-12.24,46.06-12.24h664.7c51.19,0,92.68,41.49,92.68,92.68Z"/>
  <path d="M682.9,278.88v293.62c0,10.64-8.62,19.26-19.25,19.26h-136.84c-6.48,0-12.11-4.38-13.78-10.64-36.19-135.67-131.39-247.5-256.32-306.19-7.78-3.65-5.21-15.3,3.38-15.3h403.55c10.63,0,19.25,8.62,19.25,19.25Z"/>
  <path d="M446.4,702.79c0,9.3-.32,18.55-.97,27.75-1.13,16.11-14.44,28.65-30.59,28.65h-22.76c-17.77,0-31.94-15.07-30.58-32.79.6-7.79.9-15.67.9-23.61,0-9.21-.41-18.32-1.21-27.32-2.6-29.28-9.34-57.38-19.64-83.71-31.05-79.46-94.42-142.86-173.86-173.96-26.38-10.33-54.54-17.09-83.88-19.7-9-.8-18.11-1.21-27.31-1.21-7.91,0-15.76.3-23.52.89-17.72,1.35-32.79-12.82-32.78-30.59v-22.76c.01-16.15,12.55-29.46,28.66-30.58,9.16-.64,18.38-.96,27.65-.96s18.29.31,27.35.95c28.57,1.95,56.6,7.02,83.84,15.13,13.74,4.08,27.28,8.94,40.59,14.57,46.44,19.64,88.13,47.75,123.92,83.55,35.8,35.79,63.91,77.48,83.55,123.92,5.65,13.37,10.53,26.96,14.62,40.75,8.09,27.21,13.13,55.19,15.09,83.71.63,9.06.94,18.16.94,27.32Z"/>
  <path d="M279.81,702.79c0,10.08-.66,20.06-1.97,29.89-2.02,15.2-15.05,26.51-30.38,26.51h-22.94c-18.86,0-33.09-16.85-30.27-35.5,1.03-6.82,1.56-13.8,1.56-20.9,0-9.35-.93-18.48-2.69-27.32-10.97-54.97-54.4-98.37-109.38-109.32-8.81-1.75-17.92-2.67-27.24-2.67-7.09,0-14.06.53-20.87,1.56-18.66,2.81-35.51-11.41-35.5-30.28v-22.94c.01-15.33,11.33-28.35,26.52-30.37,9.82-1.31,19.79-1.97,29.86-1.97,9.19,0,18.3.55,27.28,1.65,29.78,3.59,58.21,13.08,83.91,27.9,16.88,9.71,32.58,21.72,46.71,35.86,14.18,14.18,26.22,29.94,35.95,46.87,14.76,25.65,24.22,54.01,27.81,83.71,1.1,8.99,1.65,18.11,1.65,27.32Z"/>
  <path d="M112.9,702.79c0,25.62-17.08,47.25-40.47,54.12-6.53,1.92-13.57,2.69-20.85,2.07-27.82-2.38-49.91-25.21-51.4-53.08-.36-6.73.46-13.22,2.27-19.28,6.95-23.27,28.52-40.23,54.05-40.23,12.94,0,24.86,4.35,34.37,11.68,3.89,2.99,7.38,6.48,10.37,10.38,7.31,9.51,11.66,21.42,11.66,34.34Z"/>
</svg>