<?xml version="1.0" encoding="UTF-8"?>
<svg xmlns="http://www.w3.org/2000/svg" viewBox="0 0 850.91 850.91">
  <rect x="96.83" y="383.64" width="656.78" height="84.11" rx="32" ry="32"/>
  <path d="M274,719.63c-12.6-12.6-12.6-33.02,0-45.62l91.97-91.97,18.57-18.57c22.47-22.46,58.89-22.46,81.35,0l18.57,18.57,91.97,91.97c12.6,12.6,12.6,33.03,0,45.62l-13.63,13.63c-12.6,12.6-33.03,12.6-45.62,0l-36.98-36.98c-4.83-4.83-13.09-1.41-13.09,5.42v116.93c0,17.82-14.45,32.26-32.27,32.26h-19.27c-17.82,0-32.26-14.44-32.26-32.26v-116.94c0-6.83-8.25-10.25-13.09-5.42l-36.99,36.99c-12.6,12.6-33.03,12.6-45.62,0l-13.63-13.63Z"/>
  <path d="M576.44,131.76c12.6,12.6,12.6,33.02,0,45.62l-91.97,91.97-18.57,18.57c-22.47,22.46-58.89,22.46-81.35,0l-18.57-18.57-91.97-91.97c-12.6-12.6-12.6-33.03,0-45.62l13.63-13.63c12.6-12.6,33.03-12.6,45.62,0l36.98,36.98c4.83,4.83,13.09,1.41,13.09-5.42V32.76c0-17.82,14.45-32.26,32.27-32.26h19.27c17.82,0,32.26,14.44,32.26,32.26v116.94c0,6.83,8.25,10.25,13.09,5.42l36.99-36.99c12.6-12.6,33.03-12.6,45.62,0l13.63,13.63Z"/>
</svg>