<?xml version="1.0" encoding="UTF-8"?>
<svg id="Layer_129" data-name="Layer 129" xmlns="http://www.w3.org/2000/svg" viewBox="0 0 850.91 850.91">
  <defs>
    <style>
      .cls-1 {
        fill: #231f20;
      }
    </style>
  </defs>
  <path class="cls-1" d="M425.22,85.66c45.94,0,90.46,8.98,132.33,26.69,40.48,17.12,76.85,41.65,108.11,72.91,31.26,31.26,55.78,67.63,72.91,108.11,17.71,41.87,26.69,86.39,26.69,132.33s-8.98,90.46-26.69,132.33c-17.12,40.48-41.65,76.85-72.91,108.11s-67.63,55.78-108.11,72.91c-41.87,17.71-86.39,26.69-132.33,26.69s-90.46-8.98-132.33-26.69c-40.48-17.12-76.85-41.65-108.11-72.91-31.26-31.26-55.78-67.63-72.91-108.11-17.71-41.87-26.69-86.39-26.69-132.33s8.98-90.46,26.69-132.33c17.12-40.48,41.65-76.85,72.91-108.11,31.26-31.26,67.63-55.78,108.11-72.91,41.87-17.71,86.39-26.69,132.33-26.69M425.22,1.66C191.03,1.66,1.18,191.51,1.18,425.7s189.85,424.03,424.03,424.03,424.03-189.85,424.03-424.03S659.4,1.66,425.22,1.66h0Z"/>
  <path class="cls-1" d="M545.12,305.79c10.84,10.84,16.81,25.25,16.81,40.58v158.66c0,31.64-25.74,57.38-57.38,57.38h-158.66c-15.33,0-29.74-5.97-40.58-16.81-10.84-10.84-16.81-25.25-16.81-40.58v-158.66c0-31.64,25.74-57.38,57.38-57.38h158.66c15.33,0,29.74,5.97,40.58,16.81M604.52,246.39c-25.59-25.59-60.93-41.41-99.97-41.41h-158.66c-78.08,0-141.38,63.3-141.38,141.38v158.66c0,39.04,15.83,74.39,41.41,99.97,25.59,25.59,60.93,41.41,99.97,41.41h158.66c78.08,0,141.38-63.3,141.38-141.38v-158.66c0-39.04-15.83-74.39-41.41-99.97h0Z"/>
</svg>