<?xml version="1.0" encoding="UTF-8"?>
<svg id="Layer_48_copy" data-name="Layer 48 copy" xmlns="http://www.w3.org/2000/svg" viewBox="0 0 850.9 850.9">
  <defs>
    <style>
      .cls-1 {
        fill: #231f20;
        stroke-width: 0px;
      }
    </style>
  </defs>
  <path class="cls-1" d="M682.6,425.7c0,23.14-18.76,41.89-41.89,41.89h-173.62v173.62c0,11.57-4.69,22.04-12.27,29.62-7.58,7.58-18.05,12.27-29.62,12.27-23.14,0-41.9-18.76-41.9-41.89v-173.62h-173.61c-11.57,0-22.05-4.69-29.63-12.27-7.58-7.58-12.27-18.05-12.27-29.62,0-23.14,18.76-41.9,41.9-41.9h173.61v-173.61c0-23.14,18.76-41.9,41.9-41.9s41.89,18.76,41.89,41.9v173.61h173.62c23.13,0,41.89,18.76,41.89,41.9Z"/>
  <path class="cls-1" d="M425.2,84.5c46.1,0,90.77,9.01,132.78,26.78,40.62,17.18,77.12,41.79,108.48,73.16,31.36,31.36,55.97,67.86,73.16,108.48,17.77,42.01,26.78,86.69,26.78,132.78s-9.01,90.77-26.78,132.78c-17.18,40.62-41.79,77.12-73.16,108.48-31.36,31.36-67.86,55.97-108.48,73.16-42.01,17.77-86.69,26.78-132.78,26.78s-90.77-9.01-132.78-26.78c-40.62-17.18-77.12-41.79-108.48-73.16-31.36-31.36-55.97-67.86-73.16-108.48-17.77-42.01-26.78-86.69-26.78-132.78s9.01-90.77,26.78-132.78c17.18-40.62,41.79-77.12,73.16-108.48,31.36-31.36,67.86-55.97,108.48-73.16,42.01-17.77,86.69-26.78,132.78-26.78M425.2.5h0C190.37.5,0,190.87,0,425.7H0C0,660.53,190.37,850.89,425.2,850.89h0c234.83,0,425.2-190.37,425.2-425.2h0C850.4,190.87,660.03.5,425.2.5h0Z"/>
</svg>