<?xml version="1.0" encoding="UTF-8"?>
<svg id="Layer_62" data-name="Layer 62" xmlns="http://www.w3.org/2000/svg" viewBox="0 0 850.91 850.91">
  <defs>
    <style>
      .cls-1 {
        fill: #231f20;
        stroke-width: 0px;
      }
    </style>
  </defs>
  <path class="cls-1" d="M725.88,125.04C648.93,48.09,542.64.5,425.22.5,190.39.5.02,190.87.02,425.7c0,117.42,47.59,223.71,124.54,300.66,76.94,76.94,183.24,124.53,300.66,124.53s223.71-47.59,300.66-124.53c76.94-76.95,124.53-183.24,124.53-300.66s-47.59-223.72-124.53-300.66ZM558,740.12c-42.01,17.76-86.69,26.77-132.78,26.77s-90.78-9.01-132.79-26.77c-40.62-17.19-77.11-41.8-108.48-73.16-31.36-31.36-55.97-67.86-73.15-108.48-17.77-42.01-26.78-86.69-26.78-132.78s9.01-90.78,26.78-132.79c11.72-27.72,26.9-53.51,45.33-77.06l478.93,478.94c-23.55,18.42-49.35,33.6-77.06,45.33ZM694.31,635.54L215.37,156.61c23.55-18.43,49.34-33.61,77.06-45.33,42.01-17.77,86.69-26.78,132.79-26.78s90.77,9.01,132.78,26.78c40.62,17.18,77.12,41.79,108.48,73.15,31.36,31.37,55.97,67.86,73.16,108.48,17.76,42.01,26.77,86.69,26.77,132.79s-9.01,90.77-26.77,132.78c-11.73,27.71-26.91,53.51-45.33,77.06Z"/>
</svg>