<?xml version="1.0" encoding="UTF-8"?>
<svg id="Layer_50" data-name="Layer 50" xmlns="http://www.w3.org/2000/svg" viewBox="0 0 850.9 850.9">
  <defs>
    <style>
      .cls-1 {
        fill: #010101;
      }

      .cls-1, .cls-2 {
        stroke-width: 0px;
      }

      .cls-2 {
        fill: #231f20;
      }
    </style>
  </defs>
  <path class="cls-2" d="M637.11,365.2l-163.58,163.58c-26.69,26.69-69.97,26.69-96.66,0l-163.58-163.58c-12.95-12.95-12.95-33.95,0-46.9l12.35-12.35c12.95-12.95,33.95-12.95,46.9,0l110.77,110.77V33.66c0-18.31,14.84-33.16,33.16-33.16h17.47c18.31,0,33.16,14.85,33.16,33.16v383.05s110.77-110.76,110.77-110.76c12.95-12.95,33.95-12.95,46.9,0l12.35,12.35c12.95,12.95,12.95,33.95,0,46.9Z"/>
  <path class="cls-1" d="M716.75,532.63v194.57c0,22.07-17.9,39.97-39.97,39.97H173.62c-22.08,0-39.98-17.9-39.98-39.98v-194.56c0-18.16-14.72-32.88-32.88-32.88h-17.87c-18.16,0-32.88,14.72-32.88,32.88v225.57c0,51.19,41.5,92.69,92.69,92.69h565c51.19,0,92.68-41.49,92.68-92.68v-225.58c0-18.16-14.72-32.88-32.88-32.88h-17.87c-18.16,0-32.88,14.72-32.88,32.88Z"/>
</svg>