<?xml version="1.0" encoding="UTF-8"?>
<svg id="Layer_133" data-name="Layer 133" xmlns="http://www.w3.org/2000/svg" viewBox="0 0 850.91 850.91">
  <defs>
    <style>
      .cls-1 {
        fill: #231f20;
      }
    </style>
  </defs>
  <path class="cls-1" d="M506.96,95.03c7.38,1.82,14.18,5.58,19.66,10.85l214.23,206.06c11.13,10.71,15.75,26.68,12.04,41.67l-71.34,288.55c-3.71,15-15.23,26.98-30.07,31.26l-285.56,82.5c-7.3,2.11-15.07,2.26-22.45.44s-14.18-5.58-19.66-10.85l-214.23-206.06c-11.13-10.71-15.75-26.68-12.04-41.67l71.34-288.55c3.71-15,15.23-26.98,30.07-31.26l285.56-82.5c7.31-2.11,15.07-2.26,22.45-.44h0ZM527.52,11.87c-21.63-5.35-44.64-5.1-66.78,1.3L175.18,95.67c-44.29,12.8-78.39,48.25-89.46,93L14.38,477.22c-11.06,44.75,2.59,92.01,35.81,123.97l214.23,206.06c16.61,15.98,36.86,26.92,58.49,32.27,21.63,5.35,44.64,5.1,66.78-1.3l285.56-82.5c44.29-12.8,78.39-48.25,89.46-93l71.34-288.55c11.06-44.75-2.59-92.01-35.81-123.97l-214.23-206.06c-16.61-15.98-36.86-26.92-58.49-32.27h0Z"/>
  <path class="cls-1" d="M453.68,310.56c30.75,7.6,56.7,26.73,73.07,53.85,16.37,27.12,21.2,59,13.59,89.75-7.6,30.75-26.73,56.7-53.85,73.07-27.12,16.37-59,21.2-89.75,13.59-30.75-7.6-56.7-26.73-73.07-53.85-16.37-27.12-21.2-59-13.59-89.75s26.73-56.7,53.85-73.07c27.12-16.37,59-21.2,89.75-13.59h0ZM474.24,227.41c-50.75-12.55-106.28-5.73-154.57,23.41-96.58,58.29-127.62,183.84-69.33,280.43,29.15,48.29,75.11,80.2,125.85,92.74,50.75,12.55,106.28,5.73,154.57-23.41,96.58-58.29,127.62-183.84,69.33-280.43-29.15-48.29-75.11-80.2-125.85-92.74h0Z"/>
</svg>