<?xml version="1.0" encoding="UTF-8"?>
<svg id="Layer_23" data-name="Layer 23" xmlns="http://www.w3.org/2000/svg" viewBox="0 0 850.41 850.42">
  <defs>
    <style>
      .cls-1 {
        fill: #010101;
      }
    </style>
  </defs>
  <path class="cls-1" d="M757.55,91.73H92.85C41.66,91.73,.16,133.22,.16,184.41v481.61c0,51.19,41.5,92.69,92.69,92.69H757.55c51.19,0,92.68-41.5,92.68-92.69V184.41c0-51.19-41.49-92.68-92.68-92.68Zm8.97,543.29c0,22.08-17.9,39.97-39.98,39.97H414.83c-22.08,0-39.97-17.89-39.97-39.97v-150.37c0-22.07,17.89-39.97,39.97-39.97h311.71c22.08,0,39.98,17.9,39.98,39.97v150.37Z"/>
</svg>