<?xml version="1.0" encoding="UTF-8"?>
<svg xmlns="http://www.w3.org/2000/svg" viewBox="0 0 850.91 850.91"><path d="M850.41,414.23v22.92c0,16.81-13.63,30.43-30.43,30.43h-342.82c-5.55,0-10.04,4.5-10.04,10.04v342.82c0,16.81-13.63,30.43-30.43,30.43h-22.93c-16.81,0-30.43-13.63-30.43-30.43v-342.82c0-5.55-4.5-10.04-10.04-10.04H30.45C13.64,467.59.02,453.96.02,437.16v-22.92c0-16.81,13.63-30.43,30.43-30.43h342.82c5.55,0,10.04-4.5,10.04-10.04V30.93c0-16.81,13.63-30.43,30.43-30.43h22.93c16.81,0,30.43,13.63,30.43,30.43v342.82c0,5.55,4.5,10.04,10.04,10.04h342.82c16.81,0,30.43,13.63,30.43,30.43Z"/></svg>