<?xml version="1.0" encoding="UTF-8"?>
<svg xmlns="http://www.w3.org/2000/svg" viewBox="0 0 850.91 850.91">
  <path d="M200.71,383.7H42.7c-21.47,0-37.67-19.6-33.51-40.66,10.98-55.62,32.84-107.32,63.27-152.81,12-17.94,37.34-20.55,52.6-5.29l111.71,111.71c10.35,10.35,12.94,26.14,6.46,39.26-3.93,7.95-7.35,16.2-10.23,24.69-4.68,13.82-17.7,23.09-32.29,23.09Z"/>
  <path d="M236.77,554.73l-111.71,111.71c-15.26,15.26-40.6,12.65-52.6-5.28-30.43-45.49-52.29-97.19-63.27-152.8-4.16-21.06,12.04-40.66,33.51-40.66h158.01c14.59,0,27.61,9.27,32.29,23.09,2.88,8.49,6.3,16.74,10.23,24.68,6.48,13.12,3.89,28.91-6.46,39.26Z"/>
  <path d="M189.75,72.95c45.49-30.43,97.19-52.29,152.81-63.27,21.06-4.16,40.66,12.04,40.66,33.51v158.01c0,14.59-9.27,27.61-23.09,32.29-8.5,2.88-16.74,6.3-24.69,10.23-13.12,6.48-28.91,3.89-39.26-6.46l-111.71-111.71c-15.26-15.26-12.65-40.6,5.29-52.6Z"/>
  <path d="M335.43,607.67c7.95,3.93,16.2,7.35,24.69,10.23,13.82,4.68,23.09,17.7,23.09,32.29v158.02c0,21.47-19.6,37.67-40.66,33.51-55.62-10.99-107.32-32.85-152.81-63.27-17.94-12-20.55-37.34-5.29-52.6l111.72-111.72c10.35-10.35,26.14-12.94,39.26-6.46Z"/>
  <path d="M514.99,243.71c-7.95-3.93-16.19-7.35-24.68-10.23-13.82-4.68-23.09-17.7-23.09-32.29V43.18c0-21.47,19.6-37.67,40.66-33.51,55.61,10.98,107.31,32.84,152.8,63.27,17.94,12,20.54,37.34,5.28,52.6l-111.71,111.71c-10.35,10.35-26.14,12.94-39.26,6.46Z"/>
  <path d="M554.25,614.13l111.72,111.72c15.26,15.26,12.65,40.6-5.29,52.6-45.49,30.42-97.19,52.29-152.8,63.27-21.06,4.16-40.66-12.04-40.66-33.51v-158.02c0-14.59,9.27-27.61,23.09-32.29,8.49-2.88,16.74-6.3,24.68-10.23,13.12-6.48,28.91-3.89,39.26,6.46Z"/>
  <path d="M649.71,467.7h158.02c21.47,0,37.67,19.6,33.51,40.66-10.99,55.61-32.85,107.32-63.27,152.8-12,17.94-37.34,20.55-52.6,5.29l-111.72-111.72c-10.35-10.35-12.94-26.14-6.46-39.26,3.93-7.95,7.35-16.19,10.23-24.68,4.68-13.82,17.7-23.09,32.29-23.09Z"/>
  <path d="M613.65,296.66l111.72-111.72c15.26-15.26,40.6-12.65,52.6,5.29,30.43,45.49,52.29,97.2,63.27,152.81,4.16,21.06-12.04,40.66-33.51,40.66h-158.02c-14.59,0-27.61-9.27-32.29-23.09-2.88-8.5-6.3-16.74-10.23-24.69-6.48-13.12-3.89-28.91,6.46-39.26Z"/>
</svg>