<?xml version="1.0" encoding="UTF-8"?>
<svg id="Layer_15" data-name="Layer 15" xmlns="http://www.w3.org/2000/svg" viewBox="0 0 850.41 850.41">
  <defs>
    <style>
      .cls-1 {
        fill: #231f20;
      }
    </style>
  </defs>
  <path class="cls-1" d="M561.46,613.34h0c0-152.59-123.7-276.29-276.29-276.29h0c152.59,0,276.29-123.7,276.29-276.29h0c0,152.59,123.7,276.29,276.29,276.29h0c-152.59,0-276.29,123.7-276.29,276.29Z"/>
  <path class="cls-1" d="M279.54,810.86h0c0-100.61-81.56-182.17-182.17-182.17h0c100.61,0,182.17-81.56,182.17-182.17h0c0,100.61,81.56,182.17,182.17,182.17h0c-100.61,0-182.17,81.56-182.17,182.17Z"/>
  <path class="cls-1" d="M203.03,303.94h0c0-72.81-59.03-131.84-131.84-131.84h0c72.81,0,131.84-59.03,131.84-131.84h0c0,72.81,59.03,131.84,131.84,131.84h0c-72.81,0-131.84,59.03-131.84,131.84Z"/>
</svg>