<?xml version="1.0" encoding="UTF-8"?>
<svg id="Layer_97" data-name="Layer 97" xmlns="http://www.w3.org/2000/svg" viewBox="0 0 850.91 850.91">
  <defs>
    <style>
      .cls-1 {
        fill: #010101;
      }

      .cls-1, .cls-2 {
        stroke-width: 0px;
      }

      .cls-2 {
        fill: #231f20;
      }
    </style>
  </defs>
  <path class="cls-1" d="M682.41,414.41v312.79c0,22.08-17.9,39.98-39.98,39.98H151.8c-22.07,0-39.97-17.9-39.97-39.97V124.35c0-22.08,17.9-39.98,39.98-39.98h271.07c12.7,0,24.58-6.55,31.1-17.46,7.85-13.13,17.04-25.37,27.37-36.54s2.41-29.63-12.99-29.63H120.8C69.61.74,28.11,42.24,28.11,93.43v664.7c0,51.19,41.49,92.68,92.68,92.68h552.65c51.19,0,92.68-41.49,92.68-92.68v-372.73c0-9.84-10.5-16.02-19.17-11.37-15.02,8.05-31.08,14.41-47.92,18.82-9.8,2.57-16.62,11.43-16.62,21.56Z"/>
  <g>
    <path class="cls-1" d="M308.52,293.82c0,10.38.95,20.62,2.83,30.67,1.09,5.8-3.39,11.14-9.29,11.14h-66.14c-11.55,0-22.01-4.68-29.57-12.25-7.5-7.49-12.16-17.82-12.25-29.24-.17-23.18,19.38-42.14,42.56-42.14h65.4c5.9,0,10.38,5.35,9.29,11.14-1.89,10.05-2.83,20.29-2.83,30.68Z"/>
    <path class="cls-1" d="M477.85,335.49c-1.1.09-2.21.14-3.33.15-22.09.1-40.72-17.38-41.94-39.44-.42-7.54,1.16-14.67,4.26-20.92,2.51-5.07,2.75-10.95.72-16.23-9.49-24.58-14.69-51.3-14.69-79.23,0-.28,0-.55.01-.83-14.01,6.27-26.62,14.96-37.52,25.86-11.53,11.53-20.59,24.98-26.93,39.97-2.92,6.91-5.2,13.99-6.84,21.23-2.05,9.06-3.08,18.34-3.08,27.77s1.03,18.7,3.08,27.76c1.64,7.24,3.92,14.33,6.84,21.24,6.34,14.99,15.4,28.43,26.93,39.96s24.97,20.59,39.96,26.93c15.57,6.58,32.05,9.92,49,9.92s33.44-3.34,49-9.92c14.26-6.03,27.12-14.52,38.26-25.26-25.61-10.2-48.85-25.07-68.66-43.56-4.07-3.8-9.52-5.86-15.07-5.4Z"/>
  </g>
  <g>
    <path class="cls-1" d="M485.73,557.73c0-10.38-.95-20.62-2.83-30.67-1.09-5.8,3.39-11.14,9.29-11.14h66.14c11.55,0,22.01,4.68,29.57,12.25,7.5,7.49,12.16,17.82,12.25,29.24.17,23.18-19.38,42.14-42.56,42.14h-65.4c-5.9,0-10.38-5.35-9.29-11.14,1.89-10.05,2.83-20.29,2.83-30.68Z"/>
    <path class="cls-1" d="M442.64,529.97c-1.64-7.24-3.92-14.33-6.84-21.24-6.34-14.99-15.4-28.43-26.93-39.96s-24.97-20.59-39.96-26.93c-15.57-6.58-32.05-9.92-49-9.92s-33.44,3.34-49,9.92c-14.99,6.34-28.44,15.4-39.97,26.93-11.53,11.53-20.59,24.97-26.93,39.96-6.58,15.57-9.92,32.06-9.92,49s3.34,33.44,9.92,49c6.34,14.99,15.4,28.44,26.93,39.97s24.98,20.59,39.97,26.93c15.56,6.58,32.05,9.92,49,9.92s33.43-3.34,49-9.92c14.99-6.34,28.43-15.4,39.96-26.93,11.53-11.53,20.59-24.98,26.93-39.97,2.92-6.91,5.2-13.99,6.84-21.23,2.05-9.06,3.08-18.34,3.08-27.77s-1.03-18.7-3.08-27.76ZM319.91,599.55c-23.1,0-41.82-18.72-41.82-41.82s18.72-41.81,41.82-41.81,41.81,18.72,41.81,41.81-18.72,41.82-41.81,41.82Z"/>
  </g>
  <path class="cls-2" d="M793.83,137.93h-32.03c-.84-2.4-1.76-4.77-2.76-7.13-.76-1.79-1.55-3.56-2.39-5.3l22.65-22.65c11.13-11.12,11.13-29.16,0-40.29l-18.95-18.95c-11.13-11.13-29.17-11.13-40.3,0l-22.64,22.64c-1.74-.84-3.51-1.63-5.3-2.39-2.36-1-4.74-1.92-7.14-2.76V29.08c0-15.74-12.76-28.5-28.49-28.5h-26.8c-15.74,0-28.5,12.76-28.5,28.5v32.02c-2.4.84-4.77,1.76-7.13,2.76-1.79.76-3.56,1.55-5.31,2.39l-22.64-22.64c-11.12-11.13-29.16-11.13-40.29,0l-18.95,18.95c-11.13,11.13-11.13,29.17,0,40.29l22.64,22.64c-.84,1.75-1.63,3.52-2.39,5.31-1,2.36-1.92,4.73-2.76,7.13h-32.02c-15.74,0-28.5,12.76-28.5,28.5v26.8c0,15.73,12.76,28.49,28.5,28.49h32.02c.84,2.4,1.76,4.78,2.76,7.14.76,1.79,1.55,3.56,2.39,5.3l-22.64,22.64c-11.13,11.13-11.13,29.17,0,40.3l18.95,18.95c11.13,11.13,29.17,11.13,40.29,0l22.65-22.65c1.74.84,3.51,1.63,5.3,2.39,2.36,1,4.73,1.92,7.13,2.76v32.03c0,15.73,12.76,28.49,28.5,28.49h26.8c15.73,0,28.49-12.76,28.49-28.49v-32.03c2.4-.84,4.78-1.76,7.14-2.76,1.79-.76,3.56-1.55,5.3-2.38l22.64,22.64c11.13,11.13,29.17,11.13,40.3,0l18.95-18.95c11.13-11.13,11.13-29.17,0-40.3l-22.64-22.64c.83-1.74,1.62-3.51,2.38-5.3,1-2.36,1.92-4.74,2.76-7.14h32.03c15.73,0,28.49-12.76,28.49-28.49v-26.8c0-15.74-12.76-28.5-28.49-28.5ZM672.7,209.45c-7.58,7.58-18.06,12.27-29.62,12.27s-21.88-4.62-29.45-12.1l-.36-.35c-7.47-7.56-12.09-17.97-12.09-29.44s4.4-21.38,11.57-28.91l.35-.36.71-.71.36-.35c7.53-7.17,17.7-11.57,28.91-11.57s21.88,4.62,29.44,12.09l.35.36c7.48,7.57,12.1,17.97,12.1,29.45s-4.69,22.04-12.27,29.62Z"/>
</svg>