<?xml version="1.0" encoding="UTF-8"?>
<svg id="Layer_13" data-name="Layer 13" xmlns="http://www.w3.org/2000/svg" viewBox="0 0 850.41 850.41">
  <defs>
    <style>
      .cls-1 {
        fill: #231f20;
      }
    </style>
  </defs>
  <rect class="cls-1" x="395.2" y="570.48" width="60" height="60" rx="30" ry="30"/>
  <path class="cls-1" d="M359.64,135.82c13.68-23.7,38.19-37.85,65.56-37.85s51.87,14.15,65.56,37.85l290.47,503.1c13.68,23.7,13.68,52,0,75.7-13.68,23.7-38.19,37.85-65.56,37.85H134.73c-27.37,0-51.87-14.15-65.56-37.85-13.68-23.7-13.68-52,0-75.7L359.64,135.82m51.96,30L121.14,668.92c-4.09,7.08-1.36,13.34,0,15.7,1.36,2.36,5.41,7.85,13.59,7.85H715.66c8.18,0,12.23-5.49,13.59-7.85,1.36-2.36,4.09-8.61,0-15.7L438.79,165.82c-4.09-7.08-10.87-7.85-13.6-7.85s-9.5,.77-13.59,7.85h0Z"/>
  <path class="cls-1" d="M425.2,521.9c-16.57,0-30-13.43-30-30v-179.15c0-16.57,13.43-30,30-30s30,13.43,30,30v179.15c0,16.57-13.43,30-30,30Z"/>
</svg>