<?xml version="1.0" encoding="UTF-8"?>
<svg xmlns="http://www.w3.org/2000/svg" viewBox="0 0 850.39 850.39">
  <path fill="var(--bar)" d="M799.6,0H50.8C22.74,0,0,22.74,0,50.8V799.6c0,28.05,22.74,50.79,50.8,50.79H799.6c28.05,0,50.79-22.74,50.79-50.79V50.8C850.39,22.74,827.65,0,799.6,0ZM403.6,766H104.39c-11.04,0-20-8.95-20-20v-70.6H239.4c4.97,0,9-4.03,9-9v-25.2c0-4.97-4.03-9-9-9H84.39V218.2H239.4c4.97,0,9-4.03,9-9v-25.2c0-4.97-4.03-9-9-9H84.39V104.39c0-11.04,8.96-20,20-20H403.6V766ZM766,175h-155.01c-4.97,0-9,4.03-9,9v25.2c0,4.97,4.03,9,9,9h155.01v414h-155.01c-4.97,0-9,4.03-9,9v25.2c0,4.97,4.03,9,9,9h155.01v70.6c0,11.05-8.95,20-20,20H446.8V84.39h299.2c11.05,0,20,8.96,20,20v70.61Z"/>
</svg>