<?xml version="1.0" encoding="UTF-8"?>
<svg xmlns="http://www.w3.org/2000/svg" viewBox="0 0 850.39 850.39">
    <path d="M764.11,0H88.77C40.43,0,1.24,39.19,1.24,87.52V762.87c0,48.34,39.19,87.52,87.53,87.52H764.11c48.34,0,87.53-39.18,87.53-87.52V87.52c0-48.33-39.19-87.52-87.53-87.52ZM129.07,644.94c-8.31-8.32-12.47-19.22-12.47-30.12s4.16-21.8,12.47-30.12l174.12-174.11L128.02,235.42c-16.64-16.64-16.64-43.61,0-60.25,8.32-8.31,19.22-12.47,30.12-12.47s21.81,4.16,30.13,12.47l204.16,204.16c.88,.89,1.72,1.8,2.5,2.74,.02,.02,.04,.04,.06,.06,7.31,8.09,10.96,18.31,10.96,28.53,0,10.9-4.15,21.8-12.47,30.12l-204.16,204.16c-16.64,16.64-43.61,16.64-60.25,0Zm595.78,.46c-7.71,7.71-18.35,12.48-30.12,12.48H406.47c-23.53,0-42.6-19.07-42.6-42.6,0-11.76,4.77-22.42,12.48-30.12,7.71-7.71,18.35-12.48,30.12-12.48h288.26c23.53,0,42.6,19.07,42.6,42.6,0,11.76-4.77,22.42-12.48,30.12Z"></path>
</svg>