<?xml version="1.0" encoding="UTF-8"?>
<svg xmlns="http://www.w3.org/2000/svg" viewBox="0 0 1032.47 1032.53">
                        <path d="M952.08,620.24l-57.1-32.97c-25.19-14.54-40.47-41.49-40.43-70.58,0-.16,0-.31,0-.47s0-.31,0-.47c-.04-29.09,15.24-56.04,40.43-70.58l57.1-32.97c41.44-23.93,55.64-76.92,31.72-118.36l-41.28-71.49c-23.92-41.44-76.92-55.64-118.36-31.72l-57.05,32.94c-25.23,14.57-56.25,14.28-81.44-.34-.28-.16-.56-.33-.85-.49-25.16-14.5-40.81-41.2-40.81-70.24V86.64c0-47.85-38.79-86.64-86.65-86.64h-82.54c-47.86,0-86.65,38.79-86.65,86.64v65.87c0,29.04-15.65,55.74-40.81,70.24-.28,.16-.57,.33-.85,.49-25.2,14.62-56.22,14.9-81.44,.34l-57.05-32.94c-41.44-23.92-94.44-9.72-118.37,31.72l-41.27,71.49c-23.93,41.44-9.73,94.43,31.72,118.36l57.1,32.97c25.19,14.54,40.47,41.49,40.43,70.58,0,.16,0,.31,0,.47s0,.31,0,.47c.04,29.09-15.24,56.04-40.43,70.58l-57.1,32.97c-41.45,23.93-55.65,76.92-31.72,118.36l41.27,71.49c23.93,41.44,76.93,55.64,118.37,31.72l57.05-32.94c25.23-14.57,56.25-14.28,81.44,.34,.28,.16,.56,.33,.85,.49,25.16,14.5,40.81,41.2,40.81,70.24v65.86c0,47.86,38.79,86.65,86.65,86.65h82.54c47.86,0,86.65-38.79,86.65-86.65v-65.86c0-29.04,15.65-55.74,40.81-70.24,.28-.16,.57-.33,.85-.49,25.2-14.62,56.22-14.9,81.44-.34l57.05,32.94c41.44,23.92,94.44,9.72,118.36-31.72l41.28-71.49c23.92-41.44,9.72-94.43-31.72-118.36Zm-401.72,63.49c-11.07,2.25-22.53,3.43-34.27,3.43s-23.2-1.18-34.27-3.43c-36.94-7.52-69.55-26.96-93.65-54.11-15.14-17.08-26.91-37.2-34.28-59.33-5.66-16.99-8.73-35.17-8.73-54.06s3.07-37.07,8.73-54.06c7.37-22.13,19.14-42.25,34.28-59.33,24.1-27.15,56.71-46.59,93.65-54.11,11.07-2.25,22.53-3.43,34.27-3.43s23.2,1.18,34.27,3.43c36.94,7.52,69.55,26.96,93.65,54.11,15.14,17.08,26.91,37.2,34.28,59.33,5.66,16.99,8.73,35.17,8.73,54.06s-3.07,37.07-8.73,54.06c-7.37,22.13-19.14,42.25-34.28,59.33-24.1,27.15-56.71,46.59-93.65,54.11Z"/>
                    </svg>