<?xml version="1.0" encoding="UTF-8"?>
<svg id="Layer_1" data-name="Layer 1" xmlns="http://www.w3.org/2000/svg" viewBox="0 0 556.04 114.77">
  <path d="M372.77,41.18c-2.18-5.12-5.19-9.61-9-13.49-3.83-3.87-8.27-6.91-13.35-9.14-5.07-2.22-10.5-3.34-16.28-3.34s-11.34,1.13-16.41,3.41c-5.07,2.26-9.5,5.36-13.29,9.27-3.79,3.92-6.72,8.43-8.8,13.54-2.1,5.13-3.14,10.54-3.14,16.22s1.05,11.21,3.21,16.28c2.13,5.07,5.11,9.53,8.93,13.35,3.83,3.83,8.25,6.83,13.27,9,5.03,2.18,10.39,3.27,16.09,3.27s11.34-1.09,16.41-3.27c5.08-2.17,9.53-5.17,13.35-9,3.81-3.83,6.82-8.29,9-13.35,2.18-5.07,3.27-10.54,3.27-16.41s-1.09-11.22-3.27-16.34Zm0,0c-2.18-5.12-5.19-9.61-9-13.49-3.83-3.87-8.27-6.91-13.35-9.14-5.07-2.22-10.5-3.34-16.28-3.34s-11.34,1.13-16.41,3.41c-5.07,2.26-9.5,5.36-13.29,9.27-3.79,3.92-6.72,8.43-8.8,13.54-2.1,5.13-3.14,10.54-3.14,16.22s1.05,11.21,3.21,16.28c2.13,5.07,5.11,9.53,8.93,13.35,3.83,3.83,8.25,6.83,13.27,9,5.03,2.18,10.39,3.27,16.09,3.27s11.34-1.09,16.41-3.27c5.08-2.17,9.53-5.17,13.35-9,3.81-3.83,6.82-8.29,9-13.35,2.18-5.07,3.27-10.54,3.27-16.41s-1.09-11.22-3.27-16.34ZM0,0V114.77H556.04V0H0ZM411.48,15.89h16.17c3.41,0,6.51,.57,9.3,1.68,2.78,1.13,5.16,2.65,7.14,4.58,1.97,1.94,3.48,4.16,4.51,6.67,1.02,2.52,1.55,5.21,1.55,8.08,0,2.43-.39,4.92-1.15,7.48-.77,2.56-2.05,4.92-3.84,7.07-1.81,2.16-4.27,3.91-7.41,5.25-3.15,1.35-7.1,2.02-11.86,2.02h-14.42V15.89Zm-342.91,0H16.16V53.88H63.31v6.33H16.16v38.67h52.41v6.33H9.55V9.55h59.02v6.33Zm98.36-6.33l.13,81.68L95.14,9.55h71.79ZM99.42,105.22l-.13-80.75,71.67,80.75H99.42Zm163.17-3.69c-2.69,1.15-5.67,2.05-8.89,2.71-3.23,.66-6.74,.98-10.51,.98-7.28,0-13.89-1.25-19.81-3.76-5.93-2.51-11.01-5.93-15.23-10.28-4.23-4.34-7.49-9.35-9.77-15.01-2.29-5.67-3.45-11.71-3.45-18.12,0-6.86,1.23-13.22,3.65-19.11,2.41-5.87,5.83-11.02,10.24-15.41,4.39-4.39,9.51-7.81,15.36-10.28,5.83-2.45,12.17-3.69,19-3.69,5.03,0,9.74,.66,14.15,1.98,4.39,1.31,8.39,3.03,11.99,5.13l-2.83,5.93c-3.15-1.93-6.7-3.56-10.64-4.88-3.96-1.31-8.14-1.97-12.53-1.97-5.66,0-11.01,1.08-16.05,3.22-5.03,2.17-9.45,5.15-13.26,8.96s-6.8,8.29-8.97,13.38c-2.14,5.09-3.22,10.59-3.22,16.46s.96,10.94,2.88,15.95c1.94,5,4.72,9.4,8.37,13.18,3.64,3.77,8.02,6.74,13.14,8.89,5.11,2.16,10.82,3.22,17.11,3.22,4.66,0,8.96-.63,12.87-1.9,3.91-1.27,7.38-2.88,10.44-4.81l3.09,5.66c-2.06,1.24-4.43,2.43-7.13,3.56Zm115.35-25.37c-2.48,5.75-5.89,10.81-10.21,15.13-4.35,4.35-9.39,7.76-15.14,10.23-5.75,2.48-11.95,3.71-18.61,3.71s-12.56-1.23-18.26-3.71c-5.7-2.47-10.73-5.87-15.05-10.23-4.34-4.33-7.72-9.38-10.15-15.13-2.44-5.75-3.62-11.9-3.62-18.47s1.17-12.57,3.56-18.38c2.36-5.81,5.69-10.91,9.98-15.37,4.28-4.43,9.31-7.95,15.06-10.52,5.75-2.57,11.94-3.85,18.62-3.85s12.71,1.27,18.46,3.79,10.79,5.98,15.14,10.36c4.33,4.39,7.73,9.5,10.21,15.29,2.47,5.81,3.71,11.99,3.71,18.54s-1.24,12.87-3.71,18.62Zm33.54,29.06v-40.15h14.82c2.59,0,4.99-.18,7.19-.51l25.01,40.66h-47.02Zm54.7,0l-25.9-42.47c.09-.03,.2-.07,.3-.11,3.85-1.62,7.01-3.77,9.43-6.47s4.18-5.73,5.25-9.09c1.08-3.37,1.62-6.84,1.62-10.44,0-4.76-.9-8.84-2.69-12.26-1.81-3.41-4.16-6.21-7.07-8.42-2.92-2.2-6.16-3.81-9.7-4.85-3.56-1.02-7.13-1.55-10.71-1.55h39.48V105.22ZM546.48,15.89h-52.41V53.88h47.16v6.33h-47.16v38.67h52.41v6.33h-59.02V9.55h59.02v6.33Zm-182.72,11.8c-3.83-3.87-8.27-6.91-13.35-9.14-5.07-2.22-10.5-3.34-16.28-3.34s-11.34,1.13-16.41,3.41c-5.07,2.26-9.5,5.36-13.29,9.27-3.79,3.92-6.72,8.43-8.8,13.54-2.1,5.13-3.14,10.54-3.14,16.22s1.05,11.21,3.21,16.28c2.13,5.07,5.11,9.53,8.93,13.35,3.83,3.83,8.25,6.83,13.27,9,5.03,2.18,10.39,3.27,16.09,3.27s11.34-1.09,16.41-3.27c5.08-2.17,9.53-5.17,13.35-9,3.81-3.83,6.82-8.29,9-13.35,2.18-5.07,3.27-10.54,3.27-16.41s-1.09-11.22-3.27-16.34c-2.18-5.12-5.19-9.61-9-13.49Zm9,13.49c-2.18-5.12-5.19-9.61-9-13.49-3.83-3.87-8.27-6.91-13.35-9.14-5.07-2.22-10.5-3.34-16.28-3.34s-11.34,1.13-16.41,3.41c-5.07,2.26-9.5,5.36-13.29,9.27-3.79,3.92-6.72,8.43-8.8,13.54-2.1,5.13-3.14,10.54-3.14,16.22s1.05,11.21,3.21,16.28c2.13,5.07,5.11,9.53,8.93,13.35,3.83,3.83,8.25,6.83,13.27,9,5.03,2.18,10.39,3.27,16.09,3.27s11.34-1.09,16.41-3.27c5.08-2.17,9.53-5.17,13.35-9,3.81-3.83,6.82-8.29,9-13.35,2.18-5.07,3.27-10.54,3.27-16.41s-1.09-11.22-3.27-16.34Zm0,0c-2.18-5.12-5.19-9.61-9-13.49-3.83-3.87-8.27-6.91-13.35-9.14-5.07-2.22-10.5-3.34-16.28-3.34s-11.34,1.13-16.41,3.41c-5.07,2.26-9.5,5.36-13.29,9.27-3.79,3.92-6.72,8.43-8.8,13.54-2.1,5.13-3.14,10.54-3.14,16.22s1.05,11.21,3.21,16.28c2.13,5.07,5.11,9.53,8.93,13.35,3.83,3.83,8.25,6.83,13.27,9,5.03,2.18,10.39,3.27,16.09,3.27s11.34-1.09,16.41-3.27c5.08-2.17,9.53-5.17,13.35-9,3.81-3.83,6.82-8.29,9-13.35,2.18-5.07,3.27-10.54,3.27-16.41s-1.09-11.22-3.27-16.34Z"/>
</svg>