<?xml version="1.0" encoding="UTF-8"?>
<svg id="Layer_66" data-name="Layer 66" xmlns="http://www.w3.org/2000/svg" viewBox="0 0 850.91 850.91">
  <defs>
    <style>
      .cls-1 {
        fill: #010101;
        stroke-width: 0px;
      }
    </style>
  </defs>
  <path class="cls-1" d="M592.61,547.48v179.72c0,22.07-17.9,39.97-39.97,39.97H123.62c-22.07,0-39.97-17.9-39.97-39.97v-428.83c0-22.08,17.9-39.98,39.98-39.98h179.8c16.73,0,30.3-13.57,30.3-30.3v-23.11c0-16.73-13.57-30.3-30.3-30.3H92.71C41.52,174.68.02,216.18.02,267.37v490.83c0,51.19,41.5,92.69,92.69,92.69h490.85c51.19,0,92.68-41.49,92.68-92.68v-210.73c0-16.73-13.57-30.3-30.3-30.3h-23.03c-16.73,0-30.3,13.57-30.3,30.3Z"/>
  <path class="cls-1" d="M850.41,205.33v23.03c0,16.73-13.57,30.3-30.3,30.3h-144.23v144.22c0,16.73-13.57,30.3-30.3,30.3h-23.03c-16.73,0-30.3-13.57-30.3-30.3v-144.22h-144.22c-16.73,0-30.3-13.57-30.3-30.3v-23.03c0-16.73,13.57-30.3,30.3-30.3h144.22V30.8c0-16.73,13.57-30.3,30.3-30.3h23.03c16.73,0,30.3,13.57,30.3,30.3v144.23h144.23c16.73,0,30.3,13.57,30.3,30.3Z"/>
</svg>