<?xml version="1.0" encoding="UTF-8"?>
<svg id="Layer_98" data-name="Layer 98" xmlns="http://www.w3.org/2000/svg" viewBox="0 0 850.91 850.91">
  <defs>
    <style>
      .cls-1 {
        fill: #231f20;
        stroke-width: 0px;
      }
    </style>
  </defs>
  <path class="cls-1" d="M623.45,122.03c37.86,0,73.55,14.66,100.48,41.27,26.91,26.59,41.99,62.05,42.47,99.84,0,.06,0,.11,0,.17v.22c0,.63,0,1.26.01,1.89v1.07c0,46.93-7.22,93.43-21.47,138.22-13.9,43.71-34.47,85.8-61.15,125.12-53.62,79.03-130.64,145.1-222.73,191.07-11.08,5.53-23.48,8.46-35.84,8.46s-24.76-2.92-35.84-8.45c-92.1-45.97-169.12-112.04-222.74-191.07-26.68-39.32-47.25-81.42-61.15-125.12-14.25-44.79-21.47-91.29-21.47-138.22v-1.07c0-.63.01-1.26,0-1.89v-.22c0-.06,0-.11,0-.17.48-37.79,15.56-73.24,42.47-99.83,26.93-26.61,62.62-41.27,100.48-41.27,25.15,0,49.84,6.59,71.41,19.07,21.03,12.16,38.76,29.6,51.28,50.44,15.84,26.36,44.79,42.74,75.53,42.74s59.7-16.38,75.54-42.75c12.52-20.83,30.25-38.27,51.28-50.44,21.57-12.47,46.26-19.07,71.41-19.07M623.45,38.03c-82.67,0-155.01,44.2-194.7,110.24-.8,1.34-2.17,2.01-3.53,2.01s-2.73-.67-3.53-2.01c-39.68-66.05-112.03-110.24-194.7-110.24C102.62,38.03,1.61,138.07.04,262.07c0,.68-.02,1.36,0,2.05-.01.29-.01.59-.01.88v1.49C.02,493.3,141.69,691.16,351.86,796.06c23.1,11.53,48.23,17.3,73.36,17.3s50.26-5.77,73.36-17.3c210.16-104.9,351.83-302.76,351.83-529.57v-1.49c0-.29,0-.59-.01-.88.01-.69,0-1.37-.01-2.05-1.57-124-102.57-224.04-226.94-224.04h0Z"/>
</svg>