<?xml version="1.0" encoding="UTF-8"?>
<svg id="Layer_100" data-name="Layer 100" xmlns="http://www.w3.org/2000/svg" viewBox="0 0 850.91 850.91">
  <defs>
    <style>
      .cls-1 {
        fill: #010101;
      }

      .cls-1, .cls-2 {
        stroke-width: 0px;
      }

      .cls-2 {
        fill: #231f20;
      }
    </style>
  </defs>
  <path class="cls-2" d="M746.68,413.36c0,17.82-14.44,32.26-32.26,32.26h-251.59c-31.77,0-57.52-25.76-57.53-57.53v-26.26s0-225.14,0-225.14c0-17.82,14.44-32.26,32.26-32.26h19.27c17.82,0,32.26,14.44,32.26,32.26v147.37c0,6.83,8.26,10.25,13.09,5.42L781.72,9.95c12.6-12.6,33.03-12.6,45.62,0l13.62,13.62c12.6,12.6,12.6,33.03,0,45.62l-279.54,279.54c-4.83,4.83-1.41,13.09,5.42,13.09h147.57c17.82,0,32.26,14.44,32.26,32.26v19.27Z"/>
  <path class="cls-1" d="M592.61,547.48v179.72c0,22.07-17.9,39.97-39.97,39.97H123.62c-22.07,0-39.97-17.9-39.97-39.97v-428.83c0-22.08,17.9-39.98,39.98-39.98h179.8c16.73,0,30.3-13.57,30.3-30.3v-23.11c0-16.73-13.57-30.3-30.3-30.3H92.71C41.52,174.68.02,216.18.02,267.37v490.83c0,51.19,41.5,92.69,92.69,92.69h490.85c51.19,0,92.68-41.49,92.68-92.68v-210.73c0-16.73-13.57-30.3-30.3-30.3h-23.03c-16.73,0-30.3,13.57-30.3,30.3Z"/>
</svg>