<?xml version="1.0" encoding="UTF-8"?>
<svg id="Layer_27" data-name="Layer 27" xmlns="http://www.w3.org/2000/svg" viewBox="0 0 850.41 850.42">
  <defs>
    <style>
      .cls-1 {
        fill: #010101;
      }
    </style>
  </defs>
  <path class="cls-1" d="M83.79,726.71v-144.71c0-15.8-12.81-28.61-28.61-28.61H28.77c-15.8,0-28.61,12.81-28.61,28.61v175.72c0,51.19,41.5,92.69,92.69,92.69h175.57c15.8,0,28.61-12.81,28.61-28.61v-26.5c0-15.8-12.81-28.61-28.61-28.61H123.77c-22.08,0-39.98-17.9-39.98-39.98ZM92.85,.02C41.66,.02,.16,41.52,.16,92.71v175.73c0,15.8,12.81,28.61,28.61,28.61h26.41c15.8,0,28.61-12.81,28.61-28.61V123.71c0-22.08,17.9-39.98,39.98-39.98h144.65c15.8,0,28.61-12.81,28.61-28.61V28.63C297.03,12.83,284.22,.02,268.42,.02H92.85ZM766.6,726.72c0,22.07-17.9,39.97-39.97,39.97h-144.65c-15.8,0-28.61,12.81-28.61,28.61v26.5c0,15.8,12.81,28.61,28.61,28.61h175.57c51.19,0,92.68-41.49,92.68-92.68v-175.73c0-15.8-12.81-28.61-28.61-28.61h-26.41c-15.8,0-28.61,12.81-28.61,28.61v144.72ZM757.55,.02h-175.57c-15.8,0-28.61,12.81-28.61,28.61v26.49c0,15.8,12.81,28.61,28.61,28.61h144.64c22.08,0,39.98,17.9,39.98,39.98v144.73c0,15.8,12.81,28.61,28.61,28.61h26.41c15.8,0,28.61-12.81,28.61-28.61V92.7C850.23,41.51,808.74,.02,757.55,.02Z"/>
</svg>