<?xml version="1.0" encoding="UTF-8"?>
<svg xmlns="http://www.w3.org/2000/svg" viewBox="0 0 850.91 850.91">
  <path d="M757.73.5h-281.64c-51.19,0-92.69,41.49-92.69,92.68v166.49c0,51.19,41.5,92.69,92.69,92.69h281.64c51.19,0,92.68-41.5,92.68-92.69V93.19c0-51.19-41.49-92.68-92.68-92.68ZM766.78,228.67c0,22.08-17.9,39.97-39.98,39.97h-219.79c-22.08,0-39.98-17.89-39.98-39.97v-104.48c0-22.08,17.9-39.98,39.98-39.98h219.79c22.08,0,39.98,17.9,39.98,39.98v104.48Z"/>
  <path d="M207.09.5h-114.38C41.52.5.02,41.99.02,93.18v308.32c0,51.19,41.5,92.69,92.69,92.69h114.38c51.19,0,92.68-41.5,92.68-92.69V93.18c0-51.19-41.49-92.68-92.68-92.68ZM216.14,370.5c0,22.08-17.9,39.97-39.98,39.97h-52.53c-22.08,0-39.98-17.89-39.98-39.97V124.19c0-22.08,17.9-39.98,39.98-39.98h52.53c22.08,0,39.98,17.9,39.98,39.98v246.31Z"/>
  <path d="M757.73,436h-281.64c-51.19,0-92.69,41.49-92.69,92.68v229.53c0,51.19,41.5,92.69,92.69,92.69h281.64c51.19,0,92.68-41.5,92.68-92.69v-229.53c0-51.19-41.49-92.68-92.68-92.68ZM766.78,727.2c0,22.08-17.9,39.97-39.98,39.97h-219.79c-22.08,0-39.98-17.89-39.98-39.97v-167.52c0-22.08,17.9-39.98,39.98-39.98h219.79c22.08,0,39.98,17.9,39.98,39.98v167.52Z"/>
  <path d="M207.09,577.83h-114.38c-51.19,0-92.69,41.49-92.69,92.68v87.7c0,51.19,41.5,92.69,92.69,92.69h114.38c51.19,0,92.68-41.5,92.68-92.69v-87.7c0-51.19-41.49-92.68-92.68-92.68ZM216.14,727.2c0,22.08-17.9,39.97-39.98,39.97h-52.53c-22.08,0-39.98-17.89-39.98-39.97v-25.69c0-22.08,17.9-39.98,39.98-39.98h52.53c22.08,0,39.98,17.9,39.98,39.98v25.69Z"/>
</svg>