<?xml version="1.0" encoding="UTF-8"?>
<svg id="Layer_94" data-name="Layer 94" xmlns="http://www.w3.org/2000/svg" viewBox="0 0 850.91 850.91">
  <defs>
    <style>
      .cls-1 {
        fill: #231f20;
        stroke-width: 0px;
      }
    </style>
  </defs>
  <path class="cls-1" d="M50.69,586.37c0-17.82,14.44-32.26,32.26-32.26h130.07s26.26,0,26.26,0c31.77,0,57.52,25.76,57.53,57.53v26.26s0,130.07,0,130.07c0,17.82-14.44,32.26-32.26,32.26h-19.27c-17.82,0-32.26-14.44-32.26-32.26v-52.3c0-6.83-8.26-10.25-13.09-5.42l-131.21,131.2c-12.6,12.6-33.03,12.6-45.62,0l-13.62-13.62c-12.6-12.6-12.6-33.03,0-45.62l131.21-131.21c4.83-4.83,1.41-13.09-5.42-13.09h-52.31c-17.82,0-32.26-14.44-32.26-32.26v-19.27Z"/>
  <path class="cls-1" d="M799.75,265.03c0,17.82-14.44,32.26-32.26,32.26h-130.07s-26.26,0-26.26,0c-31.77,0-57.52-25.76-57.53-57.53v-26.26s0-130.07,0-130.07c0-17.82,14.44-32.26,32.26-32.26h19.27c17.82,0,32.26,14.44,32.26,32.26v52.3c0,6.83,8.26,10.25,13.09,5.42L781.72,9.95c12.6-12.6,33.03-12.6,45.62,0l13.62,13.62c12.6,12.6,12.6,33.03,0,45.62l-131.21,131.21c-4.83,4.83-1.41,13.09,5.42,13.09h52.31c17.82,0,32.26,14.44,32.26,32.26v19.27Z"/>
  <path class="cls-1" d="M641.02,383.8h-89.27c-4.62,0-8.74-2.8-10.54-7.06-.01-.02-.02-.05-.03-.07-6.34-15-15.41-28.46-26.94-39.99-11.54-11.54-24.99-20.61-39.99-26.95-.03-.01-.05-.02-.08-.03-4.26-1.8-7.06-5.92-7.06-10.54v-89.27c0-15.74-12.76-28.5-28.49-28.5h-26.8c-15.74,0-28.5,12.76-28.5,28.5v89.27c0,4.62-2.8,8.74-7.06,10.54-.02,0-.05.02-.07.03-15,6.34-28.46,15.41-39.99,26.95-11.54,11.53-20.61,24.99-26.95,39.99-.01.02-.02.05-.03.07-1.8,4.25-5.92,7.06-10.54,7.06h-89.27c-15.74,0-28.5,12.76-28.5,28.5v26.8c0,15.73,12.76,28.49,28.5,28.49h89.27c4.62,0,8.74,2.81,10.54,7.06.01.03.02.05.03.08,6.34,15,15.41,28.45,26.95,39.99s24.99,20.6,39.99,26.94c.02.01.05.02.07.03,4.25,1.8,7.06,5.92,7.06,10.54v89.28c0,15.73,12.76,28.49,28.49,28.49h26.81c15.73,0,28.49-12.76,28.49-28.49v-89.28c0-4.62,2.81-8.74,7.06-10.54.03-.01.05-.02.08-.03,15-6.34,28.45-15.41,39.99-26.94,11.53-11.54,20.6-24.99,26.94-39.99.01-.03.02-.05.03-.08,1.8-4.26,5.92-7.06,10.54-7.06h89.28c15.74,0,28.49-12.76,28.49-28.49v-26.8c0-15.74-12.76-28.5-28.5-28.5ZM425.22,467.59c-23.14,0-41.9-18.76-41.9-41.89s18.76-41.9,41.9-41.9,41.89,18.76,41.89,41.9-18.76,41.89-41.89,41.89Z"/>
</svg>