<?xml version="1.0" encoding="UTF-8"?>
<svg id="Layer_60" data-name="Layer 60" xmlns="http://www.w3.org/2000/svg" viewBox="0 0 850.91 850.91">
  <defs>
    <style>
      .cls-1 {
        fill: #231f20;
        stroke-width: 0px;
      }
    </style>
  </defs>
  <path class="cls-1" d="M836.01,54.99l-10.73,83.15-14.09,109.16-1.37,10.6c-2.37,18.45-19.25,31.47-37.71,29.09l-202.9-26.17c-18.46-2.38-31.48-19.26-29.09-37.71l2.09-16.29c2.39-18.45,19.27-31.47,37.72-29.1l91.41,11.8c-23.01-24.07-49.24-44.45-78.3-60.86-13.21-7.44-26.81-13.97-40.77-19.56-26.64-10.66-54.55-17.91-83.42-21.64-43.99-5.67-87.92-2.86-130.57,8.35-44.12,11.59-85,31.75-121.49,59.9-36.5,28.16-66.37,62.58-88.78,102.32-21.67,38.41-35.53,80.19-41.21,124.18-5.67,43.99-2.86,87.92,8.35,130.57,11.59,44.12,31.75,85,59.91,121.5,28.15,36.49,62.58,66.36,102.31,88.77,38.41,21.67,80.19,35.53,124.18,41.21,43.99,5.67,87.92,2.86,130.58-8.34,44.11-11.6,84.99-31.76,121.49-59.92,36.49-28.15,66.36-62.58,88.78-102.3,21.66-38.42,35.53-80.2,41.2-124.19,3.12-24.2,3.68-48.38,1.68-72.35-.73-8.71,2.94-17.21,9.86-22.55l30.37-23.43c15.63-12.06,38.37-2.63,41.03,16.94,19.77,145.19-36.16,296.6-159.87,393.04-185.16,144.35-453.83,110.69-597.6-74.92C-54.96,500.28-20.66,232.8,165.5,89.19,302.6-16.58,483.77-25.62,626.98,51.46c41.74,22.45,80.26,52.23,113.51,89.06l12.42-96.26c2.39-18.45,19.27-31.47,37.71-29.09l16.3,2.1c18.44,2.38,31.47,19.26,29.09,37.71Z"/>
</svg>