<?xml version="1.0" encoding="UTF-8"?>
<svg id="Layer_29" data-name="Layer 29" xmlns="http://www.w3.org/2000/svg" viewBox="0 0 850.41 850.42">
  <defs>
    <style>
      .cls-1 {
        fill: #010101;
      }
    </style>
  </defs>
  <path class="cls-1" d="M588.5,169.23H261.9c-51.19,0-92.69,41.49-92.69,92.68v326.61c0,51.19,41.5,92.69,92.69,92.69h326.61c51.19,0,92.68-41.5,92.68-92.69V261.91c0-51.19-41.49-92.68-92.68-92.68Zm9.05,388.29c0,22.08-17.9,39.97-39.98,39.97H292.82c-22.08,0-39.98-17.89-39.98-39.97V292.92c0-22.08,17.9-39.98,39.98-39.98h264.76c22.08,0,39.98,17.9,39.98,39.98v264.6Z"/>
  <path class="cls-1" d="M397.83,850.41h-140.81C115.07,850.41,0,735.34,0,593.4v-140.81C0,437.47,12.25,425.22,27.36,425.22h28.99c15.11,0,27.36,12.25,27.36,27.36v127.37c0,103.14,83.61,186.75,186.75,186.75h127.37c15.11,0,27.36,12.25,27.36,27.36v28.99c0,15.11-12.25,27.36-27.36,27.36Z"/>
  <path class="cls-1" d="M452.56,.02h140.81C735.32,.02,850.39,115.09,850.39,257.04v140.81c0,15.11-12.25,27.36-27.36,27.36h-28.99c-15.11,0-27.36-12.25-27.36-27.36v-127.37c0-103.14-83.61-186.75-186.75-186.75h-127.37c-15.11,0-27.36-12.25-27.36-27.36V27.38C425.2,12.27,437.45,.02,452.56,.02Z"/>
</svg>