<?xml version="1.0" encoding="UTF-8"?>
<svg id="Layer_41" data-name="Layer 41" xmlns="http://www.w3.org/2000/svg" viewBox="0 0 850.89 850.9">
  <defs>
    <style>
      .cls-1 {
        fill: #231f20;
        stroke-width: 0px;
      }
    </style>
  </defs>
  <path class="cls-1" d="M758.48.5H91.91C41.15.5,0,41.65,0,92.41v666.57c0,50.76,41.15,91.91,91.91,91.91h666.57c50.76,0,91.91-41.15,91.91-91.91V92.41c0-50.76-41.15-91.91-91.91-91.91ZM126.96,646.76h-.01c-16.56-16.57-16.56-43.43,0-59.99l166.61-166.6c4.88-4.88,4.88-12.8,0-17.68L126.95,235.88c-16.56-16.56-16.56-43.42,0-59.98h0c16.57-16.57,43.43-16.57,59.99,0l195.88,195.88c21.85,21.85,21.85,57.27,0,79.12l-195.87,195.87c-16.57,16.57-43.43,16.57-59.99,0ZM724.73,645.7c-7.68,7.67-18.29,12.42-30,12.42h-290.53c-23.43,0-42.42-18.99-42.42-42.42,0-11.72,4.75-22.32,12.42-30,7.68-7.67,18.28-12.42,30-12.42h290.53c23.43,0,42.42,18.99,42.42,42.42,0,11.72-4.75,22.32-12.42,30Z"/>
</svg>