<?xml version="1.0" encoding="UTF-8"?>
<svg id="Layer_121" data-name="Layer 121" xmlns="http://www.w3.org/2000/svg" viewBox="0 0 850.91 850.91">
  <defs>
    <style>
      .cls-1 {
        fill: #231f20;
      }
    </style>
  </defs>
  <rect class="cls-1" x="96.83" y=".5" width="656.78" height="84.11" rx="32" ry="32"/>
  <path class="cls-1" d="M274,336.49c-12.6-12.6-12.6-33.02,0-45.62l91.97-91.97,18.57-18.57c22.47-22.46,58.89-22.46,81.35,0l18.57,18.57,91.97,91.97c12.6,12.6,12.6,33.03,0,45.62l-13.63,13.63c-12.6,12.6-33.03,12.6-45.62,0l-36.98-36.98c-4.83-4.83-13.09-1.41-13.09,5.42v500.07c0,17.82-14.45,32.26-32.27,32.26h-19.27c-17.82,0-32.26-14.44-32.26-32.26v-500.08c0-6.83-8.25-10.25-13.09-5.42l-36.99,36.99c-12.6,12.6-33.03,12.6-45.62,0l-13.63-13.63Z"/>
</svg>