<?xml version="1.0" encoding="UTF-8"?>
<svg id="Layer_1" data-name="Layer 1" xmlns="http://www.w3.org/2000/svg" viewBox="0 0 984.02 1133.86">
  <path d="M920.3,0H63.73C28.53,0,0,28.53,0,63.73v1006.4c0,35.19,28.53,63.72,63.73,63.72H920.3c35.19,0,63.72-28.53,63.72-63.72V63.73c0-35.2-28.53-63.73-63.72-63.73Zm-48.8,999.07c0,12.29-9.97,22.27-22.28,22.27H134.8c-12.31,0-22.28-9.97-22.28-22.27V134.8c0-12.31,9.97-22.28,22.28-22.28H857.63c7.65,0,13.87,6.21,13.87,13.87V999.07Z"/>
  <rect x="214.3" y="245.62" width="303.71" height="105.3" rx="52.65" ry="52.65"/>
  <rect x="214.3" y="426.7" width="507.58" height="105.3" rx="52.65" ry="52.65"/>
  <rect x="214.3" y="607.78" width="363.58" height="105.3" rx="52.65" ry="52.65"/>
  <rect x="214.3" y="788.86" width="427.58" height="105.3" rx="52.65" ry="52.65"/>
</svg>