<?xml version="1.0" encoding="UTF-8"?>
<svg id="Layer_9" data-name="Layer 9" xmlns="http://www.w3.org/2000/svg" viewBox="0 0 850.41 850.41">
  <defs>
    <style>
      .cls-1 {
        fill: #010101;
      }
    </style>
  </defs>
  <path class="cls-1" d="M575.94,666.87c14.28,0,27.63-4.05,38.97-11.06v154.79c0,21.99-17.83,39.81-39.82,39.81H39.82C17.83,850.41,0,832.59,0,810.6V181.7C0,159.7,17.83,141.88,39.82,141.88h218.53l-18.61,32.24c-6.79,11.75-10.17,24.84-9.98,38.07H84.24c-7.7,0-13.93,6.23-13.93,13.92V766.19c0,7.69,6.23,13.92,13.93,13.92h446.43c7.7,0,13.93-6.24,13.93-13.92v-99.32h31.34Z"/>
  <path class="cls-1" d="M284.49,361.16h-117.67c-18.17,0-32.9-14.73-32.9-32.9,0-9.08,3.68-17.31,9.64-23.26,5.95-5.96,14.18-9.64,23.26-9.64h123.98c6.39,0,12.35,1.82,17.4,4.97,6.2,5.78,9.85,14.04,9.84,22.8v.61c.01,11.14-5.86,21.43-15.33,26.9l-18.22,10.52Z"/>
  <path class="cls-1" d="M166.82,634.83h201.39c18.17,0,32.9,14.73,32.9,32.9,0,9.09-3.68,17.31-9.64,23.26-5.95,5.96-14.17,9.64-23.26,9.64H166.82c-18.17,0-32.9-14.73-32.9-32.9,0-9.09,3.68-17.31,9.64-23.26,5.95-5.96,14.18-9.64,23.26-9.64Z"/>
  <path class="cls-1" d="M360.48,548.14c.41,2.08,.63,4.23,.63,6.44,0,9.08-3.68,17.31-9.64,23.26-5.95,5.96-14.17,9.64-23.26,9.64H166.82c-18.17,0-32.9-14.73-32.9-32.9,0-9.09,3.68-17.32,9.64-23.27,5.95-5.96,14.18-9.64,23.26-9.64h101.33c13.71,20.5,36.97,33.04,61.84,33.04,10.51,0,20.92-2.26,30.49-6.57Z"/>
  <path class="cls-1" d="M823.24,388.62h0s-35.77-20.67-35.77-20.67c-15.78-9.1-25.36-25.99-25.33-44.21v-.59c-.03-18.23,9.55-35.11,25.33-44.22l35.77-20.66c25.96-14.99,34.86-48.19,19.87-74.15l-25.86-44.79c-10.05-17.42-28.3-27.16-47.06-27.16-9.21,0-18.54,2.35-27.09,7.28l-35.75,20.64c-7.81,4.52-16.52,6.75-25.23,6.75s-17.81-2.33-25.79-6.96c-.17-.1-.35-.21-.53-.31-15.76-9.08-25.57-25.81-25.57-44.01V54.3C630.23,24.32,605.93,.02,575.94,.02h-51.71c-29.98,0-54.29,24.3-54.29,54.28v41.27c0,18.19-9.8,34.92-25.57,44.01-.17,.1-.35,.2-.53,.3-1.25,.72-2.51,1.39-3.8,2-6.96,3.3-14.48,4.97-21.99,4.97s-14.95-1.65-21.86-4.97c-1.14-.55-2.27-1.14-3.37-1.78l-35.74-20.64c-8.55-4.93-17.89-7.28-27.09-7.28-18.77,0-37.02,9.74-47.08,27.15l-1.47,2.55-24.38,42.24c-5.11,8.85-7.45,18.54-7.26,28.07,.32,18.41,10.01,36.21,27.13,46.09l35.78,20.65c15.78,9.11,25.35,26,25.33,44.22v.59c.02,18.23-9.55,35.11-25.33,44.22l-35.78,20.66c-8.58,4.95-15.29,11.89-19.9,19.9-9.34,16.24-10.01,36.87,.03,54.25l6.67,11.55,19.18,33.24c3.17,5.49,7.15,10.21,11.71,14.11,9.9,8.47,22.51,13.04,35.37,13.04,6.97,0,14-1.34,20.72-4.13,2.16-.9,4.29-1.95,6.37-3.15l35.74-20.63c7.82-4.52,16.52-6.76,25.23-6.76s17.81,2.34,25.79,6.97c.18,.1,.35,.21,.53,.31,15.77,9.08,25.57,25.81,25.57,44v41.27c0,29.98,24.31,54.28,54.29,54.28h51.71c15.29,0,29.11-6.32,38.97-16.49,9.49-9.77,15.32-23.1,15.32-37.79v-41.27c0-18.19,9.81-34.92,25.57-44,.17-.1,.36-.21,.53-.31,7.98-4.63,16.89-6.96,25.79-6.96s17.42,2.23,25.23,6.75l35.75,20.63c8.54,4.94,17.88,7.28,27.09,7.28,18.76,0,37.01-9.73,47.06-27.15l25.86-44.79c14.99-25.96,6.09-59.16-19.87-74.15Zm-171.53-31.3c-4.62,13.86-11.99,26.47-21.48,37.17-4.63,5.22-9.76,9.98-15.32,14.2-12.57,9.58-27.31,16.43-43.35,19.7-6.94,1.41-14.12,2.15-21.47,2.15-1.84,0-3.67-.05-5.49-.14-5.44-.27-10.78-.95-15.98-2.01-23.15-4.71-43.58-16.89-58.68-33.9-9.48-10.7-16.86-23.31-21.47-37.17-3.55-10.65-5.47-22.04-5.47-33.87s1.92-23.23,5.47-33.87c4.61-13.87,11.99-26.47,21.47-37.17,15.1-17.01,35.53-29.19,58.68-33.9,4.83-.98,9.79-1.64,14.84-1.94,2.19-.14,4.4-.21,6.63-.21,7.35,0,14.53,.74,21.47,2.15,16.04,3.27,30.78,10.12,43.35,19.7,5.56,4.22,10.69,8.98,15.32,14.2,9.49,10.7,16.86,23.3,21.48,37.17,3.54,10.64,5.47,22.03,5.47,33.87s-1.93,23.22-5.47,33.87Z"/>
  <path class="cls-1" d="M239.74,472.77l.89,1.55h-73.81c-18.17,0-32.9-14.73-32.9-32.9,0-9.08,3.68-17.31,9.64-23.26,5.95-5.96,14.18-9.64,23.26-9.64h68.08c-1,2.56-1.86,5.19-2.58,7.88-5.14,19.17-2.5,39.19,7.42,56.37Z"/>
</svg>