<?xml version="1.0" encoding="UTF-8"?>
<svg id="Layer_1" data-name="Layer 1" xmlns="http://www.w3.org/2000/svg" viewBox="0 0 562.57 116.12">
  <path d="M377.15,41.66c-2.21-5.18-5.25-9.72-9.11-13.65-3.87-3.91-8.37-6.99-13.51-9.24-5.13-2.25-10.62-3.38-16.47-3.38s-11.48,1.15-16.6,3.45c-5.13,2.29-9.61,5.43-13.44,9.38-3.83,3.97-6.8,8.53-8.9,13.7-2.13,5.19-3.18,10.66-3.18,16.41s1.06,11.34,3.24,16.47c2.15,5.13,5.17,9.64,9.04,13.51,3.87,3.87,8.34,6.91,13.43,9.11,5.08,2.21,10.51,3.31,16.28,3.31s11.48-1.1,16.6-3.31c5.14-2.19,9.64-5.23,13.51-9.11,3.86-3.87,6.9-8.38,9.11-13.51,2.21-5.13,3.31-10.66,3.31-16.6s-1.1-11.36-3.31-16.54Zm76.72-12.5c-1.05-2.54-2.58-4.78-4.57-6.75-2-1.95-4.42-3.49-7.22-4.63-2.82-1.13-5.96-1.7-9.41-1.7h-16.36V59.42h14.59c4.81,0,8.81-.68,12-2.04,3.18-1.36,5.67-3.14,7.5-5.32,1.81-2.18,3.11-4.57,3.89-7.16,.76-2.59,1.16-5.11,1.16-7.57,0-2.9-.53-5.63-1.57-8.18Zm0,0c-1.05-2.54-2.58-4.78-4.57-6.75-2-1.95-4.42-3.49-7.22-4.63-2.82-1.13-5.96-1.7-9.41-1.7h-16.36V59.42h14.59c4.81,0,8.81-.68,12-2.04,3.18-1.36,5.67-3.14,7.5-5.32,1.81-2.18,3.11-4.57,3.89-7.16,.76-2.59,1.16-5.11,1.16-7.57,0-2.9-.53-5.63-1.57-8.18Zm-76.72,12.5c-2.21-5.18-5.25-9.72-9.11-13.65-3.87-3.91-8.37-6.99-13.51-9.24-5.13-2.25-10.62-3.38-16.47-3.38s-11.48,1.15-16.6,3.45c-5.13,2.29-9.61,5.43-13.44,9.38-3.83,3.97-6.8,8.53-8.9,13.7-2.13,5.19-3.18,10.66-3.18,16.41s1.06,11.34,3.24,16.47c2.15,5.13,5.17,9.64,9.04,13.51,3.87,3.87,8.34,6.91,13.43,9.11,5.08,2.21,10.51,3.31,16.28,3.31s11.48-1.1,16.6-3.31c5.14-2.19,9.64-5.23,13.51-9.11,3.86-3.87,6.9-8.38,9.11-13.51,2.21-5.13,3.31-10.66,3.31-16.6s-1.1-11.36-3.31-16.54ZM0,0V116.12H562.57V0H0ZM69.37,16.07H16.34V54.51h47.71v6.41H16.34v39.12h53.03v6.41H9.67V9.67h59.71v6.41Zm99.51-6.41l.14,82.64L96.26,9.67h72.63ZM100.59,106.45l-.14-81.7,72.51,81.7H100.59Zm165.08-3.74c-2.73,1.16-5.74,2.07-9,2.74-3.27,.67-6.82,1-10.63,1-7.36,0-14.05-1.27-20.04-3.8-6-2.54-11.14-6-15.4-10.4-4.28-4.39-7.58-9.46-9.88-15.19-2.32-5.74-3.49-11.85-3.49-18.34,0-6.94,1.24-13.37,3.69-19.33,2.44-5.94,5.9-11.15,10.36-15.6,4.44-4.44,9.62-7.91,15.54-10.4,5.9-2.48,12.31-3.74,19.22-3.74,5.08,0,9.86,.67,14.31,2,4.44,1.32,8.49,3.07,12.13,5.19l-2.86,6c-3.19-1.95-6.78-3.6-10.77-4.93-4.01-1.32-8.23-1.99-12.68-1.99-5.73,0-11.14,1.09-16.24,3.26-5.08,2.19-9.56,5.21-13.41,9.07s-6.88,8.38-9.08,13.54c-2.17,5.15-3.26,10.71-3.26,16.66s.97,11.07,2.92,16.14c1.96,5.06,4.77,9.52,8.47,13.33,3.68,3.82,8.11,6.82,13.29,9,5.17,2.18,10.95,3.26,17.31,3.26,4.72,0,9.07-.64,13.02-1.92,3.95-1.28,7.47-2.92,10.56-4.87l3.12,5.73c-2.09,1.25-4.48,2.45-7.21,3.6Zm116.7-25.67c-2.51,5.82-5.96,10.93-10.33,15.31-4.4,4.4-9.5,7.85-15.32,10.35-5.82,2.51-12.09,3.75-18.83,3.75s-12.71-1.24-18.47-3.75c-5.77-2.49-10.85-5.94-15.23-10.35-4.39-4.38-7.81-9.49-10.27-15.31-2.47-5.82-3.67-12.04-3.67-18.69s1.19-12.72,3.6-18.59c2.39-5.88,5.75-11.04,10.1-15.55,4.33-4.48,9.42-8.04,15.24-10.65,5.82-2.6,12.08-3.9,18.84-3.9s12.86,1.28,18.68,3.83,10.92,6.05,15.32,10.48c4.38,4.44,7.82,9.61,10.33,15.47,2.49,5.88,3.75,12.13,3.75,18.76s-1.25,13.02-3.75,18.84Zm81.51,29.4l-25.3-41.14c-2.24,.34-4.66,.52-7.28,.52h-15v40.62h-6.68V9.67h22.08c3.63,0,7.24,.53,10.84,1.57,3.59,1.05,6.86,2.69,9.82,4.91,2.94,2.24,5.33,5.07,7.16,8.52,1.81,3.46,2.73,7.59,2.73,12.41,0,3.64-.55,7.16-1.64,10.56-1.09,3.41-2.86,6.48-5.32,9.2s-5.64,4.91-9.54,6.54c-.1,.04-.2,.08-.3,.11l26.2,42.97h-7.77Zm89.02-90.38h-53.03V54.51h47.71v6.41h-47.71v39.12h53.03v6.41h-59.71V9.67h59.71v6.41Zm-102.51,35.99c1.81-2.18,3.11-4.57,3.89-7.16,.76-2.59,1.16-5.11,1.16-7.57,0-2.9-.53-5.63-1.57-8.18-1.05-2.54-2.58-4.78-4.57-6.75-2-1.95-4.42-3.49-7.22-4.63-2.82-1.13-5.96-1.7-9.41-1.7h-16.36V59.42h14.59c4.81,0,8.81-.68,12-2.04,3.18-1.36,5.67-3.14,7.5-5.32Zm-82.35-24.05c-3.87-3.91-8.37-6.99-13.51-9.24-5.13-2.25-10.62-3.38-16.47-3.38s-11.48,1.15-16.6,3.45c-5.13,2.29-9.61,5.43-13.44,9.38-3.83,3.97-6.8,8.53-8.9,13.7-2.13,5.19-3.18,10.66-3.18,16.41s1.06,11.34,3.24,16.47c2.15,5.13,5.17,9.64,9.04,13.51,3.87,3.87,8.34,6.91,13.43,9.11,5.08,2.21,10.51,3.31,16.28,3.31s11.48-1.1,16.6-3.31c5.14-2.19,9.64-5.23,13.51-9.11,3.86-3.87,6.9-8.38,9.11-13.51,2.21-5.13,3.31-10.66,3.31-16.6s-1.1-11.36-3.31-16.54c-2.21-5.18-5.25-9.72-9.11-13.65Zm9.11,13.65c-2.21-5.18-5.25-9.72-9.11-13.65-3.87-3.91-8.37-6.99-13.51-9.24-5.13-2.25-10.62-3.38-16.47-3.38s-11.48,1.15-16.6,3.45c-5.13,2.29-9.61,5.43-13.44,9.38-3.83,3.97-6.8,8.53-8.9,13.7-2.13,5.19-3.18,10.66-3.18,16.41s1.06,11.34,3.24,16.47c2.15,5.13,5.17,9.64,9.04,13.51,3.87,3.87,8.34,6.91,13.43,9.11,5.08,2.21,10.51,3.31,16.28,3.31s11.48-1.1,16.6-3.31c5.14-2.19,9.64-5.23,13.51-9.11,3.86-3.87,6.9-8.38,9.11-13.51,2.21-5.13,3.31-10.66,3.31-16.6s-1.1-11.36-3.31-16.54Zm0,0c-2.21-5.18-5.25-9.72-9.11-13.65-3.87-3.91-8.37-6.99-13.51-9.24-5.13-2.25-10.62-3.38-16.47-3.38s-11.48,1.15-16.6,3.45c-5.13,2.29-9.61,5.43-13.44,9.38-3.83,3.97-6.8,8.53-8.9,13.7-2.13,5.19-3.18,10.66-3.18,16.41s1.06,11.34,3.24,16.47c2.15,5.13,5.17,9.64,9.04,13.51,3.87,3.87,8.34,6.91,13.43,9.11,5.08,2.21,10.51,3.31,16.28,3.31s11.48-1.1,16.6-3.31c5.14-2.19,9.64-5.23,13.51-9.11,3.86-3.87,6.9-8.38,9.11-13.51,2.21-5.13,3.31-10.66,3.31-16.6s-1.1-11.36-3.31-16.54Z"/>
</svg>