<?xml version="1.0" encoding="UTF-8"?>
<svg fill="#729ef6" xmlns="http://www.w3.org/2000/svg" viewBox="0 0 850.35 850.35">
    <path d="M596.1,707.01v84.01c0,25.7,20.83,46.53,46.53,46.53h148.36c25.7,0,46.53-20.83,46.53-46.53V59.23c0-.49,0-1-.04-1.48-.03-1.14-.11-2.28-.23-3.39-.03-.3-.07-.6-.11-.9,0-.02,0-.04,0-.05-.04-.38-.09-.75-.15-1.12-.14-.91-.3-1.81-.49-2.71l-.16-.72c-.09-.37-.17-.75-.27-1.12-.18-.75-.4-1.48-.62-2.21-.23-.73-.48-1.45-.74-2.16-.2-.55-.42-1.11-.64-1.66-.44-1.07-.91-2.1-1.42-3.12-7.65-15.27-23.43-25.75-41.65-25.75H59.32c-17.62,0-32.96,9.8-40.87,24.24-.25,.47-.49,.94-.74,1.42h0c-.52,1.06-1.02,2.13-1.46,3.22-.22,.55-.44,1.1-.64,1.66-.26,.72-.5,1.44-.74,2.16-.22,.73-.43,1.46-.62,2.21-.1,.37-.18,.75-.27,1.12l-.2,.9c-.17,.83-.33,1.68-.46,2.52-.06,.39-.12,.78-.16,1.16-.05,.35-.09,.7-.13,1.05-.05,.46-.09,.92-.13,1.4-.04,.53-.07,1.08-.09,1.62,0,.04,0,.08,0,.12-.03,.52-.04,1.07-.04,1.6V791.01c0,25.7,20.83,46.53,46.53,46.53H207.67c25.7,0,46.53-20.83,46.53-46.53v-84.01c0-22.32,18.1-40.41,40.42-40.41h261.07c22.32,0,40.41,18.1,40.41,40.41Zm0-427.62v145.8h-50.24v-145.8c0-13.87,11.25-25.12,25.12-25.12s25.12,11.25,25.12,25.12ZM254.2,425.18v-145.8c0-13.87,11.25-25.12,25.12-25.12h0c13.87,0,25.12,11.25,25.12,25.12v145.8h-50.25Z"></path>
</svg>