<?xml version="1.0" encoding="UTF-8"?>
<svg id="Layer_1" data-name="Layer 1" xmlns="http://www.w3.org/2000/svg" viewBox="0 0 556.06 114.77">
  <defs>
    <style>
      .cls-1 {
        fill: #729ef6;
      }
    </style>
  </defs>
  <path class="cls-1" d="M448.62,28.82c-1.04-2.51-2.55-4.73-4.51-6.67-1.98-1.93-4.37-3.45-7.14-4.58-2.79-1.12-5.89-1.68-9.3-1.68h-16.17V58.73h14.42c4.76,0,8.7-.67,11.86-2.02,3.14-1.35,5.61-3.1,7.41-5.26,1.79-2.16,3.07-4.51,3.84-7.07,.75-2.56,1.15-5.05,1.15-7.48,0-2.87-.53-5.56-1.55-8.08Zm0,0c-1.04-2.51-2.55-4.73-4.51-6.67-1.98-1.93-4.37-3.45-7.14-4.58-2.79-1.12-5.89-1.68-9.3-1.68h-16.17V58.73h14.42c4.76,0,8.7-.67,11.86-2.02,3.14-1.35,5.61-3.1,7.41-5.26,1.79-2.16,3.07-4.51,3.84-7.07,.75-2.56,1.15-5.05,1.15-7.48,0-2.87-.53-5.56-1.55-8.08ZM0,0V114.77H556.06V0H0ZM68.57,15.89H16.16V53.88H63.32v6.33H16.16v38.67h52.42v6.33H9.55V9.55h59.02v6.33Zm98.36-6.33l.13,81.68L95.14,9.55h71.79ZM99.43,105.22l-.13-80.75,71.67,80.75H99.43Zm163.17-3.69c-2.69,1.15-5.67,2.05-8.89,2.71-3.23,.66-6.74,.98-10.51,.98-7.28,0-13.89-1.25-19.81-3.76-5.93-2.51-11.01-5.93-15.23-10.28-4.23-4.34-7.49-9.35-9.77-15.01-2.29-5.67-3.45-11.71-3.45-18.12,0-6.86,1.23-13.22,3.65-19.11,2.41-5.87,5.83-11.02,10.24-15.41,4.39-4.39,9.51-7.82,15.36-10.28,5.83-2.45,12.17-3.69,19-3.69,5.03,0,9.74,.66,14.15,1.98,4.39,1.31,8.39,3.03,11.99,5.13,0,0,0,0,0,0l-2.83,5.93c-3.15-1.93-6.7-3.56-10.64-4.88-3.96-1.31-8.14-1.97-12.53-1.97-5.66,0-11.01,1.08-16.05,3.22-5.03,2.17-9.45,5.15-13.26,8.96s-6.8,8.29-8.97,13.38c-2.14,5.09-3.22,10.59-3.22,16.47s.96,10.94,2.88,15.95c1.94,5,4.72,9.41,8.37,13.18,3.64,3.77,8.02,6.74,13.14,8.89,5.11,2.16,10.82,3.22,17.11,3.22,4.66,0,8.96-.63,12.87-1.9,3.91-1.27,7.38-2.88,10.44-4.81l3.09,5.66c-2.06,1.24-4.43,2.43-7.13,3.56Zm110.56-27.43c-2.21,5.12-5.24,9.62-9.1,13.47-3.87,3.87-8.35,6.9-13.47,9.1-5.12,2.21-10.64,3.3-16.57,3.3s-11.17-1.09-16.25-3.3c-5.07-2.2-9.54-5.23-13.39-9.1-3.87-3.85-6.87-8.35-9.03-13.47-2.17-5.12-3.23-10.59-3.23-16.44s1.05-11.2,3.17-16.37c2.1-5.16,5.07-9.71,8.89-13.68,3.81-3.95,8.29-7.07,13.41-9.36,5.12-2.29,10.63-3.44,16.57-3.44s11.32,1.13,16.44,3.37c5.12,2.25,9.61,5.32,13.47,9.23,3.85,3.91,6.89,8.45,9.1,13.61,2.2,5.17,3.3,10.67,3.3,16.51s-1.1,11.45-3.3,16.57Zm85.36,31.13l-25.01-40.67c-2.21,.34-4.61,.51-7.2,.51h-14.82v40.15h-6.6V9.55h21.83c3.58,0,7.15,.53,10.71,1.55,3.54,1.04,6.78,2.65,9.7,4.85,2.91,2.21,5.27,5.01,7.07,8.42,1.79,3.42,2.69,7.51,2.69,12.26,0,3.6-.54,7.07-1.62,10.44-1.08,3.37-2.83,6.4-5.26,9.1s-5.58,4.85-9.43,6.47c-.09,.04-.2,.08-.3,.11l25.9,42.47h-7.68ZM546.51,15.89h-52.42V53.88h47.16v6.33h-47.16v38.67h52.42v6.33h-59.02V9.55h59.02v6.33Zm-101.33,35.57c1.79-2.16,3.07-4.51,3.84-7.07,.75-2.56,1.15-5.05,1.15-7.48,0-2.87-.53-5.56-1.55-8.08-1.04-2.51-2.55-4.73-4.51-6.67-1.98-1.93-4.37-3.45-7.14-4.58-2.79-1.12-5.89-1.68-9.3-1.68h-16.17V58.73h14.42c4.76,0,8.7-.67,11.86-2.02,3.14-1.35,5.61-3.1,7.41-5.26Z"/>
</svg>