<?xml version="1.0" encoding="UTF-8"?>
<svg id="Layer_1" data-name="Layer 1" xmlns="http://www.w3.org/2000/svg" viewBox="0 0 489.79 138.55">
  <path d="M125.53,3.88V134.67c0,2.15,1.74,3.88,3.88,3.88h230.96c2.15,0,3.88-1.74,3.88-3.88V3.88c0-2.15-1.74-3.88-3.88-3.88H129.41c-2.15,0-3.88,1.74-3.88,3.88Zm186.15,9.07h37.1c2.15,0,3.88,1.74,3.88,3.88v5.81c0,2.15-1.74,3.88-3.88,3.88h-7.35c-2.15,0-3.88,1.74-3.88,3.88v27.58c0,2.15-1.74,3.88-3.88,3.88h-6.86c-2.15,0-3.88-1.74-3.88-3.88V30.42c0-2.15-1.74-3.88-3.88-3.88h-7.35c-2.15,0-3.88-1.74-3.88-3.88v-5.81c0-2.15,1.74-3.88,3.88-3.88Zm-174.82,3.88c0-2.15,1.74-3.88,3.88-3.88h21.04c3.22,0,6.07,.48,8.54,1.44,2.48,.95,4.54,2.27,6.2,3.95,1.66,1.68,2.92,3.66,3.78,5.92s1.29,4.68,1.29,7.24-.43,4.98-1.29,7.25c-.86,2.26-2.12,4.23-3.78,5.91-1.66,1.68-3.72,3.01-6.2,3.99-2.47,.98-5.32,1.47-8.54,1.47h-6.41c-2.15,0-3.88,1.74-3.88,3.88v3.99c0,2.15-1.74,3.88-3.88,3.88h-6.86c-2.15,0-3.88-1.74-3.88-3.88V16.83Zm37.6,73.21h-18.97c-2.15,0-3.88,1.74-3.88,3.88h0c0,2.15,1.74,3.88,3.88,3.88h13.79c2.15,0,3.88,1.74,3.88,3.88v5.32c0,2.15-1.74,3.88-3.88,3.88h-13.79c-2.15,0-3.88,1.74-3.88,3.88v7.21c0,2.15-1.74,3.88-3.88,3.88h-6.86c-2.15,0-3.88-1.74-3.88-3.88v-41.16c0-2.15,1.74-3.88,3.88-3.88h33.6c2.15,0,3.88,1.74,3.88,3.88v5.32c0,2.15-1.74,3.88-3.88,3.88Zm55.15,21.28c-1.33,3.18-3.17,5.93-5.53,8.26-2.35,2.34-5.14,4.19-8.36,5.57-3.22,1.37-6.7,2.06-10.43,2.06s-7.21-.69-10.43-2.06c-3.22-1.38-6.01-3.23-8.37-5.57-2.35-2.33-4.2-5.08-5.53-8.26-1.33-3.17-1.99-6.53-1.99-10.08s.66-6.95,1.99-10.08c1.33-3.12,3.18-5.86,5.53-8.22,2.36-2.36,5.15-4.21,8.37-5.57,3.22-1.35,6.7-2.03,10.43-2.03s7.21,.68,10.43,2.03c3.22,1.36,6.01,3.21,8.36,5.57,2.36,2.36,4.2,5.1,5.53,8.22,1.33,3.13,2,6.49,2,10.08s-.67,6.91-2,10.08Zm-3.5-50.17c-3.22,1.37-6.69,2.06-10.43,2.06s-7.21-.69-10.43-2.06c-3.22-1.38-6-3.23-8.36-5.57-2.36-2.33-4.2-5.08-5.53-8.26-1.33-3.17-2-6.53-2-10.08s.67-6.95,2-10.08c1.33-3.12,3.17-5.86,5.53-8.22,2.36-2.36,5.14-4.21,8.36-5.57,3.22-1.35,6.7-2.03,10.43-2.03s7.21,.68,10.43,2.03c3.22,1.36,6.01,3.21,8.37,5.57s4.2,5.1,5.53,8.22c1.33,3.13,1.99,6.49,1.99,10.08s-.66,6.91-1.99,10.08c-1.33,3.18-3.17,5.93-5.53,8.26-2.36,2.34-5.15,4.19-8.37,5.57Zm43.62,64.73h-28.63c-2.15,0-3.88-1.74-3.88-3.88v-41.16c0-2.15,1.74-3.88,3.88-3.88h6.86c2.15,0,3.88,1.74,3.88,3.88v27.51c0,2.15,1.74,3.88,3.88,3.88h14c2.15,0,3.88,1.74,3.88,3.88v5.88c0,2.15-1.74,3.88-3.88,3.88Zm-1.41-73.42v5.53c0,2.15-1.74,3.88-3.88,3.88h-6.86c-2.15,0-3.88-1.74-3.88-3.88V16.83c0-2.15,1.74-3.88,3.88-3.88h23.06c2.8,0,5.36,.47,7.67,1.4,2.31,.94,4.27,2.21,5.88,3.82s2.86,3.49,3.74,5.63c.89,2.15,1.33,4.46,1.33,6.93,0,3.18-.85,5.99-2.55,8.44-1.04,1.49-2.26,2.8-3.66,3.95-1.57,1.29-1.82,3.6-.62,5.24l5.35,7.35c1.87,2.57,.04,6.17-3.14,6.17h-6.98c-1.24,0-2.4-.59-3.14-1.59l-7.4-10.12c-.73-1-1.9-1.59-3.14-1.59h-1.77c-2.15,0-3.88,1.74-3.88,3.88Zm21.71,73.42h-6.86c-2.15,0-3.88-1.74-3.88-3.88v-41.16c0-2.15,1.74-3.88,3.88-3.88h6.86c2.15,0,3.88,1.74,3.88,3.88v41.16c0,2.15-1.74,3.88-3.88,3.88Zm60.89-14.56c-1.33,3.18-3.17,5.93-5.52,8.26-2.36,2.34-5.15,4.19-8.37,5.57-3.22,1.37-6.7,2.06-10.43,2.06s-7.21-.69-10.43-2.06c-3.22-1.38-6.01-3.23-8.37-5.57-2.35-2.33-4.19-5.08-5.52-8.26-1.33-3.17-2-6.53-2-10.08s.67-6.95,2-10.08c1.33-3.12,3.17-5.86,5.52-8.22,2.36-2.36,5.15-4.21,8.37-5.57,3.22-1.35,6.7-2.03,10.43-2.03s7.21,.68,10.43,2.03c3.22,1.36,6.01,3.21,8.37,5.57,2.35,2.36,4.19,5.1,5.52,8.22,1.33,3.13,2,6.49,2,10.08s-.67,6.91-2,10.08Z"/>
</svg>