<?xml version="1.0" encoding="UTF-8"?>
<svg xmlns="http://www.w3.org/2000/svg" viewBox="0 0 850.39 850.39">
  <path fill="var(--bar)" d="M802.6,56.19H47.8C21.4,56.19,0,77.59,0,103.99V746.41c0,26.39,21.4,47.79,47.8,47.79H802.6c26.39,0,47.79-21.4,47.79-47.79V103.99c0-26.4-21.4-47.8-47.79-47.8Zm-36.6,595.9c0,9.22-7.48,16.7-16.7,16.7H101.1c-9.23,0-16.71-7.48-16.71-16.7V192c0-5.74,4.66-10.4,10.4-10.4H749.3c9.22,0,16.7,7.48,16.7,16.71v453.78Z"/>
  <rect fill="var(--bar)" x="193.2" y="603.88" width="463.99" height="38.8" rx="18.3" ry="18.3"/>
</svg>