<?xml version="1.0" encoding="UTF-8"?>
<svg id="Layer_12" data-name="Layer 12" xmlns="http://www.w3.org/2000/svg" viewBox="0 0 850.41 850.41">
  <defs>
    <style>
      .cls-1 {
        fill: #231f20;
      }
    </style>
  </defs>
  <path class="cls-1" d="M347.99,610.92l-147.74,147.74c-29.77,29.77-78.25,30.97-108.47,1.66-30.76-29.83-31.04-79.14-.85-109.34l148.56-148.56c14.51-14.51,33.42-21.98,52.47-22.4,4.19-.09,8.18-1.82,11.15-4.78l28.18-28.18c9.24-9.24,4.47-24.95-8.31-27.66-44.95-9.51-93.69,3.16-128.52,37.99L46.99,604.86c-54.79,54.79-56.14,143.98-1.67,199.08,54.69,55.33,144.21,55.52,199.15,.58l148.56-148.56c34.84-34.84,47.51-83.59,37.99-128.54-2.71-12.78-18.42-17.54-27.66-8.3l-28.17,28.17c-2.97,2.97-4.69,6.96-4.78,11.15-.42,19.05-7.9,37.97-22.41,52.48Z"/>
  <path class="cls-1" d="M604.84,47.01l-147.46,147.46c-34.84,34.84-47.51,83.58-38,128.53,2.7,12.78,18.42,17.54,27.66,8.31l28.19-28.19c2.97-2.97,4.69-6.96,4.78-11.15,.43-19.04,7.9-37.96,22.4-52.47l147.73-147.73c29.77-29.77,78.25-30.97,108.47-1.66,30.76,29.83,31.04,79.14,.85,109.34l-148.55,148.55c-14.51,14.51-33.43,21.98-52.48,22.41-4.19,.09-8.19,1.82-11.15,4.78l-28.18,28.18c-9.24,9.24-4.47,24.95,8.31,27.66,44.95,9.51,93.7-3.15,128.54-37.99l148.55-148.55c54.94-54.94,54.74-144.46-.58-199.15-55.1-54.47-144.29-53.11-199.08,1.67Z"/>
  <path class="cls-1" d="M544.16,306.26c12.44,12.44,12.43,32.61,0,45.04l-192.88,192.88c-12.44,12.44-32.61,12.45-45.04,0-12.44-12.44-12.44-32.61,0-45.05l192.88-192.88c12.43-12.43,32.61-12.43,45.04,0Z"/>
</svg>