<?xml version="1.0" encoding="UTF-8"?>
<svg id="Layer_1" data-name="Layer 1" xmlns="http://www.w3.org/2000/svg" viewBox="0 0 1696.7 1696.71">
  <defs>
    <style>
      .cls-1 {
        stroke-width: 0px;
      }
    </style>
  </defs>
  <path class="cls-1" d="M722.79,0c83.7,0,167.41,0,251.11,0,3.44.72,6.9,1.35,10.32,2.16,38.73,9.22,65.11,42.58,65.18,82.43.02,12.43,0,24.86,0,37.54,59.7,16.57,116.38,40.08,170.3,70.61,8.78-8.8,17.33-17.43,25.95-25.99,15.95-15.84,35.17-24.44,57.64-24.98,24.59-.59,45.46,8.33,62.84,25.73,44.15,44.23,88.37,88.38,132.55,132.58,11.2,11.2,22.57,22.23,33.49,33.68,14.77,15.48,22.32,34.19,22.76,55.53.49,23.77-7.87,44.23-24.5,61.22-8.69,8.88-17.58,17.56-26.5,26.45,30.6,54.01,54.08,110.7,70.64,170.32,12.37,0,24.39-.13,36.39.06,5.49.09,11.07.3,16.44,1.33,41.45,7.94,69.28,41.83,69.29,84.11.01,76.49.02,152.97-.03,229.46,0,4.93-.29,9.89-.83,14.8-3.95,35.94-35.82,68.07-71.79,71.38-14.73,1.35-29.64.72-44.47.99-1.64.03-3.29,0-5.01,0-16.6,59.86-40.1,116.41-70.6,170.3,9.15,9.11,18.24,17.99,27.15,27.07,32.79,33.42,32.88,85.48-.12,118.63-54.85,55.12-109.85,110.09-164.95,164.96-34.08,33.93-85.93,33.73-120.15-.14-7.84-7.76-15.6-15.59-23.41-23.38-.97-.96-2.01-1.86-3-2.77-26.98,15.27-54.48,28.71-82.81,40.47-28.43,11.8-57.5,21.73-87.26,30.05,0,12.17.25,24.05-.09,35.91-.2,7.02-.6,14.19-2.17,21-8.98,38.77-42.37,65.13-82.33,65.17-77.62.07-155.24.03-232.85-.01-3.8,0-7.62-.33-11.41-.75-34.95-3.83-65.71-32.14-71.4-66.84-1.88-11.47-1.41-23.35-1.81-35.05-.22-6.45-.04-12.91-.04-19.47-29.93-8.29-58.87-18.25-87.19-29.99-28.45-11.79-56.06-25.31-83.09-40.6-8.89,8.89-17.63,17.72-26.46,26.46-34.39,34.04-86.19,34.14-120.44,0-54.67-54.5-109.26-109.08-163.75-163.75-34.21-34.33-34.17-85.98-.16-120.45,7.85-7.95,15.79-15.8,23.68-23.71.97-.97,1.86-2.01,2.78-3-30.56-53.96-53.98-110.55-70.52-170.11-13,0-25.72.07-38.43-.01-37.97-.26-70.7-25.35-80.74-61.92-1.22-4.46-1.98-9.04-2.95-13.56,0-83.7,0-167.41,0-251.11.7-3.43,1.31-6.88,2.12-10.28,9.09-38.49,42.37-64.97,81.99-65.21,12.57-.08,25.15-.01,38.04-.01,16.53-59.66,40.05-116.33,70.59-170.27-8.97-8.95-17.81-17.69-26.56-26.51-33.43-33.66-33.61-85.98-.15-119.55,54.69-54.87,109.47-109.64,164.33-164.34,34.39-34.29,86.23-34.13,120.76.14,7.73,7.67,15.39,15.39,23.1,23.08.97.97,2.01,1.86,3.01,2.78,53.95-30.54,110.53-53.96,170.07-70.5,0-13.01-.05-25.73,0-38.44.18-38.81,26.64-72.21,64.4-81.31,3.67-.89,7.39-1.59,11.09-2.38ZM611.31,1037.29c-36.13-45.73-57.56-97.62-64.3-155.61h-153.99c8.04,100.25,44.42,188.32,109.38,264.54,36.48-36.49,72.53-72.55,108.9-108.93ZM815.09,1149.68c-58.38-6.8-110.23-28.35-155.36-64.01-36.45,36.45-72.59,72.58-108.93,108.93,76.07,64.69,164.11,101.12,264.28,109.05v-153.97ZM1085.82,1036.77c36.38,36.38,72.54,72.54,108.94,108.94,64.52-75.89,100.93-163.89,108.88-264.04h-153.98c-6.71,58.01-28.15,109.77-63.84,155.09ZM659.78,611.01c45.65-35.94,97.44-57.3,155.18-63.99v-153.97c-100.19,8-188.15,44.41-264.09,109.02,36.47,36.49,72.54,72.56,108.91,108.95ZM882.48,1303c32,2.23,113.6-19.1,162.49-42.51,36.83-17.64,70.69-39.8,101.39-66.5-36.48-36.48-72.55-72.54-108.81-108.81-45.42,36.01-97.26,57.56-155.07,64.42v153.4ZM502.44,550.57c-36.25,41.94-64.13,89.2-83.2,141.61-14.35,39.43-23,80.08-25.98,122.05h153.85c6.86-57.9,28.4-109.61,64.17-154.8-36.3-36.31-72.44-72.45-108.84-108.86ZM1194.47,550.81c-36.41,36.41-72.54,72.54-108.86,108.87,35.66,45.15,57.11,96.75,63.97,154.52h153.87c-3.18-43.88-12.42-86.17-27.86-127.08-18.99-50.3-46.15-95.76-81.11-136.31ZM882.44,547.11c57.97,6.88,109.55,28.39,154.65,64.02,36.4-36.39,72.54-72.53,108.93-108.93-75.91-64.55-163.66-101.02-263.59-109.09v154ZM939.25,848.26c-.04-50.25-40.64-90.83-90.88-90.84-50.23-.01-90.87,40.57-90.92,90.8-.06,50.43,40.69,91.16,91.09,91.05,50.25-.11,90.75-40.74,90.71-91.01Z"/>
</svg>