<?xml version="1.0" encoding="UTF-8"?>
<svg id="Layer_1" data-name="Layer 1" xmlns="http://www.w3.org/2000/svg" viewBox="0 0 2092.01 754.91">
  <defs>
    <style>
      .cls-1 {
        stroke-width: 0px;
      }
    </style>
  </defs>
  <path class="cls-1" d="M1080.8,0c9.01,1.35,18.06,2.45,27.02,4.08,56.02,10.2,103.75,36.04,142.57,77.49,40.71,43.48,64.24,95.14,68.77,154.68,6.53,85.73-23.28,157.31-86.27,215.4-5.56,5.13-11.57,9.83-17.78,14.16-3.64,2.53-3.97,4.9-2.63,8.77,14.21,40.95,28.25,81.96,42.39,122.93,14.83,43,29.7,85.98,44.55,128.97,2.67,7.72,5.3,15.44,8.06,23.13,1.26,3.52.25,5.21-3.54,5.15-1.17-.02-2.33.03-3.5.03-51.37,0-102.74-.1-154.11.13-6.06.03-8.85-1.82-10.85-7.65-25.52-74.47-51.36-148.82-76.9-223.28-1.91-5.57-4.61-7.47-10.44-7.41-24.9.29-49.81.11-74.72.13-8.05,0-8.17.13-8.17,8.15-.01,73.29,0,146.57,0,219.86q0,10.06-9.77,10.07c-47.87,0-95.74,0-143.6,0-8.57,0-8.87-.28-8.87-8.82,0-127.33,0-254.65,0-381.98,0-8.33.06-8.37,8.52-8.37,79.58,0,159.17.02,238.75-.02,16.62,0,33.13-1.44,48.53-8.26,34.71-15.37,54.71-41.9,59.09-79.72,5.95-51.46-31.44-96.54-79.3-104.64-6.87-1.16-13.92-1.68-20.89-1.69-81.92-.11-163.84-.07-245.76-.08q-8.92,0-8.94-9.12c0-47.63,0-95.25,0-142.88,0-3.1-.28-6.24,1.07-9.18C896.31,0,988.55,0,1080.8,0Z"/>
  <path class="cls-1" d="M459.59,0c7.86,23.19,15.63,46.4,23.6,69.55,14.98,43.56,30.09,87.08,45.12,130.62,39.01,112.99,78,225.99,117.01,338.98,22.71,65.77,45.42,131.54,68.15,197.31,1.4,4.04,2.75,8.1,4.33,12.07,1.91,4.79.04,6.51-4.67,6.24-.97-.06-1.95,0-2.92,0-51.18,0-102.35-.09-153.52.12-5.79.02-8.49-1.72-10.42-7.34-27.53-80.35-55.3-160.62-83.03-240.91-26.77-77.53-53.54-155.06-80.31-232.59-7.11-20.58-14.22-41.15-21.35-61.72-.5-1.44-1.14-2.83-2.29-5.68-3.02,8.43-5.68,15.6-8.17,22.82-25.73,74.6-51.42,149.22-77.16,223.81-33.99,98.48-68.06,196.93-101.97,295.44-1.5,4.36-3.65,6.14-8.36,6.13-52.54-.13-105.07-.07-157.61-.1-6.76,0-7.05-.54-4.55-7.77,26.01-75.33,52.06-150.64,78.05-225.97,33.23-96.28,66.4-192.57,99.63-288.85,25.49-73.86,51.05-147.69,76.55-221.55,1.2-3.48,2.06-7.08,3.08-10.62,66.95,0,133.89,0,200.84,0Z"/>
  <path class="cls-1" d="M2092.01,162.15c-46.36,15.93-92.72,31.85-139.08,47.77-5.52,1.9-11.28,3.29-16.5,5.8-5.79,2.78-9.92,1.66-14.59-2.46-22.52-19.84-48.32-34.28-77.12-42.4-73.69-20.76-141.16-7.75-200.65,40.71-42.63,34.73-68.16,80.16-75.65,134.58-8.69,63.07,6.9,120.15,48,169.25,38.42,45.89,88.12,71.68,147.7,76.69,50.73,4.27,97.71-8.08,139.88-37.1,3.96-2.72,7.26-3.27,11.79-1.7,52.2,18.09,104.47,35.99,156.71,53.96,6.15,2.12,6.47,2.99,2.95,7.28-46.72,56.87-104.73,97.54-174.67,120.84-32.45,10.81-65.79,16.95-100.06,18.51-91.68,4.19-174.5-21.04-247.19-76.54-81.62-62.32-130.99-145.04-145.26-246.77-15.25-108.73,12.2-207.02,81.64-292.22,61.4-75.34,141.45-119.62,237.58-134.62C1737.99,2.09,1748.63,1.23,1759.22,0c15.18,0,30.36,0,45.54,0,7.5.83,15,1.58,22.49,2.52,50.18,6.29,97.42,21.53,141.36,46.63,34.16,19.51,64.57,43.73,91.26,72.7,11.48,12.46,21.43,26.09,32.15,39.13v1.17Z"/>
</svg>