<?xml version="1.0" encoding="UTF-8"?>
<svg id="Layer_1" data-name="Layer 1" xmlns="http://www.w3.org/2000/svg" viewBox="0 0 1231.36 451.5">
  <path d="M1172.27,316.15l56.95,45.25c2.48,1.97,2.87,5.62.83,8.05-45.74,54.57-116.9,87.12-195.25,79.43-106.49-10.45-191.18-95.5-201.23-202.02C820.92,112.77,926.06,0,1057.54,0c69.26,0,131.22,31.31,172.49,80.53,2.04,2.44,1.68,6.09-.81,8.06l-56.95,45.25c-2.39,1.9-5.83,1.54-7.82-.77-26.27-30.53-65.39-49.68-108.96-49.06-76.38,1.08-138.45,63.64-138.96,140.03-.52,78.31,62.81,141.96,141,141.96,42.75,0,81.06-19.03,106.92-49.08,1.99-2.31,5.43-2.66,7.81-.77h0Z"/>
  <path d="M408.62,451.5h-77.04c-2.4,0-4.54-1.52-5.33-3.78L210.13,116.59c-.99-2.83-5-2.83-5.99,0l-116.11,331.13c-.79,2.26-2.93,3.78-5.33,3.78H5.65c-3.89,0-6.62-3.84-5.33-7.52L154.68,3.78c.8-2.26,2.93-3.78,5.33-3.78h94.26c2.4,0,4.54,1.52,5.33,3.78l154.35,440.2c1.29,3.67-1.44,7.52-5.33,7.52h0Z"/>
  <path d="M710.02,282.42l55.22,161.6c1.25,3.67-1.47,7.47-5.35,7.47h-76.82c-2.42,0-4.56-1.54-5.34-3.82l-47.79-139.85c-.78-2.29-2.93-3.83-5.35-3.83h-56.31c-3.16,0-5.73,2.57-5.73,5.73v136.12c0,3.12-2.53,5.65-5.65,5.65h-72.7c-3.12,0-5.65-2.53-5.65-5.65v-220.2c0-3.12,2.53-5.65,5.65-5.65h139.37c36.52,0,67.29-28.42,68.91-64.9,1.73-38.97-29.34-71.1-67.93-71.1h-140.35c-3.12,0-5.65-2.53-5.65-5.65V5.65c0-3.12,2.52-5.65,5.64-5.65h138.56c86.92,0,157.5,72.05,153.64,158.88-1.75,39.24-18.37,74.61-44.37,100.6-6.18,6.18-12.88,11.83-20.05,16.88-1.93,1.36-2.71,3.83-1.95,6.07h0Z"/>
</svg>