<?xml version="1.0" encoding="utf-8"?>
<!-- Generator: Adobe Illustrator 26.5.1, SVG Export Plug-In . SVG Version: 6.00 Build 0)  -->
<svg version="1.1" id="Layer_1" xmlns="http://www.w3.org/2000/svg" xmlns:xlink="http://www.w3.org/1999/xlink" x="0px" y="0px"
	 viewBox="0 0 846.4 836.3" style="enable-background:new 0 0 846.4 836.3;" xml:space="preserve">
<path d="M846.4,329.9v175.6c0,27.6-22.4,50-50,50H506.6l71.2,71.2c19.5,19.5,19.5,51.2,0,70.7L453.6,821.7
	c-19.5,19.5-51.2,19.5-70.7,0L14.6,453.4C5,443.8,0.2,431.2,0,418.6c0-0.6,0-1.2,0-1.8c0.2-12.6,5-25.1,14.6-34.8L382.1,14.6
	c19.5-19.5,51.2-19.5,70.7,0L577,138.8c19.5,19.5,19.5,51.2,0,70.7l-70.4,70.4h289.8C824,279.9,846.4,302.3,846.4,329.9z"/>
</svg>
