<?xml version="1.0" encoding="UTF-8"?>
<svg id="Layer_1" data-name="Layer 1" xmlns="http://www.w3.org/2000/svg" viewBox="0 0 846.39 836.31">
  <path d="M846.39,329.93v175.61c0,27.62-22.38,50-50,50H506.57l71.24,71.24c19.53,19.52,19.53,51.18,0,70.71l-124.17,124.18c-19.53,19.52-51.19,19.52-70.72,0L14.65,453.39C5.04,443.78,.16,431.24,0,418.64c-.01-.6-.01-1.21,0-1.81,.15-12.6,5.03-25.15,14.64-34.75L382.09,14.64c19.52-19.52,51.18-19.52,70.71,0l124.18,124.18c19.52,19.53,19.52,51.19,0,70.71l-70.4,70.4h289.81c27.62,0,50,22.39,50,50Z"/>
</svg>