<?xml version="1.0" encoding="UTF-8"?>
<svg id="Layer_1" data-name="Layer 1" xmlns="http://www.w3.org/2000/svg" viewBox="0 0 822.2 822.21" fill="#e9e9e9">
  <path d="M807.71,612.82c19.33,19.33,19.33,50.67,0,70.01l-124.88,124.88c-19.34,19.33-50.68,19.33-70.01,0l-201.71-201.71-201.72,201.71c-19.33,19.33-50.67,19.33-70,0L14.5,682.83c-19.33-19.34-19.33-50.68,0-70.01l201.72-201.71L14.5,209.39c-19.33-19.33-19.33-50.67,0-70L139.39,14.5c19.33-19.33,50.67-19.33,70,0l201.72,201.72L612.82,14.5c19.33-19.33,50.67-19.33,70.01,0l124.88,124.89c19.33,19.33,19.33,50.67,0,70l-201.71,201.72,201.71,201.71Z"/>
</svg>