<?xml version="1.0" encoding="utf-8"?>
<!-- Generator: Adobe Illustrator 26.5.1, SVG Export Plug-In . SVG Version: 6.00 Build 0)  -->
<svg version="1.1" id="Layer_1" xmlns="http://www.w3.org/2000/svg" xmlns:xlink="http://www.w3.org/1999/xlink" x="0px" y="0px"
	 viewBox="0 0 822.2 822.2" style="enable-background:new 0 0 822.2 822.2;" xml:space="preserve">
<path d="M807.7,612.8c19.3,19.3,19.3,50.7,0,70L682.8,807.7c-19.3,19.3-50.7,19.3-70,0L411.1,606L209.4,807.7
	c-19.3,19.3-50.7,19.3-70,0L14.5,682.8c-19.3-19.3-19.3-50.7,0-70l201.7-201.7L14.5,209.4c-19.3-19.3-19.3-50.7,0-70L139.4,14.5
	c19.3-19.3,50.7-19.3,70,0l201.7,201.7L612.8,14.5c19.3-19.3,50.7-19.3,70,0l124.9,124.9c19.3,19.3,19.3,50.7,0,70L606,411.1
	L807.7,612.8z"/>
</svg>
