<?xml version="1.0" encoding="UTF-8"?>
<svg xmlns="http://www.w3.org/2000/svg" viewBox="0 0 850.39 850.39">
  <path fill="var(--bar)" d="M222.04,36c6.56,0,11.9,5.34,11.9,11.9v464.36c0,6.56-5.34,11.9-11.9,11.9H47.9c-6.56,0-11.9-5.34-11.9-11.9V47.9c0-6.56,5.34-11.9,11.9-11.9H222.04m0-36H47.9C21.45,0,0,21.45,0,47.9v464.36C0,538.72,21.45,560.17,47.9,560.17H222.04c26.46,0,47.9-21.45,47.9-47.9V47.9c0-26.46-21.45-47.9-47.9-47.9h0Z"/>
  <path fill="var(--bar)" d="M512.27,36c6.56,0,11.9,5.34,11.9,11.9V222.04c0,6.56-5.34,11.9-11.9,11.9h-174.14c-6.56,0-11.9-5.34-11.9-11.9V47.9c0-6.56,5.34-11.9,11.9-11.9h174.14M512.27,0h-174.14C311.67,0,290.22,21.45,290.22,47.9V222.04c0,26.46,21.45,47.9,47.9,47.9h174.14c26.46,0,47.9-21.45,47.9-47.9V47.9C560.17,21.45,538.72,0,512.27,0h0Z"/>
  <path fill="var(--bar)" d="M802.49,36c6.56,0,11.9,5.34,11.9,11.9V222.04c0,6.56-5.34,11.9-11.9,11.9h-174.14c-6.56,0-11.9-5.34-11.9-11.9V47.9c0-6.56,5.34-11.9,11.9-11.9h174.14M802.49,0h-174.14C601.89,0,580.44,21.45,580.44,47.9V222.04c0,26.46,21.45,47.9,47.9,47.9h174.14c26.46,0,47.9-21.45,47.9-47.9V47.9C850.39,21.45,828.95,0,802.49,0h0Z"/>
  <path fill="var(--bar)" d="M222.04,616.44c6.56,0,11.9,5.34,11.9,11.9v174.14c0,6.56-5.34,11.9-11.9,11.9H47.9c-6.56,0-11.9-5.34-11.9-11.9v-174.14c0-6.56,5.34-11.9,11.9-11.9H222.04m0-36H47.9C21.45,580.44,0,601.89,0,628.35v174.14C0,828.95,21.45,850.39,47.9,850.39H222.04c26.46,0,47.9-21.45,47.9-47.9v-174.14c0-26.46-21.45-47.9-47.9-47.9h0Z"/>
  <path fill="var(--bar)" d="M512.27,326.22c6.56,0,11.9,5.34,11.9,11.9v174.14c0,6.56-5.34,11.9-11.9,11.9h-174.14c-6.56,0-11.9-5.34-11.9-11.9v-174.14c0-6.56,5.34-11.9,11.9-11.9h174.14m0-36h-174.14c-26.46,0-47.9,21.45-47.9,47.9v174.14c0,26.46,21.45,47.9,47.9,47.9h174.14c26.46,0,47.9-21.45,47.9-47.9v-174.14c0-26.46-21.45-47.9-47.9-47.9h0Z"/>
  <path fill="var(--bar)" d="M512.27,616.44c6.56,0,11.9,5.34,11.9,11.9v174.14c0,6.56-5.34,11.9-11.9,11.9h-174.14c-6.56,0-11.9-5.34-11.9-11.9v-174.14c0-6.56,5.34-11.9,11.9-11.9h174.14m0-36h-174.14c-26.46,0-47.9,21.45-47.9,47.9v174.14c0,26.46,21.45,47.9,47.9,47.9h174.14c26.46,0,47.9-21.45,47.9-47.9v-174.14c0-26.46-21.45-47.9-47.9-47.9h0Z"/>
  <path fill="var(--bar)" d="M802.49,326.22c6.56,0,11.9,5.34,11.9,11.9v464.36c0,6.56-5.34,11.9-11.9,11.9h-174.14c-6.56,0-11.9-5.34-11.9-11.9V338.13c0-6.56,5.34-11.9,11.9-11.9h174.14m0-36h-174.14c-26.46,0-47.9,21.45-47.9,47.9v464.36c0,26.46,21.45,47.9,47.9,47.9h174.14c26.46,0,47.9-21.45,47.9-47.9V338.13c0-26.46-21.45-47.9-47.9-47.9h0Z"/>
</svg>