<?xml version="1.0" encoding="UTF-8"?>
<svg id="Layer_1" data-name="Layer 1" xmlns="http://www.w3.org/2000/svg" viewBox="0 0 489.79 74.55">
  <path d="M0,3.89V70.66c0,2.15,1.74,3.89,3.89,3.89H485.9c2.15,0,3.89-1.74,3.89-3.89V3.89c0-2.15-1.74-3.89-3.89-3.89H3.89C1.74,0,0,1.74,0,3.89ZM54.77,38.74c-.86,2.27-2.12,4.24-3.78,5.92-1.65,1.68-3.72,3.01-6.19,3.99-2.47,.98-5.32,1.47-8.54,1.47h-6.41c-2.15,0-3.89,1.74-3.89,3.89v3.99c0,2.15-1.74,3.89-3.89,3.89h-6.86c-2.15,0-3.89-1.74-3.89-3.89V16.84c0-2.15,1.74-3.89,3.89-3.89h21.04c3.22,0,6.07,.48,8.54,1.43,2.47,.96,4.54,2.28,6.19,3.96,1.66,1.68,2.92,3.65,3.78,5.91,.87,2.27,1.3,4.68,1.3,7.25s-.43,4.98-1.3,7.24Zm59.71,8.58c-1.32,3.17-3.17,5.93-5.53,8.26-2.35,2.33-5.14,4.19-8.36,5.56-3.22,1.38-6.7,2.07-10.43,2.07s-7.21-.69-10.43-2.07c-3.22-1.37-6.01-3.23-8.36-5.56-2.36-2.33-4.21-5.09-5.54-8.26-1.33-3.17-1.99-6.53-1.99-10.08s.66-6.95,1.99-10.08c1.33-3.13,3.18-5.87,5.54-8.23,2.35-2.35,5.14-4.21,8.36-5.56,3.22-1.35,6.7-2.03,10.43-2.03s7.21,.68,10.43,2.03c3.22,1.35,6.01,3.21,8.36,5.56s4.21,5.1,5.53,8.23c1.33,3.13,2,6.49,2,10.08s-.67,6.91-2,10.08Zm44.52,12.97l-7.4-10.12c-.73-1-1.9-1.59-3.14-1.59h-1.77c-2.15,0-3.89,1.74-3.89,3.89v5.53c0,2.15-1.74,3.89-3.89,3.89h-6.86c-2.15,0-3.89-1.74-3.89-3.89V16.84c0-2.15,1.74-3.89,3.89-3.89h23.07c2.8,0,5.35,.47,7.66,1.4s4.27,2.2,5.88,3.81c1.61,1.61,2.86,3.49,3.75,5.64,.89,2.15,1.33,4.46,1.33,6.93,0,3.17-.85,5.98-2.56,8.43-1.03,1.49-2.25,2.81-3.66,3.97-1.57,1.29-1.81,3.6-.62,5.23l5.35,7.35c1.87,2.57,.04,6.17-3.14,6.17h-6.98c-1.24,0-2.4-.59-3.14-1.59ZM223.26,26.53h-7.35c-2.15,0-3.89,1.74-3.89,3.89v27.58c0,2.15-1.74,3.89-3.89,3.89h-6.86c-2.15,0-3.89-1.74-3.89-3.89V30.41c0-2.15-1.74-3.89-3.89-3.89h-7.35c-2.15,0-3.89-1.74-3.89-3.89v-5.81c0-2.15,1.74-3.89,3.89-3.89h37.1c2.15,0,3.89,1.74,3.89,3.89v5.81c0,2.15-1.74,3.89-3.89,3.89Zm53.2-.49h-18.97c-2.15,0-3.89,1.74-3.89,3.89h0c0,2.15,1.74,3.89,3.89,3.89h13.79c2.15,0,3.89,1.74,3.89,3.89v5.32c0,2.15-1.74,3.89-3.89,3.89h-13.79c-2.15,0-3.89,1.74-3.89,3.89v7.21c0,2.15-1.74,3.89-3.89,3.89h-6.86c-2.15,0-3.89-1.74-3.89-3.89V16.84c0-2.15,1.74-3.89,3.89-3.89h33.6c2.15,0,3.89,1.74,3.89,3.89v5.32c0,2.15-1.74,3.89-3.89,3.89Zm61.04,21.28c-1.33,3.17-3.17,5.93-5.52,8.26-2.36,2.33-5.15,4.19-8.37,5.56-3.22,1.38-6.7,2.07-10.43,2.07s-7.21-.69-10.43-2.07c-3.22-1.37-6.01-3.23-8.37-5.56-2.35-2.33-4.19-5.09-5.52-8.26-1.33-3.17-2-6.53-2-10.08s.67-6.95,2-10.08,3.17-5.87,5.52-8.23c2.36-2.35,5.15-4.21,8.37-5.56,3.22-1.35,6.7-2.03,10.43-2.03s7.21,.68,10.43,2.03c3.22,1.35,6.01,3.21,8.37,5.56,2.35,2.36,4.19,5.1,5.52,8.23s2,6.49,2,10.08-.67,6.91-2,10.08Zm45.99,14.56h-28.63c-2.15,0-3.89-1.74-3.89-3.89V16.84c0-2.15,1.74-3.89,3.89-3.89h6.86c2.15,0,3.89,1.74,3.89,3.89v27.51c0,2.15,1.74,3.89,3.89,3.89h14c2.15,0,3.89,1.74,3.89,3.89v5.88c0,2.15-1.74,3.89-3.89,3.89Zm26.18,0h-6.86c-2.15,0-3.89-1.74-3.89-3.89V16.84c0-2.15,1.74-3.89,3.89-3.89h6.86c2.15,0,3.89,1.74,3.89,3.89V57.99c0,2.15-1.74,3.89-3.89,3.89Zm66.78-14.56c-1.33,3.17-3.17,5.93-5.53,8.26-2.35,2.33-5.14,4.19-8.36,5.56-3.22,1.38-6.7,2.07-10.43,2.07s-7.21-.69-10.43-2.07c-3.22-1.37-6.01-3.23-8.37-5.56-2.35-2.33-4.2-5.09-5.53-8.26-1.33-3.17-1.99-6.53-1.99-10.08s.66-6.95,1.99-10.08,3.18-5.87,5.53-8.23c2.36-2.35,5.15-4.21,8.37-5.56,3.22-1.35,6.7-2.03,10.43-2.03s7.21,.68,10.43,2.03c3.22,1.35,6.01,3.21,8.36,5.56,2.36,2.36,4.2,5.1,5.53,8.23,1.33,3.13,2,6.49,2,10.08s-.67,6.91-2,10.08Z"/>
</svg>