<?xml version="1.0" encoding="UTF-8"?>
<svg id="Layer_5" data-name="Layer 5" xmlns="http://www.w3.org/2000/svg" viewBox="0 0 850.41 850.41">
  <defs>
    <style>
      .cls-1 {
        fill: #231f20;
      }
    </style>
  </defs>
  <path class="cls-1" d="M225.81,650.38l151.59-151.59c5.53-5.53,12.83-8.21,20.07-8.05,.31-.03,55.15-.03,55.46,0,7.22-.18,14.53,2.51,20.06,8.03l151.6,151.6c10.76,10.76,10.76,28.22,0,38.98l-37.86,37.86c-10.77,10.77-28.22,10.76-38.98,0l-68.22-68.22v163.87c0,15.2-12.35,27.55-27.55,27.55h-53.56c-15.21,.01-27.56-12.33-27.55-27.55v-163.87s-68.22,68.22-68.22,68.22c-10.76,10.76-28.22,10.76-38.98,0l-37.86-37.86c-10.76-10.76-10.76-28.22,0-38.98Z"/>
  <path class="cls-1" d="M180.54,236.76c1.32,0,3.87,.33,6.05,2.51l151.59,151.59c2.24,2.24,2.52,4.84,2.49,6.2l-.02,1.08,.03,.28c.02,6,.02,47.6,0,53.6l-.03,.3,.03,1.1c.03,1.34-.24,3.92-2.47,6.15l-151.6,151.6c-2.18,2.18-4.73,2.51-6.05,2.51s-3.87-.33-6.05-2.51l-37.86-37.86c-2.18-2.18-2.51-4.73-2.51-6.05,0-1.32,.33-3.87,2.51-6.05l67.37-67.37c5.6-5.6,7.25-13.94,4.23-21.25-3.03-7.31-10.1-12.04-18.01-12.04H27.55c-4.71,0-8.55-3.83-8.55-8.55v-53.58c0-3.07,1.56-5.09,2.5-6.03,.93-.93,2.96-2.5,6.05-2.5H190.22c7.91,0,14.98-4.72,18.01-12.04,3.03-7.31,1.37-15.65-4.23-21.25l-67.37-67.37c-3.34-3.34-3.34-8.77,0-12.11l37.86-37.86c2.18-2.18,4.73-2.51,6.05-2.51m0-19c-7.05,0-14.11,2.69-19.49,8.07l-37.86,37.86c-10.76,10.76-10.76,28.21,0,38.98l67.37,67.37c.31,.31,.09,.85-.35,.85H27.55s-.02,0-.03,0C12.32,370.89-.01,383.23,0,398.44v53.56C0,467.2,12.35,479.55,27.55,479.55H190.22c.44,0,.66,.54,.35,.85l-67.37,67.37c-10.76,10.76-10.77,28.2,0,38.98l37.86,37.86c5.38,5.38,12.43,8.07,19.49,8.07s14.11-2.69,19.49-8.07l151.6-151.6c5.53-5.53,8.21-12.83,8.03-20.06,.03-.31,.03-55.15,0-55.46,.17-7.24-2.52-14.55-8.05-20.07L200.03,225.83c-5.38-5.38-12.43-8.07-19.49-8.07h0Z"/>
  <path class="cls-1" d="M650.36,624.6l-151.59-151.59c-5.53-5.53-8.21-12.83-8.05-20.07-.03-.31-.03-55.15,0-55.46-.18-7.22,2.51-14.53,8.03-20.06l151.6-151.6c10.76-10.76,28.22-10.76,38.98,0l37.86,37.86c10.77,10.77,10.76,28.22,0,38.98l-68.22,68.22h163.87c15.2,0,27.55,12.35,27.55,27.55v53.56c.01,15.21-12.33,27.56-27.55,27.55h-163.87s68.22,68.22,68.22,68.22c10.76,10.76,10.76,28.22,0,38.98l-37.86,37.86c-10.76,10.76-28.22,10.76-38.98,0Z"/>
  <path class="cls-1" d="M624.58,200.05l-151.59,151.59c-5.53,5.53-12.83,8.21-20.07,8.05-.31,.03-55.15,.03-55.46,0-7.22,.18-14.53-2.51-20.06-8.03L225.81,200.05c-10.76-10.76-10.76-28.22,0-38.98l37.86-37.86c10.77-10.77,28.22-10.76,38.98,0l68.22,68.22V27.57c0-15.2,12.35-27.55,27.55-27.55h53.56c15.21-.01,27.56,12.33,27.55,27.55V191.43s68.22-68.22,68.22-68.22c10.76-10.76,28.22-10.76,38.98,0l37.86,37.86c10.76,10.76,10.76,28.22,0,38.98Z"/>
</svg>