<?xml version="1.0" encoding="UTF-8"?>
<svg id="Layer_1" data-name="Layer 1" xmlns="http://www.w3.org/2000/svg" viewBox="0 0 1696.6 1696.84">
  <defs>
    <style>
      .cls-1 {
        fill: #848d97;
        stroke-width: 0px;
      }
    </style>
  </defs>
  <path class="cls-1" d="M722.8,0h251.1c3.4.7,6.9,1.4,10.3,2.2,38.7,9.2,65.1,42.6,65.2,82.4v37.5c59.7,16.6,116.4,40.1,170.3,70.6,8.8-8.8,17.3-17.4,25.9-26,15.9-15.8,35.2-24.4,57.6-25,24.6-.6,45.5,8.3,62.8,25.7,44.2,44.2,88.4,88.4,132.6,132.6,11.2,11.2,22.6,22.2,33.5,33.7,14.8,15.5,22.3,34.2,22.8,55.5.5,23.8-7.9,44.2-24.5,61.2-8.7,8.9-17.6,17.6-26.5,26.5,30.6,54,54.1,110.7,70.6,170.3,12.4,0,24.4-.1,36.4.1,5.5.1,11.1.3,16.4,1.3,41.4,7.9,69.3,41.8,69.3,84.1v229.5c0,4.9-.3,9.9-.8,14.8-3.9,35.9-35.8,68.1-71.8,71.4-14.7,1.3-29.6.7-44.5,1h-5c-16.6,59.9-40.1,116.4-70.6,170.3,9.2,9.1,18.2,18,27.2,27.1,32.8,33.4,32.9,85.5-.1,118.6-54.8,55.1-109.8,110.1-164.9,165-34.1,33.9-85.9,33.7-120.2-.1l-23.4-23.4c-1-1-2-1.9-3-2.8-27,15.3-54.5,28.7-82.8,40.5-28.4,11.8-57.5,21.7-87.3,30.1,0,12.2.2,24.1-.1,35.9-.2,7-.6,14.2-2.2,21-9,38.8-42.4,65.1-82.3,65.2-77.6.1-155.2,0-232.9,0-3.8,0-7.6-.3-11.4-.8-35-3.8-65.7-32.1-71.4-66.8-1.9-11.5-1.4-23.3-1.8-35.1-.2-6.4,0-12.9,0-19.5-29.9-8.3-58.9-18.2-87.2-30-28.5-11.8-56.1-25.3-83.1-40.6-8.9,8.9-17.6,17.7-26.5,26.5-34.4,34-86.2,34.1-120.4,0-54.7-54.5-109.3-109.1-163.8-163.8-34.2-34.3-34.2-86-.2-120.4,7.9-7.9,15.8-15.8,23.7-23.7,1-1,1.9-2,2.8-3-30.6-54-54-110.6-70.5-170.1-13,0-25.7.1-38.4,0-38-.3-70.7-25.3-80.7-61.9-1.2-4.5-2-9-3-13.6v-251.1c.7-3.4,1.3-6.9,2.1-10.3,9.1-38.5,42.4-65,82-65.2,12.6-.1,25.2,0,38,0,16.5-59.7,40-116.3,70.6-170.3-9-9-17.8-17.7-26.6-26.5-33.4-33.7-33.6-86-.1-119.5,54.7-54.9,109.5-109.6,164.3-164.3,34.4-34.3,86.2-34.1,120.8.1,7.7,7.7,15.4,15.4,23.1,23.1,1,1,2,1.9,3,2.8,53.9-30.5,110.5-54,170.1-70.5v-38.4c.2-38.8,26.6-72.2,64.4-81.3,3.7-1.1,7.4-1.8,11.1-2.6h0ZM611.3,1037.3c-36.1-45.7-57.6-97.6-64.3-155.6h-154c8,100.2,44.4,188.3,109.4,264.5,36.5-36.5,72.5-72.5,108.9-108.9h0ZM815.1,1149.7c-58.4-6.8-110.2-28.3-155.4-64-36.5,36.4-72.6,72.6-108.9,108.9,76.1,64.7,164.1,101.1,264.3,109.1v-154h0ZM1085.8,1036.8l108.9,108.9c64.5-75.9,100.9-163.9,108.9-264h-154c-6.6,58-28.1,109.7-63.8,155.1h0ZM659.8,611c45.7-35.9,97.4-57.3,155.2-64v-154c-100.2,8-188.1,44.4-264.1,109,36.4,36.6,72.5,72.6,108.9,109h0ZM882.5,1303c32,2.2,113.6-19.1,162.5-42.5,36.8-17.6,70.7-39.8,101.4-66.5-36.5-36.5-72.6-72.5-108.8-108.8-45.4,36-97.3,57.6-155.1,64.4v153.4h0ZM502.4,550.6c-36.2,41.9-64.1,89.2-83.2,141.6-14.4,39.4-23,80.1-26,122h153.9c6.9-57.9,28.4-109.6,64.2-154.8-36.3-36.3-72.5-72.4-108.9-108.8h0ZM1194.5,550.8l-108.9,108.9c35.7,45.2,57.1,96.8,64,154.5h153.9c-3.2-43.9-12.4-86.2-27.9-127.1-19-50.3-46.2-95.7-81.1-136.3h0ZM882.4,547.1c58,6.9,109.5,28.4,154.6,64,36.4-36.4,72.5-72.5,108.9-108.9-75.9-64.5-163.7-101-263.6-109.1l.1,154h0ZM939.2,848.3c0-50.2-40.6-90.8-90.9-90.8s-90.9,40.6-90.9,90.8c-.1,50.4,40.7,91.2,91.1,91,50.3-.1,90.8-40.8,90.7-91h0Z"/>
</svg>