<?xml version="1.0" encoding="UTF-8"?>
<svg id="Layer_38" data-name="Layer 38" xmlns="http://www.w3.org/2000/svg" viewBox="0 0 972.61 1023.06">
  <defs>
    <style>
      .cls-1 {
        fill: #231f20;
        stroke-width: 0px;
      }
    </style>
  </defs>
  <path class="cls-1" d="M546.91,296.04c18.87,0,37.74,9.34,48.53,28.02l141.9,245.78,141.9,245.78c21.57,37.36-5.39,84.05-48.53,84.05H263.11c-43.14,0-70.1-46.7-48.53-84.05l141.9-245.78,141.9-245.78c10.78-18.68,29.66-28.02,48.53-28.02M546.91,210.77c-24.02,0-47.75,6.12-68.64,17.69-22.29,12.35-40.87,30.67-53.74,52.96l-141.9,245.78-141.9,245.78c-12.87,22.29-19.44,47.55-18.99,73.02.42,23.88,6.99,47.49,18.99,68.29,12.01,20.8,29.17,38.29,49.64,50.59,21.84,13.12,46.99,20.06,72.74,20.06h567.61c25.74,0,50.89-6.94,72.74-20.06,20.47-12.3,37.63-29.79,49.64-50.59,12.01-20.8,18.58-44.41,18.99-68.29.45-25.48-6.12-50.73-18.99-73.02l-141.9-245.78-141.9-245.78c-12.87-22.29-31.46-40.61-53.74-52.96-20.89-11.58-44.62-17.69-68.64-17.69h0Z"/>
  <g>
    <rect class="cls-1" x="504.38" y="403.33" width="85.06" height="287.8" rx="31.36" ry="31.36"/>
    <rect class="cls-1" x="504.38" y="754.08" width="85.06" height="84.94" rx="31.36" ry="31.36" transform="translate(-249.63 1343.46) rotate(-90)"/>
  </g>
</svg>