<?xml version="1.0" encoding="UTF-8"?>
<svg xmlns="http://www.w3.org/2000/svg" viewBox="0 0 850.89 850.9">
  <path d="M425.2,123.88c18.87,0,37.74,9.34,48.53,28.02l141.9,245.78,141.9,245.78c21.57,37.36-5.39,84.05-48.53,84.05H141.39c-43.14,0-70.1-46.7-48.53-84.05l141.9-245.78,141.9-245.78c10.78-18.68,29.66-28.02,48.53-28.02M425.2,38.61c-24.02,0-47.75,6.12-68.64,17.69-22.29,12.35-40.87,30.67-53.74,52.96l-141.9,245.78L19.02,600.82C6.14,623.12-.42,648.37.02,673.85c.42,23.88,6.99,47.49,18.99,68.29,12.01,20.8,29.17,38.29,49.64,50.59,21.84,13.12,46.99,20.06,72.74,20.06h567.61c25.74,0,50.89-6.94,72.74-20.06,20.47-12.3,37.63-29.79,49.64-50.59,12.01-20.8,18.58-44.41,18.99-68.29.45-25.48-6.12-50.73-18.99-73.02l-141.9-245.78-141.9-245.78c-12.87-22.29-31.46-40.61-53.74-52.96-20.89-11.58-44.62-17.69-68.64-17.69h0Z"/>
  <g>
    <rect x="382.67" y="231.17" width="85.06" height="287.8" rx="31.36" ry="31.36"/>
    <rect x="382.67" y="581.92" width="85.06" height="84.94" rx="31.36" ry="31.36" transform="translate(-199.19 1049.58) rotate(-90)"/>
  </g>
</svg>