<?xml version="1.0" encoding="UTF-8"?>
<svg id="Layer_38" data-name="Layer 38" xmlns="http://www.w3.org/2000/svg" viewBox="0 0 972.61 1023.06">
  <defs>
    <style>
      .cls-1 {
        fill: #010101;
      }

      .cls-1, .cls-2 {
        stroke-width: 0px;
      }

      .cls-2 {
        fill: #231f20;
      }
    </style>
  </defs>
  <path class="cls-2" d="M546.91,300.55c18.59,0,37.18,9.2,47.8,27.6l139.78,242.11,139.78,242.11c21.25,36.8-5.31,82.8-47.8,82.8H267.35c-42.49,0-69.05-46-47.8-82.8l139.78-242.11,139.78-242.11c10.62-18.4,29.21-27.6,47.8-27.6M546.91,216.55c-23.66,0-47.04,6.03-67.61,17.43-21.95,12.17-40.26,30.21-52.94,52.17l-139.78,242.11-139.78,242.11c-12.68,21.96-19.15,46.84-18.71,71.93.41,23.52,6.88,46.78,18.71,67.27,11.83,20.49,28.74,37.72,48.9,49.84,21.51,12.93,46.29,19.76,71.65,19.76h559.13c25.36,0,50.14-6.83,71.65-19.76,20.16-12.12,37.07-29.35,48.9-49.84,11.83-20.49,18.3-43.75,18.71-67.27.44-25.1-6.03-49.97-18.71-71.93l-139.78-242.11-139.78-242.11c-12.68-21.96-30.99-40-52.94-52.17-20.57-11.4-43.95-17.43-67.61-17.43h0Z"/>
  <g>
    <rect class="cls-1" x="505.02" y="406.24" width="83.79" height="283.51" rx="31.36" ry="31.36"/>
    <rect class="cls-1" x="505.02" y="751.75" width="83.79" height="83.67" rx="31.36" ry="31.36" transform="translate(-246.67 1340.49) rotate(-90)"/>
  </g>
</svg>