<?xml version="1.0" encoding="UTF-8"?>
<svg id="Layer_5" data-name="Layer 5" xmlns="http://www.w3.org/2000/svg" viewBox="0 0 850.41 849.97">
  <defs>
    <style>
      .cls-1 {
        fill: #231f20;
      }
    </style>
  </defs>
  <path class="cls-1" d="M16.56,384.82L327.26,74.13c11.33-11.33,26.3-16.83,41.14-16.5,.64-.06,113.03-.06,113.67,0,14.8-.37,29.78,5.14,41.11,16.46l310.7,310.74c22.05,22.05,22.05,57.84,0,79.89l-77.6,77.6c-22.07,22.07-57.84,22.05-79.89,0l-139.82-139.82v335.84c0,31.15-25.31,56.47-56.47,56.47h-109.78c-31.17,.02-56.49-25.27-56.47-56.47V402.49s-139.82,139.82-139.82,139.82c-22.05,22.05-57.84,22.05-79.89,0L16.54,464.71c-22.05-22.05-22.05-57.84,0-79.89h.02Z"/>
</svg>