<?xml version="1.0" encoding="UTF-8"?>
<svg id="Layer_5" data-name="Layer 5" xmlns="http://www.w3.org/2000/svg" viewBox="0 0 737.24 851.39">
  <defs>
    <style>
      .cls-1 {
        fill: #231f20;
      }
    </style>
  </defs>
  <path class="cls-1" d="M409.98,17.54l310.7,310.7c11.33,11.33,16.83,26.3,16.5,41.14,.06,.64,.06,113.03,0,113.67,.37,14.8-5.14,29.78-16.46,41.11l-310.74,310.7c-22.05,22.05-57.84,22.05-79.89,0l-77.6-77.6c-22.07-22.07-22.05-57.84,0-79.89l139.82-139.82H56.47C25.31,537.54,0,512.23,0,481.08v-109.78c-.02-31.17,25.27-56.49,56.47-56.47H392.31S252.49,175.01,252.49,175.01c-22.05-22.05-22.05-57.84,0-79.89L330.08,17.52c22.05-22.05,57.84-22.05,79.89,0v.02Z"/>
</svg>