<?xml version="1.0" encoding="UTF-8"?>
<svg id="Layer_54" data-name="Layer 54" xmlns="http://www.w3.org/2000/svg" viewBox="0 0 850.89 850.9">
  <defs>
    <style>
      .cls-1 {
        fill: #231f20;
        stroke-width: 0px;
      }
    </style>
  </defs>
  <path class="cls-1" d="M79.26,368.23c-12.6-12.6-12.6-33.02,0-45.62L365.94,35.92l18.57-18.57c22.47-22.46,58.89-22.46,81.35,0l18.57,18.57,286.69,286.69c12.6,12.6,12.6,33.03,0,45.62l-13.63,13.63c-12.6,12.6-33.03,12.6-45.62,0l-231.7-231.7c-4.83-4.83-13.09-1.41-13.09,5.42v663.05c0,17.82-14.45,32.26-32.26,32.26h-19.27c-17.82,0-32.26-14.44-32.26-32.26V155.57c0-6.83-8.26-10.25-13.09-5.42l-231.7,231.71c-12.6,12.6-33.03,12.6-45.62,0l-13.63-13.63Z"/>
</svg>