<?xml version="1.0" encoding="UTF-8"?>
<svg id="Layer_54" data-name="Layer 54" xmlns="http://www.w3.org/2000/svg" viewBox="0 0 850.9 850.9">
  <defs>
    <style>
      .cls-1 {
        fill: #231f20;
        stroke-width: 0px;
      }
    </style>
  </defs>
  <path class="cls-1" d="M482.67,79.76c12.6-12.6,33.02-12.6,45.62,0l286.69,286.68,18.57,18.57c22.46,22.47,22.46,58.89,0,81.35l-18.57,18.57-286.69,286.69c-12.6,12.6-33.03,12.6-45.62,0l-13.63-13.63c-12.6-12.6-12.6-33.03,0-45.62l231.7-231.7c4.83-4.83,1.41-13.09-5.42-13.09H32.26c-17.82,0-32.26-14.45-32.26-32.26v-19.27c0-17.82,14.44-32.26,32.26-32.26h663.06c6.83,0,10.25-8.26,5.42-13.09l-231.71-231.7c-12.6-12.6-12.6-33.03,0-45.62l13.63-13.63Z"/>
</svg>