<?xml version="1.0" encoding="UTF-8"?>
<svg id="Layer_1" data-name="Layer 1" xmlns="http://www.w3.org/2000/svg" viewBox="0 0 850.4 850.39">
  <path d="M761.78,268.94h0c48.94,0,88.62,39.68,88.62,88.62v135.27c0,48.94-39.68,88.62-88.62,88.62h0c-48.94,0-88.62-39.68-88.62-88.62v-135.27c0-48.94,39.68-88.62,88.62-88.62Z"/>
  <path d="M312.01,268.94h0c48.94,0,88.62,39.68,88.62,88.62v135.27c0,48.94-39.68,88.62-88.62,88.62h0c-48.94,0-88.62-39.68-88.62-88.62v-135.27c0-48.94,39.68-88.62,88.62-88.62Z"/>
  <path d="M538.39,59.66h0c48.94,0,88.62,39.68,88.62,88.62V702.11c0,48.94-39.68,88.62-88.62,88.62h0c-48.94,0-88.62-39.68-88.62-88.62V148.28c0-48.94,39.68-88.62,88.62-88.62Z"/>
  <path d="M88.62,0h0c48.94,0,88.62,39.68,88.62,88.62V761.77c0,48.94-39.68,88.62-88.62,88.62h0c-48.94,0-88.62-39.68-88.62-88.62V88.62C0,39.68,39.68,0,88.62,0Z"/>
</svg>