<?xml version="1.0" encoding="UTF-8"?>
<svg id="Layer_72" data-name="Layer 72" xmlns="http://www.w3.org/2000/svg" viewBox="0 0 850.91 850.91">
  <defs>
    <style>
      .cls-1 {
        fill: #010101;
      }

      .cls-1, .cls-2 {
        stroke-width: 0px;
      }

      .cls-2 {
        fill: #231f20;
      }
    </style>
  </defs>
  <g>
    <path class="cls-1" d="M654.85,174.32l-561.98-.06C41.68,174.26.18,215.75.18,266.94v317.39c0,51.19,41.5,92.69,92.69,92.69l561.98.06c51.19,0,92.68-41.5,92.68-92.69v-317.39c0-51.19-41.49-92.68-92.68-92.68ZM663.9,553.39c0,22.08-17.9,39.97-39.98,39.97l-500.13-.06c-22.08,0-39.98-17.89-39.98-39.97v-255.38c0-22.08,17.9-39.98,39.98-39.98l500.13.06c22.08,0,39.98,17.9,39.98,39.98v255.38Z"/>
    <path class="cls-2" d="M580.1,361v129.39c0,10.64-8.62,19.26-19.25,19.26l-373.98-.06c-10.64,0-19.26-8.62-19.26-19.26v-129.39c0-10.63,8.62-19.26,19.26-19.26l373.98.06c10.63,0,19.25,8.63,19.25,19.26Z"/>
  </g>
  <rect class="cls-1" x="766.78" y="325.29" width="83.63" height="200.82" rx="28.95" ry="28.95"/>
</svg>