<?xml version="1.0" encoding="UTF-8"?>
<svg id="Layer_73" data-name="Layer 73" xmlns="http://www.w3.org/2000/svg" viewBox="0 0 850.91 850.91">
  <defs>
    <style>
      .cls-1 {
        fill: #010101;
      }

      .cls-1, .cls-2 {
        stroke-width: 0px;
      }

      .cls-2 {
        fill: #231f20;
      }
    </style>
  </defs>
  <g>
    <path class="cls-1" d="M654.77,174.35l-561.98-.06C41.6,174.29.1,215.78.1,266.97v317.39c0,51.19,41.5,92.69,92.69,92.69l561.98.06c51.19,0,92.68-41.5,92.68-92.69v-317.39c0-51.19-41.49-92.68-92.68-92.68ZM663.82,553.41c0,22.08-17.9,39.97-39.98,39.97l-500.13-.06c-22.08,0-39.98-17.89-39.98-39.97v-255.38c0-22.08,17.9-39.98,39.98-39.98l500.13.06c22.08,0,39.98,17.9,39.98,39.98v255.38Z"/>
    <path class="cls-2" d="M373.78,361v129.39c0,10.64-8.62,19.26-19.25,19.26l-167.74-.02c-10.64,0-19.26-8.62-19.26-19.26v-129.39c0-10.63,8.62-19.26,19.26-19.26l167.74.02c10.63,0,19.25,8.63,19.25,19.26Z"/>
  </g>
  <rect class="cls-1" x="766.7" y="325.32" width="83.63" height="200.82" rx="28.95" ry="28.95"/>
</svg>