<?xml version="1.0" encoding="UTF-8"?>
<svg id="Layer_36" data-name="Layer 36" xmlns="http://www.w3.org/2000/svg" viewBox="0 0 850.89 850.9">
  <defs>
    <style>
      .cls-1 {
        fill: #010101;
        stroke-width: 0px;
      }
    </style>
  </defs>
  <rect class="cls-1" x="383.3" y="342.52" width="83.79" height="849.5" rx="31.36" ry="31.36" transform="translate(1192.47 342.08) rotate(90)"/>
  <path class="cls-1" d="M178.89,42.23h-86.2C41.5,42.23,0,83.72,0,134.91v481.61C0,667.71,41.5,709.21,92.69,709.21h86.2c51.19,0,92.68-41.5,92.68-92.69V134.91c0-51.19-41.49-92.68-92.68-92.68ZM187.94,585.52c0,22.08-17.9,39.97-39.98,39.97h-24.35c-22.08,0-39.98-17.89-39.98-39.97V165.92c0-22.08,17.9-39.98,39.98-39.98h24.35c22.08,0,39.98,17.9,39.98,39.98v419.6Z"/>
  <path class="cls-1" d="M468.3,287.66h-86.2c-51.19,0-92.69,41.49-92.69,92.68v236.18c0,51.19,41.5,92.69,92.69,92.69h86.2c51.19,0,92.68-41.5,92.68-92.69v-236.18c0-51.19-41.49-92.68-92.68-92.68ZM477.35,585.52c0,22.08-17.9,39.97-39.98,39.97h-24.35c-22.08,0-39.98-17.89-39.98-39.97v-174.17c0-22.08,17.9-39.98,39.98-39.98h24.35c22.08,0,39.98,17.9,39.98,39.98v174.17Z"/>
  <path class="cls-1" d="M757.71,163.96h-86.2c-51.19,0-92.69,41.49-92.69,92.68v359.87c0,51.19,41.5,92.69,92.69,92.69h86.2c51.19,0,92.68-41.5,92.68-92.69v-359.87c0-51.19-41.49-92.68-92.68-92.68ZM766.76,585.52c0,22.08-17.9,39.97-39.98,39.97h-24.35c-22.08,0-39.98-17.89-39.98-39.97v-297.86c0-22.08,17.9-39.98,39.98-39.98h24.35c22.08,0,39.98,17.9,39.98,39.98v297.86Z"/>
</svg>