<?xml version="1.0" encoding="UTF-8"?>
<svg id="Layer_34" data-name="Layer 34" xmlns="http://www.w3.org/2000/svg" viewBox="0 0 850.89 850.9">
  <defs>
    <style>
      .cls-1 {
        fill: #010101;
        stroke-width: 0px;
      }
    </style>
  </defs>
  <path class="cls-1" d="M757.55,92.21H92.85C41.66,92.21.16,133.7.16,184.89v481.61c0,51.19,41.5,92.69,92.69,92.69h664.7c51.19,0,92.68-41.5,92.68-92.69V184.89c0-51.19-41.49-92.68-92.68-92.68ZM766.6,635.5c0,22.08-17.9,39.97-39.98,39.97H123.77c-22.08,0-39.98-17.89-39.98-39.97v-290.08c0-22.08,17.9-39.98,39.98-39.98h602.85c22.08,0,39.98,17.9,39.98,39.98v290.08Z"/>
</svg>