<?xml version="1.0" encoding="UTF-8"?>
<svg id="Layer_34" data-name="Layer 34" xmlns="http://www.w3.org/2000/svg" viewBox="0 0 850.89 850.9">
  <defs>
    <style>
      .cls-1 {
        fill: #010101;
        stroke-width: 0px;
      }
    </style>
  </defs>
  <path class="cls-1" d="M757.55,69.03H92.85C41.66,69.03.16,110.52.16,161.71v527.96c0,51.19,41.5,92.69,92.69,92.69h664.7c51.19,0,92.68-41.5,92.68-92.69V161.71c0-51.19-41.49-92.68-92.68-92.68ZM766.6,658.67c0,22.08-17.9,39.97-39.98,39.97H123.77c-22.08,0-39.98-17.89-39.98-39.97v-336.43c0-22.08,17.9-39.98,39.98-39.98h602.85c22.08,0,39.98,17.9,39.98,39.98v336.43Z"/>
</svg>