<?xml version="1.0" encoding="UTF-8"?>
<svg id="Layer_35" data-name="Layer 35" xmlns="http://www.w3.org/2000/svg" viewBox="0 0 850.89 850.9">
  <defs>
    <style>
      .cls-1 {
        fill: #010101;
        stroke-width: 0px;
      }
    </style>
  </defs>
  <path class="cls-1" d="M757.63.5H92.77C41.58.5.08,41.99.08,93.18v665.02c0,51.19,41.5,92.69,92.69,92.69h664.86c51.19,0,92.68-41.5,92.68-92.69V93.18c0-51.19-41.49-92.68-92.68-92.68ZM383.3,727.2c0,22.08-17.9,39.97-39.98,39.97H123.69c-22.08,0-39.98-17.89-39.98-39.97v-65.37h89.03c17.62,0,31.9-14.29,31.9-31.9v-19.84c0-17.61-14.28-31.89-31.9-31.89h-89.03v-305h89.03c17.62,0,31.9-14.28,31.9-31.9v-19.83c0-17.62-14.28-31.9-31.9-31.9h-89.03v-65.38c0-22.08,17.9-39.98,39.98-39.98h219.63c22.08,0,39.98,17.9,39.98,39.97v603.02ZM766.68,189.56h-89.19c-17.62,0-31.9,14.29-31.9,31.9v19.83c0,17.62,14.28,31.9,31.9,31.9h89.19v305h-89.19c-17.62,0-31.9,14.28-31.9,31.9v19.83c0,17.62,14.28,31.9,31.9,31.9h89.19v65.38c0,22.08-17.9,39.97-39.98,39.97h-219.63c-22.08.01-39.98-17.88-39.98-39.96V124.19c0-22.08,17.9-39.98,39.98-39.98h219.63c22.08,0,39.98,17.9,39.98,39.98v65.37Z"/>
</svg>