<?xml version="1.0" encoding="UTF-8"?>
<svg id="Layer_49" data-name="Layer 49" xmlns="http://www.w3.org/2000/svg" viewBox="0 0 850.9 850.9">
  <defs>
    <style>
      .cls-1 {
        fill: #231f20;
        stroke-width: 0px;
      }
    </style>
  </defs>
  <path class="cls-1" d="M658.55,304.04h0c16.36,16.36,16.36,42.89,0,59.25l-243.29,243.29c-25.22,25.22-66.11,25.22-91.33,0l-132.09-132.09c-16.36-16.36-16.36-42.89,0-59.25h0c16.36-16.36,42.89-16.36,59.25,0l113.94,113.94c2.52,2.52,6.61,2.52,9.13,0l225.14-225.14c16.36-16.36,42.89-16.36,59.25,0Z"/>
  <path class="cls-1" d="M425.2,84.5c46.1,0,90.77,9.01,132.78,26.78,40.62,17.18,77.12,41.79,108.48,73.16,31.36,31.36,55.97,67.86,73.16,108.48,17.77,42.01,26.78,86.69,26.78,132.78s-9.01,90.77-26.78,132.78c-17.18,40.62-41.79,77.12-73.16,108.48-31.36,31.36-67.86,55.97-108.48,73.16-42.01,17.77-86.69,26.78-132.78,26.78s-90.77-9.01-132.78-26.78c-40.62-17.18-77.12-41.79-108.48-73.16-31.36-31.36-55.97-67.86-73.16-108.48-17.77-42.01-26.78-86.69-26.78-132.78s9.01-90.77,26.78-132.78c17.18-40.62,41.79-77.12,73.16-108.48,31.36-31.36,67.86-55.97,108.48-73.16,42.01-17.77,86.69-26.78,132.78-26.78M425.2.5h0C190.37.5,0,190.87,0,425.7H0C0,660.53,190.37,850.89,425.2,850.89h0c234.83,0,425.2-190.37,425.2-425.2h0C850.4,190.87,660.03.5,425.2.5h0Z"/>
</svg>