<?xml version="1.0" encoding="UTF-8"?>
<svg id="Layer_81" data-name="Layer 81" xmlns="http://www.w3.org/2000/svg" viewBox="0 0 850.91 850.91">
  <defs>
    <style>
      .cls-1 {
        fill: #010101;
        stroke-width: 0px;
      }
    </style>
  </defs>
  <path class="cls-1" d="M794.22,758.05V93.35c0-51.19-41.49-92.69-92.68-92.69H148.9c-51.19,0-92.69,41.5-92.69,92.69v664.7c0,51.19,41.5,92.68,92.69,92.68h552.64c51.19,0,92.68-41.49,92.68-92.68ZM179.9,767.1c-22.08,0-39.97-17.9-39.97-39.98V124.27c0-22.08,17.89-39.98,39.97-39.98h490.63c22.08,0,39.98,17.9,39.98,39.98v602.85c0,22.08-17.9,39.98-39.98,39.98H179.9Z"/>
  <rect class="cls-1" x="383.36" y="-4.95" width="83.71" height="429.62" rx="41.85" ry="41.85" transform="translate(635.07 -215.36) rotate(90)"/>
  <rect class="cls-1" x="394.17" y="214.24" width="62.09" height="273.51" rx="31.04" ry="31.04" transform="translate(776.21 -74.23) rotate(90)"/>
  <rect class="cls-1" x="394.17" y="254.8" width="62.09" height="403.17" rx="31.04" ry="31.04" transform="translate(881.6 31.17) rotate(90)"/>
  <rect class="cls-1" x="394.17" y="452.37" width="62.09" height="218.83" rx="31.04" ry="31.04" transform="translate(987 136.57) rotate(90)"/>
  <rect class="cls-1" x="394.17" y="496.61" width="62.09" height="341.14" rx="31.04" ry="31.04" transform="translate(1092.4 241.97) rotate(90)"/>
</svg>