<?xml version="1.0" encoding="UTF-8"?>
<svg id="Layer_96" data-name="Layer 96" xmlns="http://www.w3.org/2000/svg" viewBox="0 0 850.91 850.91">
  <defs>
    <style>
      .cls-1 {
        fill: #010101;
      }

      .cls-1, .cls-2 {
        stroke-width: 0px;
      }

      .cls-2 {
        fill: #231f20;
      }
    </style>
  </defs>
  <path class="cls-1" d="M682.41,416.63v310.57c0,22.08-17.9,39.98-39.98,39.98H151.8c-22.07,0-39.97-17.9-39.97-39.97V124.35c0-22.08,17.9-39.98,39.98-39.98h269.31c13.79,0,26.6-7.18,33.77-18.96,7.62-12.51,16.46-24.21,26.34-34.92,10.48-11.36,2.42-29.75-13.04-29.75H120.8c-51.19,0-92.69,41.5-92.69,92.69v664.7c0,51.19,41.49,92.68,92.68,92.68h552.65c51.19,0,92.68-41.49,92.68-92.68v-372.11c0-10.03-10.68-16.53-19.53-11.8-14.27,7.62-29.49,13.71-45.42,18.06-11.03,3.01-18.76,12.92-18.76,24.35Z"/>
  <path class="cls-1" d="M428.07,227.58c2.75,12.44-6.78,24.21-19.52,24.21h-184.39c-11.56,0-22.02-4.69-29.6-12.26-7.5-7.5-12.17-17.84-12.25-29.28-.17-23.2,19.4-42.17,42.6-42.17h186.22c6.46,0,11.74,5.28,11.74,11.74h0c0,16.4,1.79,32.38,5.19,47.76Z"/>
  <path class="cls-1" d="M511.38,356.32c10.92,8.16,5.41,25.65-8.22,25.79-.11,0-.22,0-.33,0h-211.42c-8.57,0-16.34-3.47-21.96-9.09-5.77-5.78-9.28-13.82-9.08-22.68.39-16.96,14.69-30.31,31.66-30.31h163.62c10.72,0,20.98,4.36,28.4,12.1,8.42,8.79,17.56,16.89,27.33,24.19Z"/>
  <rect class="cls-1" x="366.08" y="254.88" width="62.09" height="403.17" rx="31.04" ry="31.04" transform="translate(853.59 59.35) rotate(90)"/>
  <rect class="cls-1" x="366.08" y="452.45" width="62.09" height="218.83" rx="31.04" ry="31.04" transform="translate(958.99 164.75) rotate(90)"/>
  <rect class="cls-1" x="366.08" y="496.69" width="62.09" height="341.14" rx="31.04" ry="31.04" transform="translate(1064.39 270.14) rotate(90)"/>
  <path class="cls-2" d="M793.83,137.93h-32.03c-.84-2.4-1.76-4.77-2.76-7.13-.76-1.79-1.55-3.56-2.39-5.3l22.65-22.65c11.13-11.12,11.13-29.16,0-40.29l-18.95-18.95c-11.13-11.13-29.17-11.13-40.3,0l-22.64,22.64c-1.74-.84-3.51-1.63-5.3-2.39-2.36-1-4.74-1.92-7.14-2.76V29.08c0-15.74-12.76-28.5-28.49-28.5h-26.8c-15.74,0-28.5,12.76-28.5,28.5v32.02c-2.4.84-4.77,1.76-7.13,2.76-1.79.76-3.56,1.55-5.31,2.39l-22.64-22.64c-11.12-11.13-29.16-11.13-40.29,0l-18.95,18.95c-11.13,11.13-11.13,29.17,0,40.29l22.64,22.64c-.84,1.75-1.63,3.52-2.39,5.31-1,2.36-1.92,4.73-2.76,7.13h-32.02c-15.74,0-28.5,12.76-28.5,28.5v26.8c0,15.73,12.76,28.49,28.5,28.49h32.02c.84,2.4,1.76,4.78,2.76,7.14.76,1.79,1.55,3.56,2.39,5.3l-22.64,22.64c-11.13,11.13-11.13,29.17,0,40.3l18.95,18.95c11.13,11.13,29.17,11.13,40.29,0l22.65-22.65c1.74.84,3.51,1.63,5.3,2.39,2.36,1,4.73,1.92,7.13,2.76v32.03c0,15.73,12.76,28.49,28.5,28.49h26.8c15.73,0,28.49-12.76,28.49-28.49v-32.03c2.4-.84,4.78-1.76,7.14-2.76,1.79-.76,3.56-1.55,5.3-2.38l22.64,22.64c11.13,11.13,29.17,11.13,40.3,0l18.95-18.95c11.13-11.13,11.13-29.17,0-40.3l-22.64-22.64c.83-1.74,1.62-3.51,2.38-5.3,1-2.36,1.92-4.74,2.76-7.14h32.03c15.73,0,28.49-12.76,28.49-28.49v-26.8c0-15.74-12.76-28.5-28.49-28.5ZM672.7,209.45c-7.58,7.58-18.06,12.27-29.62,12.27s-21.88-4.62-29.45-12.1l-.36-.35c-7.47-7.56-12.09-17.97-12.09-29.44s4.4-21.38,11.57-28.91l.35-.36.71-.71.36-.35c7.53-7.17,17.7-11.57,28.91-11.57s21.88,4.62,29.44,12.09l.35.36c7.48,7.57,12.1,17.97,12.1,29.45s-4.69,22.04-12.27,29.62Z"/>
</svg>