<?xml version="1.0" encoding="UTF-8"?>
<svg id="Layer_1" data-name="Layer 1" xmlns="http://www.w3.org/2000/svg" viewBox="0 0 738.01 850.38">
  <path d="M690.22,0H47.8C21.4,0,0,21.4,0,47.8V802.59c0,26.39,21.4,47.79,47.8,47.79H690.22c26.39,0,47.79-21.4,47.79-47.79V47.8c0-26.4-21.4-47.8-47.79-47.8h0Zm-36.6,749.3c0,9.22-7.48,16.7-16.71,16.7H101.1c-9.23,0-16.71-7.48-16.71-16.7V101.1c0-9.23,7.48-16.71,16.71-16.71H643.22c5.74,0,10.4,4.66,10.4,10.4V749.3Z"/>
  <path d="M200.21,184.21h148.81c21.81,0,39.49,17.68,39.49,39.49h0c0,21.81-17.68,39.49-39.49,39.49H200.21c-21.81,0-39.49-17.68-39.49-39.49h0c0-21.81,17.68-39.49,39.49-39.49Z"/>
  <path d="M200.21,320.02H501.92c21.81,0,39.49,17.68,39.49,39.49h0c0,21.81-17.68,39.49-39.49,39.49H200.21c-21.81,0-39.49-17.68-39.49-39.49h0c0-21.81,17.68-39.49,39.49-39.49Z"/>
  <path d="M200.21,455.83h193.71c21.81,0,39.49,17.68,39.49,39.49h0c0,21.81-17.68,39.49-39.49,39.49H200.21c-21.81,0-39.49-17.68-39.49-39.49h0c0-21.81,17.68-39.49,39.49-39.49Z"/>
  <path d="M200.21,591.64h241.71c21.81,0,39.49,17.68,39.49,39.49h0c0,21.81-17.68,39.49-39.49,39.49H200.21c-21.81,0-39.49-17.68-39.49-39.49h0c0-21.81,17.68-39.49,39.49-39.49Z"/>
</svg>