<?xml version="1.0" encoding="UTF-8"?>
<svg id="Layer_95" data-name="Layer 95" xmlns="http://www.w3.org/2000/svg" viewBox="0 0 850.91 850.91">
  <defs>
    <style>
      .cls-1 {
        fill: #010101;
      }

      .cls-1, .cls-2 {
        stroke-width: 0px;
      }

      .cls-2 {
        fill: #231f20;
      }
    </style>
  </defs>
  <path class="cls-2" d="M793.83,137.93h-32.03c-.84-2.4-1.76-4.77-2.76-7.13-.76-1.79-1.55-3.56-2.39-5.3l22.65-22.65c11.13-11.12,11.13-29.16,0-40.29l-18.95-18.95c-11.13-11.13-29.17-11.13-40.3,0l-22.64,22.64c-1.74-.84-3.51-1.63-5.3-2.39-2.36-1-4.74-1.92-7.14-2.76V29.08c0-15.74-12.76-28.5-28.49-28.5h-26.8c-15.74,0-28.5,12.76-28.5,28.5v32.02c-2.4.84-4.77,1.76-7.13,2.76-1.79.76-3.56,1.55-5.31,2.39l-22.64-22.64c-11.12-11.13-29.16-11.13-40.29,0l-18.95,18.95c-11.13,11.13-11.13,29.17,0,40.29l22.64,22.64c-.84,1.75-1.63,3.52-2.39,5.31-1,2.36-1.92,4.73-2.76,7.13h-32.02c-15.74,0-28.5,12.76-28.5,28.5v26.8c0,15.73,12.76,28.49,28.5,28.49h32.02c.84,2.4,1.76,4.78,2.76,7.14.76,1.79,1.55,3.56,2.39,5.3l-22.64,22.64c-11.13,11.13-11.13,29.17,0,40.3l18.95,18.95c11.13,11.13,29.17,11.13,40.29,0l22.65-22.65c1.74.84,3.51,1.63,5.3,2.39,2.36,1,4.73,1.92,7.13,2.76v32.03c0,15.73,12.76,28.49,28.5,28.49h26.8c15.73,0,28.49-12.76,28.49-28.49v-32.03c2.4-.84,4.78-1.76,7.14-2.76,1.79-.76,3.56-1.55,5.3-2.38l22.64,22.64c11.13,11.13,29.17,11.13,40.3,0l18.95-18.95c11.13-11.13,11.13-29.17,0-40.3l-22.64-22.64c.83-1.74,1.62-3.51,2.38-5.3,1-2.36,1.92-4.74,2.76-7.14h32.03c15.73,0,28.49-12.76,28.49-28.49v-26.8c0-15.74-12.76-28.5-28.49-28.5ZM672.7,209.45c-7.58,7.58-18.06,12.27-29.62,12.27s-21.88-4.62-29.45-12.1l-.36-.35c-7.47-7.56-12.09-17.97-12.09-29.44s4.4-21.38,11.57-28.91l.35-.36.71-.71.36-.35c7.53-7.17,17.7-11.57,28.91-11.57s21.88,4.62,29.44,12.09l.35.36c7.48,7.57,12.1,17.97,12.1,29.45s-4.69,22.04-12.27,29.62Z"/>
  <path class="cls-1" d="M682.54,417.34v309.84c0,22.09-17.9,39.99-39.99,39.99H151.83c-22.08,0-39.98-17.9-39.98-39.98V124.21c0-22.08,17.9-39.98,39.98-39.98h269.47c13.72,0,26.47-7.13,33.61-18.85s16.02-23.62,25.61-34.11c10.76-11.77,2.51-30.69-13.44-30.69H120.82c-51.2,0-92.71,41.51-92.71,92.71v664.82c0,51.2,41.5,92.7,92.7,92.7h552.75c51.2,0,92.7-41.5,92.7-92.7v-371.59c0-10.29-10.95-16.93-20.04-12.1-14.05,7.46-29,13.45-44.65,17.75-11.29,3.1-19.03,13.47-19.03,25.17Z"/>
  <g>
    <path class="cls-1" d="M428.19,228.13c2.64,11.8-1.88,24.25-12.02,30.83-4.72,3.07-10.36,4.85-16.41,4.85h-174c-16.67,0-30.18-13.51-30.18-30.18v-23.37c0-16.67,13.51-30.18,30.18-30.18h174c.09,0,.19,0,.28,0,12.51.11,22.71,9.91,23.98,22.35.89,8.73,2.29,17.3,4.17,25.7Z"/>
    <path class="cls-1" d="M556.32,382.28c8.94,3.84,6.37,17.27-3.36,17.36-.09,0-.18,0-.27,0H225.76c-16.67,0-30.18-13.51-30.18-30.18v-23.36c0-16.67,13.51-30.18,30.18-30.18h225.57c11.23,0,22,4.63,29.6,12.9,20.92,22.76,46.56,41.09,75.38,53.46Z"/>
    <rect class="cls-1" x="293.36" y="353.98" width="83.73" height="279.27" rx="30.18" ry="30.18" transform="translate(828.84 158.39) rotate(90)"/>
    <rect class="cls-1" x="317.36" y="465.81" width="83.73" height="327.28" rx="30.18" ry="30.18" transform="translate(988.68 270.22) rotate(90)"/>
  </g>
</svg>