<?xml version="1.0" encoding="UTF-8"?>
<svg id="Layer_55" data-name="Layer 55" xmlns="http://www.w3.org/2000/svg" viewBox="0 0 850.9 850.9">
  <defs>
    <style>
      .cls-1 {
        fill: #231f20;
        stroke-width: 0px;
      }
    </style>
  </defs>
  <g>
    <path class="cls-1" d="M485.51,235.72c0,10.23,1.01,20.22,2.93,29.88,1.24,6.23-3.58,12.02-9.93,12.02H33.57C15.03,277.62,0,262.59,0,244.05v-16.65C0,208.86,15.03,193.83,33.57,193.83h444.94c6.35,0,11.17,5.79,9.93,12.02-1.92,9.66-2.93,19.65-2.93,29.87Z"/>
    <path class="cls-1" d="M698.27,167.59c37.57,0,68.13,30.56,68.13,68.13s-30.56,68.13-68.13,68.13-68.13-30.56-68.13-68.13,30.56-68.13,68.13-68.13M698.27,83.59c-84.02,0-152.13,68.11-152.13,152.13s68.11,152.13,152.13,152.13,152.13-68.11,152.13-152.13-68.11-152.13-152.13-152.13h0Z"/>
  </g>
  <g>
    <path class="cls-1" d="M364.89,615.68c0-10.23-1.01-20.22-2.93-29.88-1.24-6.23,3.58-12.02,9.93-12.02h444.94c18.54,0,33.57,15.03,33.57,33.57v16.65c0,18.54-15.03,33.57-33.57,33.57h-444.94c-6.35,0-11.17-5.79-9.93-12.02,1.92-9.66,2.93-19.65,2.93-29.87Z"/>
    <path class="cls-1" d="M152.13,683.8c-37.57,0-68.13-30.56-68.13-68.13s30.56-68.13,68.13-68.13,68.13,30.56,68.13,68.13-30.56,68.13-68.13,68.13M152.13,767.8c84.02,0,152.13-68.11,152.13-152.13s-68.11-152.13-152.13-152.13S0,531.65,0,615.67s68.11,152.13,152.13,152.13h0Z"/>
  </g>
</svg>