<?xml version="1.0" encoding="UTF-8"?>
<svg id="Layer_14" data-name="Layer 14" xmlns="http://www.w3.org/2000/svg" viewBox="0 0 850.41 850.41">
  <defs>
    <style>
      .cls-1 {
        fill: #231f20;
      }
    </style>
  </defs>
  <path class="cls-1" d="M773.76,62.37H333.82c-20.63-32.66-57.04-54.36-98.53-54.36s-77.9,21.69-98.53,54.36h-60.13c-17.14,0-32.65,6.95-43.89,18.19-11.23,11.24-18.17,26.75-18.17,43.89,0,34.28,27.78,62.07,62.06,62.07h60.13c20.63,32.66,57.04,54.36,98.53,54.36s77.9-21.69,98.53-54.36h439.94c17.14,0,32.65-6.95,43.89-18.19,11.24-11.24,18.19-26.75,18.19-43.89,0-34.28-27.8-62.07-62.07-62.07Zm-506.23,124.15c-9.66,5.03-20.63,7.88-32.23,7.88s-22.58-2.85-32.23-7.88c-22.39-11.68-37.72-35.13-37.72-62.07s15.33-50.41,37.72-62.07c9.66-5.03,20.61-7.88,32.23-7.88s22.58,2.85,32.23,7.88c22.39,11.68,37.72,35.12,37.72,62.07s-15.33,50.4-37.72,62.07Z"/>
  <path class="cls-1" d="M773.76,363.15h-79.2c-20.61-32.66-57.03-54.36-98.52-54.36s-77.9,21.69-98.52,54.36H76.63c-17.14,0-32.65,6.95-43.89,18.19-11.23,11.24-18.17,26.75-18.17,43.89,0,34.28,27.78,62.06,62.06,62.06H497.52c20.61,32.66,57.03,54.36,98.52,54.36s77.9-21.69,98.52-54.36h79.2c17.14,0,32.65-6.95,43.89-18.17,11.24-11.24,18.19-26.75,18.19-43.89,0-34.28-27.8-62.07-62.07-62.07Zm-145.48,124.14c-9.66,5.03-20.61,7.88-32.23,7.88s-22.59-2.85-32.23-7.88c-22.39-11.68-37.72-35.12-37.72-62.06s15.33-50.4,37.72-62.07c9.64-5.03,20.61-7.88,32.23-7.88s22.58,2.85,32.23,7.88c22.39,11.67,37.72,35.12,37.72,62.07s-15.33,50.4-37.72,62.06Z"/>
  <path class="cls-1" d="M773.76,663.92H437.63c-20.61-32.66-57.03-54.36-98.52-54.36s-77.9,21.69-98.52,54.36H76.63c-17.14,0-32.65,6.95-43.89,18.17-11.23,11.24-18.17,26.75-18.17,43.9,0,34.28,27.78,62.06,62.06,62.06H240.6c20.61,32.66,57.03,54.36,98.52,54.36s77.9-21.69,98.52-54.36h336.12c17.14,0,32.65-6.95,43.89-18.17,11.24-11.24,18.19-26.75,18.19-43.89,0-34.29-27.8-62.07-62.07-62.07Zm-402.4,124.14c-9.64,5.03-20.61,7.88-32.23,7.88s-22.59-2.85-32.23-7.88c-22.39-11.68-37.72-35.12-37.72-62.06s15.33-50.4,37.72-62.07c9.64-5.03,20.61-7.88,32.23-7.88s22.59,2.85,32.23,7.88c22.39,11.68,37.72,35.12,37.72,62.07s-15.33,50.38-37.72,62.06Z"/>
</svg>