<?xml version="1.0" encoding="UTF-8"?>
<svg id="Layer_33" data-name="Layer 33" xmlns="http://www.w3.org/2000/svg" viewBox="0 0 850.89 850.9">
  <defs>
    <style>
      .cls-1 {
        fill: #231f20;
        stroke-width: 0px;
      }
    </style>
  </defs>
  <path class="cls-1" d="M711.56.5h-297.49c-51.19,0-92.69,41.5-92.69,92.69v464.99c0,51.19,41.5,92.69,92.69,92.69h297.49c51.19,0,92.68-41.51,92.68-92.7V93.18c0-51.19-41.49-92.68-92.68-92.68ZM720.61,527.17c0,22.08-17.9,39.97-39.98,39.97h-235.64c-22.08,0-39.98-17.89-39.98-39.96V124.19c0-22.08,17.9-39.98,39.98-39.98h235.64c22.08,0,39.98,17.9,39.98,39.97v402.98Z"/>
  <path class="cls-1" d="M449.72,724.79v2.41c0,22.07-17.9,39.97-39.97,39.97h-239.98c-22.08,0-39.98-17.9-39.98-39.98v-402.97c0-22.08,17.9-39.98,39.98-39.98h77.7c17.93,0,32.46-14.53,32.46-32.46v-18.79c0-17.93-14.53-32.46-32.46-32.46h-108.62c-51.19,0-92.69,41.5-92.69,92.69v464.98c0,51.19,41.5,92.69,92.69,92.69h301.82c51.19,0,92.68-41.49,92.68-92.68v-33.42c0-17.93-14.53-32.46-32.46-32.46h-18.71c-17.93,0-32.46,14.53-32.46,32.46Z"/>
</svg>