<?xml version="1.0" encoding="UTF-8"?>
<svg id="Layer_1" data-name="Layer 1" xmlns="http://www.w3.org/2000/svg" viewBox="0 0 616.14 616.14">
  <path d="M593.94,593.61c-14.82,14.84-34.25,22.26-53.68,22.26s-38.81-7.4-53.62-22.2l-178.51-178.3-178.3,178.51c-29.62,29.65-77.66,29.68-107.31,.06-14.84-14.81-22.25-34.25-22.25-53.68s7.39-38.81,22.19-53.62l178.3-178.51L22.25,129.83c-29.64-29.62-29.67-77.66-.06-107.31C37.01,7.68,56.44,.27,75.87,.27s38.82,7.39,53.63,22.19l178.51,178.3L486.31,22.25c29.61-29.64,77.65-29.67,107.3-.06,14.84,14.82,22.26,34.25,22.26,53.69s-7.4,38.81-22.2,53.62l-178.3,178.51,178.51,178.3c29.65,29.61,29.68,77.65,.06,107.3Z"/>
</svg>