<?xml version="1.0" encoding="UTF-8"?>
<svg id="Layer_21" data-name="Layer 21" xmlns="http://www.w3.org/2000/svg" viewBox="0 0 850.41 850.42">
  <defs>
    <style>
      .cls-1 {
        fill: #231f20;
      }
    </style>
  </defs>
  <path class="cls-1" d="M724.48,489.05v181.68c0,23.79-19.29,43.08-43.08,43.08H168.99c-23.79,0-43.08-19.28-43.08-43.08v-181.68c0-33.19-26.91-60.1-60.1-60.1h0c-33.19,0-60.1,26.91-60.1,60.1v181.68c0,22,4.34,43.39,12.88,63.59,8.23,19.46,19.99,36.9,34.95,51.86,14.95,14.95,32.4,26.7,51.85,34.94,20.21,8.54,41.61,12.88,63.59,12.88H681.4c22,0,43.39-4.34,63.59-12.88,19.45-8.23,36.9-19.98,51.86-34.94,14.95-14.96,26.7-32.4,34.94-51.86,8.54-20.2,12.88-41.6,12.88-63.59v-181.68c0-33.19-26.91-60.1-60.1-60.1h0c-33.19,0-60.1,26.91-60.1,60.1Z"/>
  <path class="cls-1" d="M705.96,298.1l-213.45,213.45c-7.78,7.78-18.07,11.56-28.26,11.33-.43,.04-77.66,.04-78.09,0-10.17,.25-20.46-3.53-28.24-11.31l-213.47-213.47c-15.15-15.15-15.15-39.73,0-54.88l53.31-53.31c15.17-15.17,39.73-15.15,54.88,0l96.06,96.06V55.22c0-21.4,17.39-38.79,38.79-38.79h75.42c21.42-.02,38.81,17.37,38.79,38.79v230.74s96.06-96.06,96.06-96.06c15.15-15.15,39.73-15.15,54.88,0l53.31,53.31c15.15,15.15,15.15,39.73,0,54.88Z"/>
</svg>