<?xml version="1.0" encoding="UTF-8"?>
<svg id="Layer_18" data-name="Layer 18" xmlns="http://www.w3.org/2000/svg" viewBox="0 0 850.41 850.41">
  <defs>
    <style>
      .cls-1 {
        fill: #231f20;
      }
    </style>
  </defs>
  <path class="cls-1" d="M507.09,849.52H137.4c-71.95,0-130.49-58.54-130.49-130.49V316.41c0-71.96,58.54-130.51,130.49-130.51h114.78c71.95,0,130.49,58.54,130.49,130.51v345.25c0,68.59,55.81,124.4,124.41,124.4,17.53,0,31.73,14.21,31.73,31.73s-14.21,31.73-31.73,31.73ZM137.4,249.37c-36.96,0-67.02,30.07-67.02,67.04v402.62c0,36.96,30.07,67.02,67.02,67.02h229.01c-29.36-33.16-47.2-76.73-47.2-124.4V316.41c0-36.96-30.07-67.04-67.02-67.04h-114.78Z"/>
  <g>
    <path class="cls-1" d="M712.99,664.53h-114.78c-71.95,0-130.49-58.54-130.49-130.49V188.79c0-68.6-55.81-124.41-124.41-124.41-17.53,0-31.73-14.21-31.73-31.73S325.78,.91,343.31,.91h369.68c71.95,0,130.49,58.54,130.49,130.49v402.64c0,71.95-58.54,130.49-130.49,130.49ZM483.98,64.38c29.36,33.16,47.21,76.74,47.21,124.41v345.25c0,36.96,30.07,67.02,67.02,67.02h114.78c36.96,0,67.02-30.07,67.02-67.02V131.4c0-36.96-30.07-67.02-67.02-67.02h-229.01Z"/>
    <path class="cls-1" d="M507.09,849.52c-103.6,0-187.88-84.28-187.88-187.87V316.41c0-36.96-30.07-67.04-67.02-67.04h-65.02c-17.53,0-31.73-14.21-31.73-31.73v-28.84C155.43,85.2,239.71,.91,343.31,.91s187.88,84.28,187.88,187.88v345.25c0,36.96,30.07,67.02,67.02,67.02h65.02c17.53,0,31.73,14.21,31.73,31.73v28.85c0,103.59-84.28,187.87-187.88,187.87ZM218.93,185.9h33.25c71.95,0,130.49,58.54,130.49,130.51v345.25c0,68.59,55.81,124.4,124.41,124.4s122.84-54.25,124.38-121.52h-33.25c-71.95,0-130.49-58.54-130.49-130.49V188.79c0-68.6-55.81-124.41-124.41-124.41s-122.84,54.25-124.38,121.52Z"/>
  </g>
</svg>