<?xml version="1.0" encoding="UTF-8"?>
<svg id="Layer_98" data-name="Layer 98" xmlns="http://www.w3.org/2000/svg" viewBox="0 0 850.91 850.91">
  <defs>
    <style>
      .cls-1 {
        fill: #231f20;
        stroke-width: 0px;
      }
    </style>
  </defs>
  <path class="cls-1" d="M850.41,259.44v1.49c0,246.43-167.25,458.69-407.87,554.67-11.11,4.43-23.52,4.43-34.63,0C167.27,719.62.02,507.36.02,260.93v-1.49c0-.29,0-.59.01-.88-.01-.69,0-1.37.01-2.05C1.61,132.51,102.62,32.47,226.99,32.47c85.18,0,159.41,46.93,198.23,116.34,38.82-69.41,113.04-116.34,198.23-116.34,124.37,0,225.37,100.04,226.94,224.04.01.68.02,1.36.01,2.05.01.29.01.59.01.88Z"/>
</svg>