<?xml version="1.0" encoding="UTF-8"?>
<svg id="Layer_47" data-name="Layer 47" xmlns="http://www.w3.org/2000/svg" viewBox="0 0 850.89 850.9">
  <defs>
    <style>
      .cls-1 {
        fill: #231f20;
        stroke-width: 0px;
      }
    </style>
  </defs>
  <g>
    <path class="cls-1" d="M378.91,357.16l116.68,111.97-116.69-111.96s0,0,0-.01Z"/>
    <path class="cls-1" d="M500.19,415.32l-67.39-64.66c-2.81-2.69-.56-7.44,3.3-6.93,35.97,4.73,64.66,32.58,70.65,68.14.62,3.7-3.85,6.05-6.56,3.45Z"/>
    <path class="cls-1" d="M803.18,335.37c-89.57-62.2-225.63-133.65-377.98-133.65-32.4,0-64.07,3.23-94.7,8.92-15.27,2.84-20.89,21.8-9.69,32.55l22.09,21.2c5.43,5.21,13.38,6.68,20.37,3.93,19.18-7.55,40.07-11.71,61.93-11.71,93.37,0,169.08,75.71,169.08,169.09,0,19.43-3.28,38.11-9.32,55.49-2.45,7.06-.6,14.91,4.8,20.08l80.57,77.31c5.82,5.58,14.51,6.89,21.74,3.31,41.95-20.74,79.44-43.88,111.1-65.87,62.96-43.71,62.96-136.95.01-180.66Z"/>
  </g>
  <path class="cls-1" d="M732.23,696.22l-94.02-90.23-79.61-76.4h0l-63-60.45h0s-116.69-111.97-116.69-111.97l-63-60.47h-.01l-67.37-64.65h-.01l-95.35-91.5c-13.86-13.06-35.7-12.54-48.92,1.24-13.29,13.85-12.84,35.86,1.02,49.15l72.3,69.38c-49.79,22.92-93.91,49.75-130.34,75.05-62.96,43.71-62.96,136.95,0,180.67,89.57,62.18,225.63,133.64,377.98,133.64,48.11,0,94.59-7.12,138.49-18.83l119.73,114.89c13.86,13.29,35.87,12.84,49.16-1.01,6.47-6.74,9.68-15.41,9.68-24.07s-3.36-17.69-10.03-24.44ZM425.2,594.78c-93.38,0-169.09-75.7-169.09-169.08,0-26.45,6.08-51.49,16.91-73.78l69.76,66.95c-.19,2.25-.28,4.53-.28,6.83,0,45.68,37.03,82.7,82.7,82.7,3.47,0,6.88-.21,10.23-.63l69.75,66.93c-23.81,12.81-51.05,20.08-79.98,20.08Z"/>
  <path class="cls-1" d="M248.51,232.05l-95.35-91.5c.08.07.16.14.24.22l95.11,91.28Z"/>
  <polygon class="cls-1" points="495.59 469.13 378.9 357.17 315.9 296.7 378.91 357.16 495.59 469.13"/>
  <polygon class="cls-1" points="558.59 529.59 495.59 469.14 495.59 469.13 558.59 529.59"/>
  <polygon class="cls-1" points="638.21 605.99 558.59 529.59 558.6 529.59 638.21 605.99"/>
  <path class="cls-1" d="M153.4,140.77l95.11,91.28-95.35-91.5c.08.07.16.14.24.22Z"/>
  <polygon class="cls-1" points="378.91 357.16 495.59 469.13 378.9 357.17 315.9 296.7 378.91 357.16"/>
  <polygon class="cls-1" points="495.59 469.14 495.59 469.13 558.59 529.59 495.59 469.14"/>
</svg>