<?xml version="1.0" encoding="UTF-8"?>
<svg id="Layer_47" data-name="Layer 47" xmlns="http://www.w3.org/2000/svg" viewBox="0 0 850.9 850.9">
  <defs>
    <style>
      .cls-1 {
        fill: #231f20;
        stroke-width: 0px;
      }
    </style>
  </defs>
  <g>
    <path class="cls-1" d="M495.59,451.57l-82.87-79.51-33.82-32.45s0,0,0-.01l11.11,10.66,105.57,101.31Z"/>
    <path class="cls-1" d="M803.18,317.81c-89.57-62.2-225.63-133.65-377.98-133.65-20.78,0-41.25,1.33-61.35,3.78-14.92,1.82-21.09,20.07-10.25,30.48l20.53,19.71c4.28,4.11,10.32,5.76,16.14,4.54,11.27-2.37,22.96-3.62,34.94-3.62,93.37,0,169.08,75.71,169.08,169.09,0,9.64-.8,19.09-2.35,28.29-.98,5.8.9,11.7,5.14,15.78l99.98,96.01c5.58,5.36,13.98,6.48,20.79,2.8,31.63-17.06,60.3-35.17,85.34-52.55,62.96-43.71,62.96-136.95.01-180.66Z"/>
  </g>
  <path class="cls-1" d="M732.23,678.66l-94.02-90.23-79.61-76.4h0l-63-60.45h0s-116.69-111.97-116.69-111.97l-63-60.47h-.01l-67.37-64.65h-.01l-95.35-91.5c-13.86-13.06-35.7-12.54-48.92,1.24-13.29,13.85-12.84,35.86,1.02,49.15l72.3,69.38c-49.79,22.92-93.91,49.75-130.34,75.05-62.96,43.71-62.96,136.95,0,180.67,89.57,62.18,225.63,133.64,377.98,133.64,48.11,0,94.59-7.12,138.49-18.83l119.73,114.89c13.86,13.29,35.87,12.84,49.16-1.01,6.47-6.74,9.68-15.41,9.68-24.07s-3.36-17.69-10.03-24.44ZM425.2,577.22c-93.38,0-169.09-75.7-169.09-169.08,0-26.45,6.08-51.49,16.91-73.78l69.76,66.95c-.19,2.25-.28,4.53-.28,6.83,0,45.68,37.03,82.7,82.7,82.7,3.47,0,6.88-.21,10.23-.63l69.75,66.93c-23.81,12.81-51.05,20.08-79.98,20.08Z"/>
</svg>