<?xml version="1.0" encoding="UTF-8"?>
<svg id="Layer_16" data-name="Layer 16" xmlns="http://www.w3.org/2000/svg" viewBox="0 0 850.41 850.41">
  <defs>
    <style>
      .cls-1 {
        fill: #231f20;
      }
    </style>
  </defs>
  <path class="cls-1" d="M711.35,573.37v191.25c0,26.53-21.5,48.03-48.03,48.03H187.08c-26.53,0-48.04-21.51-48.04-48.03v-191.25c0-22.71,9.03-44.49,25.11-60.53,66.72-66.59,243.35-243.15,243.35-243.15,9.78-9.78,25.64-9.78,35.42,0,0,0,176.61,176.55,243.33,243.14,16.08,16.04,25.11,37.82,25.11,60.53Z"/>
  <path class="cls-1" d="M827.38,504.93c-12.77,12.86-29.55,19.3-46.34,19.3s-33.43-6.38-46.18-19.13L463.05,233.28c-20.91-20.91-54.8-20.91-75.71,0L115.53,505.1c-12.75,12.75-29.47,19.13-46.18,19.13s-33.57-6.44-46.34-19.3c-25.46-25.64-24.7-67.32,.85-92.87L379.03,56.9c12.75-12.75,29.46-19.12,46.17-19.12s33.42,6.37,46.17,19.12l355.16,355.16c25.55,25.55,26.31,67.23,.85,92.87Z"/>
</svg>