<?xml version="1.0" encoding="UTF-8"?>
<svg id="Layer_37" data-name="Layer 37" xmlns="http://www.w3.org/2000/svg" viewBox="0 0 972.61 1023.06">
  <defs>
    <style>
      .cls-1 {
        fill: #231f20;
        stroke-width: 0px;
      }
    </style>
  </defs>
  <g>
    <rect class="cls-1" x="505.02" y="528.97" width="83.79" height="283.51" rx="31.36" ry="31.36" transform="translate(1093.82 1341.44) rotate(180)"/>
    <rect class="cls-1" x="505.02" y="383.3" width="83.79" height="83.67" rx="31.36" ry="31.36" transform="translate(972.05 -121.78) rotate(90)"/>
  </g>
  <path class="cls-1" d="M546.91,256.66c46.1,0,90.77,9.01,132.78,26.78,40.62,17.18,77.12,41.79,108.48,73.16,31.36,31.36,55.97,67.86,73.16,108.48,17.77,42.01,26.78,86.69,26.78,132.78s-9.01,90.77-26.78,132.78c-17.18,40.62-41.79,77.12-73.16,108.48-31.36,31.36-67.86,55.97-108.48,73.16-42.01,17.77-86.69,26.78-132.78,26.78s-90.77-9.01-132.78-26.78c-40.62-17.18-77.12-41.79-108.48-73.16-31.36-31.36-55.97-67.86-73.16-108.48-17.77-42.01-26.78-86.69-26.78-132.78s9.01-90.77,26.78-132.78c17.18-40.62,41.79-77.12,73.16-108.48,31.36-31.36,67.86-55.97,108.48-73.16,42.01-17.77,86.69-26.78,132.78-26.78M546.91,172.66h0c-234.83,0-425.2,190.37-425.2,425.2h0c0,234.83,190.37,425.2,425.2,425.2h0c234.83,0,425.2-190.37,425.2-425.2h0c0-234.83-190.37-425.2-425.2-425.2h0Z"/>
</svg>