<?xml version="1.0" encoding="UTF-8"?>
<svg id="Layer_1" data-name="Layer 1" xmlns="http://www.w3.org/2000/svg" viewBox="0 0 850.39 850.39">
  <path d="M425.2,0C190.37,0,0,190.37,0,425.2s190.37,425.19,425.2,425.19,425.19-190.36,425.19-425.19S660.03,0,425.2,0Zm67.2,651.37c0,37.11-30.09,67.2-67.2,67.2s-67.2-30.09-67.2-67.2V393.64c0-37.11,30.08-67.2,67.2-67.2,18.56,0,35.36,7.52,47.52,19.68s19.68,28.96,19.68,47.52v257.73h0Zm-19.68-404.82c-12.16,12.16-28.96,19.68-47.52,19.68-37.12,0-67.2-30.09-67.2-67.2,0-18.56,7.52-35.36,19.68-47.52s28.96-19.68,47.52-19.68,35.36,7.52,47.52,19.68c12.16,12.16,19.68,28.96,19.68,47.52s-7.52,35.35-19.68,47.52Z"/>
</svg>