<?xml version="1.0" encoding="UTF-8"?>
<svg id="Layer_14" data-name="Layer 14" xmlns="http://www.w3.org/2000/svg" viewBox="0 0 850.41 850.41">
  <defs>
    <style>
      .cls-1 {
        fill: #231f20;
      }
    </style>
  </defs>
  <path class="cls-1" d="M762.87,94.84c-7.38-17.45-17.92-33.1-31.34-46.51-13.41-13.42-29.06-23.96-46.51-31.34-18.11-7.66-37.3-11.55-57.02-11.55H316.68c-19.72,0-38.91,3.89-57.02,11.55-17.45,7.38-33.1,17.92-46.52,31.34s-23.95,29.06-31.33,46.51c-7.67,18.12-11.55,37.3-11.55,57.03v85.38c0,18.53,15.02,33.56,33.56,33.56h32.89c18.53,0,33.56-15.02,33.56-33.56v-85.38c0-25.64,20.79-46.43,46.43-46.43h311.32c25.64,0,46.42,20.78,46.42,46.42V698.57c0,25.64-20.78,46.42-46.42,46.42H316.68c-25.64,0-46.42-20.78-46.42-46.42v-85.38c0-18.53-15.02-33.56-33.56-33.56h-32.89c-18.53,0-33.56,15.02-33.56,33.56v85.38c0,19.72,3.88,38.91,11.55,57.02,7.38,17.45,17.92,33.1,31.33,46.51,13.42,13.42,29.07,23.96,46.52,31.34,18.11,7.67,37.3,11.55,57.02,11.55h311.33c19.72,0,38.91-3.88,57.02-11.55,17.45-7.38,33.1-17.92,46.51-31.34,13.42-13.41,23.96-29.06,31.34-46.51,7.67-18.11,11.55-37.3,11.55-57.02V151.87c0-19.73-3.88-38.91-11.55-57.03Z"/>
  <path class="cls-1" d="M406.17,189.39l179.29,179.29c6.54,6.54,9.71,15.18,9.52,23.74,.03,.36,.03,65.23,0,65.59,.21,8.54-2.96,17.19-9.5,23.72l-179.3,179.3c-12.73,12.73-33.37,12.73-46.1,0l-44.78-44.78c-12.74-12.74-12.73-33.37,0-46.1l80.69-80.69H108.55c-17.98,0-32.58-14.6-32.58-32.58v-63.35c-.02-17.99,14.59-32.6,32.58-32.58H395.98s-80.69-80.69-80.69-80.69c-12.73-12.73-12.73-33.37,0-46.1l44.78-44.78c12.73-12.73,33.37-12.73,46.1,0Z"/>
</svg>