<?xml version="1.0" encoding="UTF-8"?>
<svg id="Layer_51" data-name="Layer 51" xmlns="http://www.w3.org/2000/svg" viewBox="0 0 850.91 850.91">
  <defs>
    <style>
      .cls-1 {
        fill: #010101;
      }

      .cls-1, .cls-2 {
        stroke-width: 0px;
      }

      .cls-2 {
        fill: #231f20;
      }
    </style>
  </defs>
  <path class="cls-1" d="M757.73.66H97.06C45.88.66,4.38,42.15,4.38,93.34v176.12c0,16.87,13.68,30.55,30.55,30.55h22.61c16.87,0,30.55-13.68,30.55-30.55V124.27c0-22.08,17.9-39.98,39.98-39.98h598.65c22.07,0,39.97,17.9,39.97,39.97v602.86c0,22.08-17.9,39.98-39.98,39.98H128.07c-22.08,0-39.98-17.9-39.98-39.98v-145.19c0-16.87-13.68-30.55-30.55-30.55h-22.61c-16.87,0-30.55,13.68-30.55,30.55v176.11c0,51.19,41.5,92.69,92.69,92.69h660.65c51.19,0,92.69-41.5,92.69-92.69V93.34c0-51.19-41.49-92.68-92.68-92.68Z"/>
  <path class="cls-2" d="M379.47,213.78l163.58,163.58c26.69,26.69,26.69,69.97,0,96.66l-163.58,163.58c-12.95,12.95-33.95,12.95-46.9,0l-12.35-12.35c-12.95-12.95-12.95-33.95,0-46.9l110.77-110.77H33.18c-18.31,0-33.16-14.84-33.16-33.15v-17.47c0-18.31,14.85-33.16,33.16-33.16h397.8s-110.76-110.77-110.76-110.77c-12.95-12.95-12.95-33.95,0-46.9l12.35-12.35c12.95-12.95,33.95-12.95,46.9,0Z"/>
</svg>