<?xml version="1.0" encoding="UTF-8"?>
<svg id="Layer_2" data-name="Layer 2" xmlns="http://www.w3.org/2000/svg" viewBox="0 0 631.47 631.47">
  <path d="M631.47,315.73c0,42.6-8.35,83.96-24.83,122.91-15.91,37.61-38.67,71.37-67.65,100.35-28.98,28.98-62.74,51.74-100.34,67.64-38.96,16.48-80.31,24.84-122.92,24.84s-83.95-8.36-122.91-24.84c-37.6-15.9-71.36-38.66-100.34-67.64-28.98-28.98-51.74-62.74-67.65-100.35C8.35,399.69,0,358.33,0,315.73s8.35-83.96,24.83-122.91c15.91-37.61,38.67-71.37,67.65-100.35,28.98-28.98,62.74-51.74,100.34-67.64C231.78,8.35,273.13,0,315.73,0c107.39,0,206.45,53.83,264.99,144,15.04,23.16,8.45,54.13-14.71,69.16-23.16,15.04-54.13,8.45-69.16-14.71-40.03-61.65-107.73-98.45-181.12-98.45-118.95,0-215.73,96.77-215.73,215.73s96.78,215.74,215.73,215.74,215.74-96.78,215.74-215.74c0-4.22-.12-8.49-.37-12.7l99.84-5.77c.35,6.12,.53,12.33,.53,18.47Z"/>
</svg>