<?xml version="1.0" encoding="UTF-8"?>
<svg id="Layer_16" data-name="Layer 16" xmlns="http://www.w3.org/2000/svg" viewBox="0 0 850.41 850.41">
  <defs>
    <style>
      .cls-1 {
        fill: #231f20;
      }
    </style>
  </defs>
  <path class="cls-1" d="M425.2,817.69c-52.93,0-104.34-10.39-152.81-30.89-46.75-19.77-88.71-48.06-124.71-84.06-36-36-64.29-77.96-84.06-124.72-20.5-48.47-30.89-99.88-30.89-152.81s10.39-104.34,30.89-152.81c19.77-46.75,48.06-88.71,84.06-124.71,36-36,77.96-64.29,124.71-84.06,48.47-20.5,99.88-30.89,152.81-30.89,50.14,0,99.03,9.36,145.32,27.82,64.12,25.57,95.38,98.28,69.81,162.41-25.57,64.12-98.28,95.38-162.41,69.81-16.7-6.66-34.44-10.04-52.73-10.04-78.56,0-142.48,63.92-142.48,142.48s63.92,142.48,142.48,142.48,142.48-63.92,142.48-142.48c0-69.04,55.96-125,125-125s125,55.96,125,125c0,52.93-10.39,104.34-30.89,152.81-19.77,46.75-48.06,88.71-84.06,124.72s-77.96,64.29-124.72,84.06c-48.47,20.5-99.88,30.89-152.81,30.89Z"/>
</svg>