<?xml version="1.0" encoding="UTF-8"?>
<svg id="Layer_2" data-name="Layer 2" xmlns="http://www.w3.org/2000/svg" viewBox="0 0 784.93 784.96">
  <g>
    <path d="M95.16,531.06c1.12,2.4,2.26,4.77,3.43,7.13-1.18-2.36-2.32-4.74-3.43-7.13Z"/>
    <path d="M100.37,541.73c1.8,3.52,3.66,6.99,5.57,10.44-1.92-3.44-3.78-6.92-5.57-10.44Z"/>
    <path d="M109.86,559.01c12.68,21.49,27.77,41.45,45.14,59.67-17.39-18.22-32.48-38.18-45.14-59.67Z"/>
    <path d="M344.43,344.44c1.15-1.16,2.34-2.27,3.58-3.34-1.23,1.07-2.43,2.19-3.58,3.34Z"/>
    <path d="M350.54,339.01c1.28-1.01,2.6-1.97,3.95-2.88-1.35,.92-2.67,1.88-3.95,2.88Z"/>
    <path d="M441.1,344.97h-.01c-7.47-7.63-23.73-20.46-48.62-20.46-11.69,0-22.7,2.96-32.32,8.18,9.62-5.23,20.63-8.2,32.33-8.2,24.89,0,41.14,12.83,48.62,20.48Z"/>
  </g>
  <g>
    <path d="M720.44,392.48c0,44.22-8.69,87.18-25.83,127.7-16.52,39.07-40.15,74.13-70.23,104.21s-65.14,53.71-104.21,70.24c-40.52,17.13-83.48,25.82-127.7,25.82s-87.19-8.69-127.7-25.82c-39.08-16.53-74.14-40.16-104.21-70.24h0c-1.88-1.89-3.73-3.79-5.56-5.71-17.37-18.22-32.46-38.18-45.14-59.67-1.32-2.27-2.63-4.55-3.92-6.84-1.91-3.45-3.77-6.92-5.57-10.44-.59-1.18-1.19-2.36-1.78-3.54-1.17-2.36-2.31-4.73-3.43-7.13,0,0,.01,0,0-.01-1.68-3.59-3.29-7.21-4.84-10.87-17.14-40.52-25.83-83.48-25.83-127.7,0-23.49,2.45-46.63,7.32-69.23,0,0,.01-.01,.01-.02,1.43-6.64,3.07-13.24,4.91-19.78,3.71-13.11,8.24-26.02,13.6-38.69,1.07-2.54,2.18-5.06,3.31-7.56,1.02-2.25,2.06-4.48,3.13-6.7,.04-.1,.08-.19,.13-.28,1.7-3.53,3.46-7.03,5.28-10.49,.62-1.18,1.24-2.34,1.87-3.5,2.5-4.62,5.11-9.18,7.83-13.66,11.56-19.09,25.06-36.95,40.4-53.43,2.71-2.9,5.47-5.76,8.28-8.57,5.64-5.64,11.45-11.05,17.43-16.24,1-.87,2-1.73,3.02-2.58,2.01-1.7,4.04-3.37,6.08-5.02,3.08-2.48,6.2-4.9,9.36-7.26,2.11-1.56,4.23-3.1,6.36-4.62,0,0,0,0,.01,0,6.42-4.55,13-8.87,19.73-12.95,1.13-.69,2.26-1.36,3.39-2.03,12.44-7.32,25.4-13.84,38.83-19.52,40.51-17.14,83.48-25.83,127.7-25.83s88.44,8.94,129.47,26.58c2.47,1.06,4.93,2.15,7.37,3.27,1.22,.55,2.44,1.12,3.65,1.7,2.42,1.15,4.83,2.33,7.21,3.53t0,0c32.25,16.25,61.41,37.6,86.87,63.66,50.18,51.34,49.23,133.65-2.12,183.83-25.28,24.71-58.08,37.03-90.85,37.03s-67.51-13.08-92.98-39.14c-7.48-7.65-23.73-20.48-48.62-20.48-11.7,0-22.71,2.97-32.33,8.2-.06,.03-.11,.05-.16,.09-.93,.5-1.84,1.02-2.73,1.57-.94,.57-1.86,1.16-2.77,1.78-1.35,.91-2.67,1.87-3.95,2.88-.01,0-.01,.01-.01,.01-.86,.67-1.69,1.36-2.51,2.07-.01,0-.01,0-.01,0-1.24,1.07-2.43,2.18-3.58,3.34-5,5-9.23,10.77-12.49,17.12-.75,1.46-1.45,2.95-2.09,4.47-.64,1.53-1.24,3.08-1.77,4.66-2.33,6.85-3.59,14.17-3.59,21.79,0,16.39,5.83,31.45,15.55,43.2h0c.69,.85,1.4,1.67,2.14,2.47,.73,.8,1.49,1.59,2.25,2.36,12.3,12.31,29.29,19.94,48.04,19.94,.19,0,.39,0,.58-.01,37.21-.31,67.39-30.67,67.39-67.96h260Z"/>
    <path d="M160.56,160.55c5.64-5.64,11.45-11.05,17.43-16.22-5.98,5.19-11.79,10.6-17.43,16.24-2.81,2.81-5.57,5.67-8.28,8.57,2.7-2.91,5.46-5.77,8.28-8.59Z"/>
    <path d="M202.82,124.84c6.42-4.56,13-8.88,19.73-12.95-6.73,4.08-13.31,8.4-19.73,12.95Z"/>
    <path d="M328.08,370.69c-2.32,6.84-3.58,14.17-3.58,21.78,0,16.4,5.84,31.46,15.54,43.21-9.72-11.75-15.55-26.81-15.55-43.2,0-7.62,1.26-14.94,3.59-21.79Z"/>
    <path d="M329.85,366.03c.64-1.52,1.34-3.01,2.09-4.47-.74,1.46-1.44,2.95-2.09,4.47Z"/>
    <path d="M392.48,460.44h.57c-.19,.01-.39,.01-.58,.01-18.75,0-35.74-7.63-48.04-19.94,12.32,12.31,29.31,19.93,48.05,19.93Z"/>
    <path d="M521.95,91.08c2.47,1.06,4.92,2.15,7.36,3.28-2.44-1.12-4.9-2.21-7.37-3.27-41.03-17.64-84.59-26.58-129.47-26.58s-87.19,8.69-127.7,25.83c-13.43,5.68-26.39,12.2-38.83,19.52,12.44-7.33,25.4-13.85,38.83-19.54,40.52-17.14,83.49-25.83,127.71-25.83s88.44,8.95,129.47,26.59Z"/>
    <path d="M540.17,99.59c-2.38-1.2-4.79-2.38-7.21-3.53,2.42,1.14,4.83,2.32,7.21,3.53Z"/>
  </g>
</svg>