<?xml version="1.0" encoding="UTF-8"?>
<svg id="Layer_2" data-name="Layer 2" xmlns="http://www.w3.org/2000/svg" viewBox="0 0 631.59 631.6">
  <path d="M631.59,315.8c0,42.61-8.35,83.97-24.83,122.94-15.91,37.61-38.67,71.38-67.66,100.37-28.99,28.98-62.75,51.75-100.37,67.65-38.96,16.48-80.32,24.84-122.94,24.84s-83.97-8.36-122.93-24.84c-37.62-15.9-71.38-38.67-100.37-67.65-28.99-28.99-51.75-62.76-67.66-100.37C8.35,399.77,0,358.41,0,315.8s8.35-83.97,24.83-122.94c15.91-37.61,38.67-71.38,67.66-100.36,28.99-28.99,62.75-51.75,100.37-67.66C231.82,8.36,273.18,0,315.79,0c9.63,0,19.36,.44,28.9,1.31,27.5,2.5,47.77,26.82,45.27,54.32s-26.83,47.76-54.32,45.27c-6.55-.6-13.23-.9-19.85-.9-118.99,0-215.79,96.81-215.79,215.8s96.8,215.8,215.79,215.8,215.8-96.81,215.8-215.8c0-7.75-.41-15.56-1.22-23.21l99.43-10.6c1.19,11.15,1.79,22.53,1.79,33.81Z"/>
</svg>