<?xml version="1.0" encoding="UTF-8"?>
<svg id="Layer_2" data-name="Layer 2" xmlns="http://www.w3.org/2000/svg" viewBox="0 0 771.6 771.6">
  <path d="M771.6,385.8c0,52.03-10.21,102.57-30.36,150.21-19.44,45.95-47.24,87.2-82.63,122.59s-76.64,63.2-122.6,82.63c-47.64,20.15-98.18,30.37-150.21,30.37s-102.56-10.22-150.2-30.37c-45.96-19.43-87.2-47.23-122.6-82.63s-63.19-76.64-82.63-122.59c-12.59-29.78-21.31-60.68-26.07-92.38-.48-3.17-.91-6.35-1.31-9.53-.15-1.19-.29-2.39-.43-3.59-.27-2.39-.53-4.79-.76-7.19-.12-1.2-.23-2.41-.33-3.61-.14-1.6-.27-3.2-.39-4.81-.18-2.41-.34-4.82-.47-7.24-.4-7.26-.6-14.55-.6-21.86s.2-14.6,.6-21.86c.13-2.42,.29-4.83,.47-7.24,.12-1.61,.25-3.21,.39-4.81,.1-1.2,.21-2.41,.33-3.61,.23-2.4,.49-4.8,.76-7.19,.14-1.2,.28-2.4,.43-3.59,.4-3.18,.83-6.36,1.31-9.53,4.76-31.7,13.48-62.6,26.07-92.38,19.44-45.95,47.24-87.2,82.63-122.59,35.4-35.39,76.64-63.19,122.6-82.63C283.24,10.22,333.77,0,385.8,0c11.74,0,23.59,.54,35.24,1.6,66,6,114.64,64.36,108.64,130.37-5.66,62.3-58,109.14-119.37,109.14-3.64,0-7.3-.16-11-.5-4.45-.4-9-.61-13.51-.61-40.19,0-76.64,16.35-103.04,42.75-13.2,13.2-23.89,28.91-31.28,46.35-.69,1.63-1.36,3.29-1.99,4.95-.43,1.11-.83,2.23-1.23,3.35-.2,.56-.39,1.12-.58,1.69-.39,1.13-.76,2.26-1.11,3.4-.18,.57-.35,1.14-.52,1.72-1.03,3.44-1.93,6.93-2.7,10.47-2.2,10.03-3.35,20.45-3.35,31.12s1.15,21.09,3.35,31.12c.77,3.54,1.67,7.03,2.7,10.47,.17,.58,.34,1.15,.52,1.72,.35,1.14,.72,2.27,1.11,3.4,.19,.57,.38,1.13,.58,1.69,.4,1.12,.8,2.24,1.23,3.35,.63,1.66,1.3,3.32,1.99,4.95s1.41,3.25,2.16,4.85c.25,.54,.51,1.08,.77,1.61,.76,1.59,1.56,3.17,2.38,4.72,0,.01,.01,.01,.01,.01,.54,1.04,1.1,2.07,1.67,3.09h.01c1.15,2.06,2.34,4.08,3.58,6.06t.01,.01c3.72,5.96,7.87,11.64,12.39,16.98,.38,.45,.76,.9,1.15,1.34,2.29,2.65,4.68,5.21,7.15,7.68,26.4,26.4,62.85,42.75,103.04,42.75,80.4,0,145.8-65.41,145.8-145.8,0-5.28-.28-10.59-.83-15.78l238.65-25.46c1.45,13.62,2.18,27.49,2.18,41.24Z"/>
  <path d="M.61,363.94c-.4,7.26-.6,14.55-.6,21.86s.2,14.6,.6,21.86c-.41-7.26-.61-14.55-.61-21.86s.2-14.6,.61-21.86Z"/>
</svg>