<?xml version="1.0" encoding="UTF-8"?>
<svg id="Layer_58" data-name="Layer 58" xmlns="http://www.w3.org/2000/svg" viewBox="0 0 850.9 850.9">
  <defs>
    <style>
      .cls-1 {
        fill: #231f20;
        stroke-width: 0px;
      }
    </style>
  </defs>
  <path class="cls-1" d="M770.44,846.32l-164.61-22.38c-9.59-1.3-18.46-4.52-26.26-9.22-22.83-13.76-36.54-40.2-32.72-68.31l1.13-8.29,21.25-156.31c2.47-18.19,19.21-30.92,37.39-28.44l16.05,2.18c18.18,2.48,30.91,19.21,28.45,37.4l-10.52,77.43c-.73,5.36,5.6,8.78,9.65,5.19,27.25-24.16,50.14-52.28,68.24-83.86.96-1.67,1.91-3.36,2.83-5.06,20.01-36.35,33-75.73,38.64-117.16,5.89-43.34,3.41-86.69-7.36-128.84-11.14-43.59-30.74-84.04-58.27-120.23-27.53-36.19-61.28-65.88-100.32-88.25-37.74-21.63-78.85-35.58-122.2-41.48-43.35-5.89-86.69-3.41-128.84,7.36-.02,0-.04.01-.06.02-3.23.82-6.52-1.18-7.19-4.45-4.12-20.1-12.75-39.18-25.53-55.99-1.67-2.2-3.4-4.34-5.19-6.43-2.74-3.2-1.25-8.19,2.79-9.38,162.14-47.8,344.06,5.9,452.49,148.44,119.88,157.6,111.13,372.77-9.12,519.5-15.65,19.11-33.19,37.05-52.59,53.56-3.85,3.28-2,9.56,3,10.24l80,10.87c18.18,2.48,30.91,19.21,28.44,37.39l-2.18,16.06c-2.47,18.18-19.21,30.91-37.39,28.44Z"/>
  <path class="cls-1" d="M497.44,829.31c2.24,3.56.17,8.27-3.99,8.94-147.88,23.79-303.73-32.63-400.75-160.18-111.67-146.81-111.74-343.58-14.02-488.45,13.08-19.39,27.91-37.86,44.46-55.14,3.3-3.45,1.28-9.18-3.45-9.83l-86.44-11.76c-18.18-2.46-30.92-19.21-28.44-37.39l2.18-16.05c2.48-18.18,19.21-30.91,37.4-28.45l164.61,22.38c5.11.7,10.02,1.93,14.66,3.65,28.42,10.5,47.2,38.88,44.74,69.96-.09,1.31-.24,2.62-.42,3.93l-22.37,164.61c-2.48,18.18-19.21,30.91-37.4,28.45l-16.05-2.19c-18.18-2.46-30.92-19.21-28.44-37.39l8.71-64.15c.8-5.92-6.71-9.08-10.41-4.39-10.14,12.85-19.33,26.45-27.53,40.77-13.64,23.79-24.23,48.94-31.66,75.14-4.37,15.34-7.64,31.04-9.82,47.06-5.89,43.35-3.41,86.69,7.35,128.85,11.14,43.58,30.75,84.04,58.28,120.23,27.52,36.18,61.28,65.88,100.3,88.25,37.75,21.62,78.87,35.58,122.21,41.47,29.72,4.04,59.43,4.14,88.76.34,3.35-.43,6.39,2.05,6.58,5.43,1.25,23.35,8.39,45.92,20.94,65.91Z"/>
</svg>