<?xml version="1.0" encoding="UTF-8"?>
<svg id="Layer_58" data-name="Layer 58" xmlns="http://www.w3.org/2000/svg" viewBox="0 0 850.91 850.91">
  <defs>
    <style>
      .cls-1 {
        fill: #231f20;
        stroke-width: 0px;
      }
    </style>
  </defs>
  <path class="cls-1" d="M799.67,833.22l-83.24-10-109.28-13.13-10.62-1.27c-18.47-2.21-31.64-18.98-29.42-37.45l24.39-203.12c2.22-18.48,18.98-31.65,37.45-29.42l16.31,1.95c18.47,2.23,31.64,18.99,29.43,37.46l-11,91.51c23.86-23.22,44.02-49.62,60.17-78.83,7.33-13.27,13.74-26.93,19.2-40.94,10.42-26.73,17.43-54.7,20.91-83.61,5.29-44.03,2.09-87.94-9.49-130.49-11.98-44.01-32.49-84.71-60.97-120.96-28.48-36.25-63.17-65.82-103.09-87.88-38.6-21.33-80.5-34.82-124.54-40.12-26.5-3.18-52.95-3.29-79.08-.35-4.44.5-8.82-1.33-11.58-4.84l-41.18-52.42c-5.96-7.58-1.78-18.74,7.68-20.63,152.14-30.34,315.45,23.99,417.85,154.34,106.97,136.17,117.6,317.26,41.78,461.14-22.08,41.93-51.53,80.71-88.06,114.29l96.37,11.57c18.47,2.23,31.64,18.99,29.42,37.45l-1.96,16.32c-2.22,18.46-18.98,31.63-37.45,29.42Z"/>
  <path class="cls-1" d="M516.38,822.08c5.96,7.58,1.78,18.74-7.68,20.63-152.15,30.35-315.45-23.99-417.85-154.34C-16.11,552.2-26.76,371.11,49.07,227.21c22.08-41.93,51.52-80.7,88.06-114.27l-96.32-11.57h-.04c-18.47-2.22-31.65-18.99-29.42-37.46l1.95-16.31c2.23-18.47,18.99-31.64,37.45-29.42l203.13,24.39c18.47,2.22,31.64,18.99,29.42,37.45l-24.39,203.13c-2.22,18.46-18.98,31.63-37.45,29.42l-16.31-1.97c-18.47-2.21-31.65-18.98-29.42-37.45l10.98-91.53c-23.85,23.22-44.01,49.63-60.15,78.84-7.33,13.27-13.74,26.93-19.2,40.94-10.44,26.73-17.44,54.7-20.91,83.6-5.28,44.04-2.09,87.94,9.48,130.5,11.99,44.01,32.5,84.71,60.98,120.96,28.47,36.24,63.16,65.81,103.08,87.88,38.61,21.32,80.51,34.82,124.55,40.11,26.5,3.18,52.95,3.29,79.09.35,4.44-.5,8.82,1.33,11.58,4.84l41.18,52.42Z"/>
</svg>