<?xml version="1.0" encoding="UTF-8"?>
<svg id="Layer_1" data-name="Layer 1" xmlns="http://www.w3.org/2000/svg" viewBox="0 0 1119.74 1119.76">
  <path d="M763.41,38.2c-6.65,5.04-12.87,10.77-18.57,17.12-23.55,26.24-35.47,60.08-33.58,95.29l.31,5.72c-161.39-60.46-350.65-20.21-472.54,115.59-131.06,146.04-143.89,357.6-44.87,516.32,4.83,7.75,9.91,15.36,15.28,22.83,4.83,6.73,9.86,13.33,15.11,19.82l-2.62-48.61c-1.5-27.72,19.83-51.49,47.55-52.99,13.44-.7,26.35,3.84,36.37,12.82l.02,.02c9.99,8.97,15.89,21.3,16.61,34.72l3.16,58.51,7.11,131.74c.72,13.42-3.82,26.33-12.8,36.34-8.99,10.01-21.34,15.93-34.77,16.65l-190.24,10.28h-.06c-13.41,.72-26.29-3.84-36.29-12.81-10.01-8.98-15.92-21.33-16.65-34.75-.72-13.42,3.82-26.34,12.81-36.33,8.99-10.02,21.34-15.94,34.76-16.66l47.78-2.58c-3.86-4.4-7.64-8.88-11.35-13.42-3.63-4.43-7.19-8.93-10.68-13.47-24.27-31.61-45.04-65.73-62.15-102.14C22.35,732.68,4.75,662.67,.84,590.07c-3.94-72.58,6.02-144.08,29.57-212.53,24.39-70.92,62.35-135.4,112.8-191.62,50.47-56.23,110.47-100.88,178.34-132.78C387.07,22.35,457.09,4.75,529.67,.83c72.58-3.93,144.08,6.03,212.53,29.59,7.13,2.45,14.21,5.04,21.21,7.78Z"/>
  <path d="M1089.33,742.22c-24.39,70.93-62.34,135.4-112.79,191.62-50.47,56.22-110.47,100.89-178.35,132.78-65.51,30.78-135.53,48.38-208.11,52.3-10.28,.56-20.52,.84-30.74,.84-62.02,0-123.04-10.21-181.8-30.41-7.88-2.71-15.68-5.59-23.38-8.63,9.71-6.29,18.65-13.92,26.58-22.76,22.85-25.47,34.76-58.12,33.68-92.24,46.95,16.76,96.14,25.08,145.24,25.08,118.27,0,236.06-48.22,321.08-142.96,128.44-143.1,143.33-349.16,50.68-506.73-4.55-7.74-9.36-15.35-14.42-22.83-4.83-7.13-9.88-14.17-15.19-21.03l1.84,33.77c1.5,27.72-19.85,51.5-47.57,53-.92,.05-1.84,.07-2.75,.07-12.44,0-24.29-4.52-33.62-12.89,0,0-.01-.01-.02-.02-10-8.97-15.89-21.31-16.61-34.73l-2.44-45.16-2.56-47.38-5.29-97.7c-.72-13.42,3.83-26.33,12.81-36.35,8.98-10,21.34-15.91,34.78-16.65l15.96-.87,160.02-8.64,14.25-.77c.92-.04,1.84-.07,2.75-.07,26.52,0,48.81,20.83,50.25,47.63,1.49,27.73-19.84,51.5-47.58,53l-58.74,3.17c3.96,4.4,7.84,8.88,11.64,13.41,3.74,4.42,7.39,8.91,10.96,13.45,26.24,33.26,48.56,69.37,66.73,108.05,30.78,65.51,48.38,135.53,52.29,208.12,3.93,72.57-6.02,144.08-29.58,212.53h0Z"/>
</svg>