<?xml version="1.0" encoding="UTF-8"?>
<svg id="Layer_20" data-name="Layer 20" xmlns="http://www.w3.org/2000/svg" viewBox="0 0 850.41 850.42">
  <defs>
    <style>
      .cls-1 {
        fill: #231f20;
      }
    </style>
  </defs>
  <path class="cls-1" d="M825.87,707.49l-91.79-91.79c40.44-62.39,63.92-136.8,63.92-216.68C798,178.66,619.36,.02,399,.02S0,178.66,0,399.02s178.64,399,399,399c79.88,0,154.29-23.48,216.68-63.92l91.79,91.79c32.7,32.7,85.71,32.7,118.4,0,16.35-16.35,24.53-37.77,24.53-59.2s-8.18-42.85-24.53-59.2Zm-617.08-118.26c-50.81-50.81-78.79-118.36-78.79-190.21s27.98-139.4,78.79-190.21,118.36-78.79,190.21-78.79,139.4,27.98,190.21,78.79,78.79,118.36,78.79,190.21-27.98,139.4-78.79,190.21-118.36,78.79-190.21,78.79-139.4-27.98-190.21-78.79Z"/>
</svg>