<?xml version="1.0" encoding="UTF-8"?>
<svg id="Layer_1" data-name="Layer 1" xmlns="http://www.w3.org/2000/svg" viewBox="0 0 850.4 850.4">
  <path d="M850.39,65.4v214.82c0,21.08-17.09,38.17-38.17,38.17h-54.47c-21.08,0-38.17-17.09-38.17-38.17V130.8h-149.41c-21.08,0-38.17-17.09-38.17-38.17V38.17c0-21.08,17.1-38.17,38.18-38.17h214.81c36.12,0,65.4,29.28,65.4,65.4Z"/>
  <path d="M318.39,38.17v54.47c0,21.08-17.09,38.17-38.17,38.17H130.8v149.42c0,21.08-17.09,38.17-38.17,38.17H38.17c-21.08,0-38.17-17.1-38.17-38.18V65.4C0,29.28,29.28,0,65.4,0h214.82c21.08,0,38.17,17.09,38.17,38.17Z"/>
  <path d="M850.39,570.18v214.81c0,36.12-29.28,65.4-65.4,65.4h-214.81c-21.08,0-38.17-17.09-38.17-38.17v-54.47c0-21.08,17.09-38.17,38.17-38.17h149.41v-149.41c0-21.08,17.09-38.17,38.17-38.17h54.47c21.08,0,38.17,17.09,38.17,38.17h0Z"/>
  <path d="M318.39,757.76v54.47c0,21.08-17.09,38.17-38.17,38.17H65.4c-36.12,0-65.4-29.29-65.4-65.41v-214.81c0-21.08,17.09-38.17,38.17-38.17h54.47c21.08,0,38.17,17.09,38.17,38.17v149.41h149.42c21.08,0,38.17,17.09,38.17,38.17h0Z"/>
</svg>