<?xml version="1.0" encoding="UTF-8"?>
<svg id="Layer_1" data-name="Layer 1" xmlns="http://www.w3.org/2000/svg" viewBox="0 0 850.4 850.4">
  <path d="M532,252.99V38.17c0-21.08,17.09-38.17,38.17-38.17h54.47c21.08,0,38.17,17.09,38.17,38.17V187.59h149.41c21.08,0,38.17,17.09,38.17,38.17v54.46c0,21.08-17.1,38.17-38.18,38.17h-214.81c-36.12,0-65.4-29.28-65.4-65.4h0Z"/>
  <path d="M0,280.23v-54.47c0-21.08,17.09-38.17,38.17-38.17H187.59V38.17c0-21.08,17.09-38.17,38.17-38.17h54.46c21.08,0,38.17,17.1,38.17,38.18V253c0,36.12-29.28,65.4-65.4,65.4H38.17c-21.08,0-38.17-17.09-38.17-38.17H0Z"/>
  <path d="M532.02,812.21v-214.81c0-36.12,29.28-65.4,65.4-65.4h214.81c21.08,0,38.17,17.09,38.17,38.17v54.47c0,21.08-17.09,38.17-38.17,38.17h-149.41v149.41c0,21.08-17.09,38.17-38.17,38.17h-54.47c-21.08,0-38.17-17.09-38.17-38.17h0Z"/>
  <path d="M0,624.65v-54.47c0-21.08,17.09-38.17,38.17-38.17H253c36.12,0,65.4,29.29,65.4,65.41v214.81c0,21.08-17.09,38.17-38.17,38.17h-54.47c-21.08,0-38.17-17.09-38.17-38.17v-149.41H38.17c-21.08,0-38.17-17.09-38.17-38.17H0Z"/>
</svg>