<?xml version="1.0" encoding="UTF-8"?>
<svg id="Layer_4" data-name="Layer 4" xmlns="http://www.w3.org/2000/svg" viewBox="0 0 798.23 851.39">
  <path d="M399.11,40.63c41.9,0,81.29,16.32,110.92,45.95,29.63,29.63,45.95,69.02,45.95,110.93s-16.32,81.29-45.94,110.92c-29.63,29.63-69.02,45.94-110.92,45.94s-81.3-16.32-110.93-45.95c-29.63-29.63-45.95-69.02-45.95-110.92s16.32-81.3,45.95-110.93c29.63-29.63,69.03-45.95,110.93-45.95m0-38c-107.62,0-194.88,87.25-194.88,194.88s87.25,194.87,194.88,194.87,194.87-87.24,194.87-194.87S506.73,2.63,399.11,2.63h0Z"/>
  <path d="M399.12,483.11c44.03,0,87.06,7.71,127.91,22.92,39.47,14.7,75.9,35.99,108.26,63.27,32.14,27.1,59.19,59.19,80.4,95.38,21.65,36.94,36.5,77,44.14,119.05,1.74,9.58-2.47,16.37-5.13,19.56-2.63,3.15-8.48,8.44-18.07,8.44H61.58c-9.58,0-15.42-5.29-18.05-8.44-2.66-3.19-6.87-9.97-5.12-19.56,7.64-42.05,22.49-82.1,44.14-119.05,21.21-36.19,48.25-68.28,80.4-95.38,32.37-27.29,68.79-48.58,108.27-63.28,40.85-15.21,83.88-22.92,127.91-22.92m0-38c-198.61,0-363.81,143.12-398.1,331.84-6.89,37.88,22.05,72.8,60.57,72.8H736.64c38.51,0,67.46-34.91,60.58-72.8-34.3-188.73-199.49-331.84-398.1-331.84h0Z"/>
</svg>