<?xml version="1.0" encoding="UTF-8"?>
<svg id="Layer_9" data-name="Layer 9" xmlns="http://www.w3.org/2000/svg" viewBox="0 0 888.04 888.03">
  <path d="M477.95,57.61c18.33,0,33.24,14.91,33.24,33.23v54.15c0,37.24,20.15,71.98,52.58,90.67l.31,.18,.04,.02c.1,.06,.19,.11,.29,.17,16.08,9.32,34.36,14.25,52.87,14.25s36.31-4.83,52.12-13.95l46.9-27.08c5.13-2.96,10.7-4.46,16.55-4.46,11.88,0,22.93,6.37,28.85,16.63l33.93,58.77c9.16,15.87,3.7,36.24-12.17,45.4l-46.94,27.1c-32.28,18.63-52.29,53.49-52.24,90.99v.67c-.05,37.49,19.97,72.36,52.24,90.99l27.94,16.14h0s19,10.98,19,10.98c15.87,9.16,21.33,29.53,12.17,45.4l-33.94,58.78c-5.92,10.26-16.97,16.63-28.85,16.63-5.85,0-11.42-1.5-16.54-4.46l-46.9-27.08c-15.81-9.12-33.83-13.95-52.11-13.95s-36.8,4.93-52.89,14.26l-.35,.2-.16,.09-.06,.03-.06,.03c-32.43,18.69-52.58,53.43-52.58,90.67v54.15c0,18.33-14.91,33.24-33.24,33.24h-67.86c-18.33,0-33.24-14.91-33.24-33.24v-54.15c0-37.24-20.15-71.98-52.58-90.67l-.3-.17-.04-.02c-.1-.06-.19-.11-.29-.17-16.08-9.33-34.37-14.26-52.89-14.26s-36.31,4.83-52.12,13.95l-46.9,27.08c-5.13,2.96-10.7,4.46-16.55,4.46-11.88,0-22.94-6.37-28.86-16.63l-33.93-58.78c-4.44-7.69-5.62-16.64-3.32-25.21,2.3-8.57,7.8-15.74,15.49-20.18l46.94-27.1c32.28-18.63,52.29-53.49,52.24-90.99v-.67c.05-37.49-19.97-72.36-52.24-90.99l-46.95-27.11c-7.69-4.44-13.19-11.61-15.49-20.18-2.3-8.57-1.12-17.53,3.32-25.22l33.93-58.77c5.92-10.26,16.98-16.63,28.86-16.63,5.85,0,11.42,1.5,16.55,4.46l46.9,27.08c15.81,9.12,33.83,13.95,52.11,13.95s36.79-4.93,52.87-14.25l.35-.2,.16-.09,.07-.04,.07-.04c32.43-18.69,52.58-53.43,52.58-90.67v-54.15c0-18.32,14.91-33.23,33.24-33.23h67.86m-33.93,564.93c12.03,0,24.05-1.21,35.75-3.58,37.53-7.64,72.27-27.7,97.85-56.51,16.11-18.18,28.16-39.03,35.8-61.97,6.05-18.18,9.13-37.17,9.13-56.45s-3.07-38.28-9.12-56.45c-7.64-22.95-19.69-43.8-35.82-62-25.56-28.79-60.3-48.85-97.84-56.5-11.69-2.38-23.72-3.58-35.74-3.58s-24.05,1.2-35.75,3.58c-37.53,7.64-72.27,27.7-97.85,56.51-16.11,18.18-28.16,39.03-35.8,61.97-6.06,18.18-9.13,37.17-9.13,56.45s3.07,38.28,9.12,56.45c7.64,22.95,19.69,43.8,35.82,62,25.56,28.79,60.3,48.86,97.84,56.5,11.69,2.38,23.72,3.58,35.74,3.58M477.95,19.61h-67.86c-39.35,0-71.24,31.89-71.24,71.23v54.15c0,23.87-12.87,45.83-33.55,57.75-.23,.13-.47,.27-.7,.4-10.47,6.07-22.16,9.14-33.84,9.14s-22.86-2.94-33.11-8.86l-46.9-27.08c-11.21-6.47-23.46-9.55-35.55-9.55-24.62,0-48.57,12.77-61.77,35.63l-33.93,58.77c-19.67,34.07-8,77.63,26.08,97.31l46.94,27.11c20.71,11.95,33.27,34.11,33.24,58.03v.77c.03,23.92-12.53,46.07-33.24,58.03l-46.94,27.11c-34.08,19.67-45.75,63.24-26.08,97.31l33.93,58.77c13.2,22.85,37.15,35.63,61.77,35.63,12.08,0,24.33-3.08,35.55-9.55l46.9-27.08c10.26-5.92,21.68-8.86,33.12-8.86s23.37,3.06,33.84,9.14c.23,.13,.46,.27,.7,.4,20.68,11.92,33.55,33.87,33.55,57.75v54.15c0,39.35,31.89,71.24,71.24,71.24h67.86c39.35,0,71.24-31.89,71.24-71.24v-54.15c0-23.87,12.87-45.83,33.55-57.75,.23-.13,.47-.27,.7-.4,10.47-6.07,22.16-9.14,33.84-9.14s22.86,2.94,33.11,8.86l46.9,27.08c11.21,6.47,23.46,9.55,35.55,9.55,24.62,0,48.57-12.77,61.76-35.63l33.94-58.77c19.67-34.07,7.99-77.63-26.08-97.31h0s-46.94-27.11-46.94-27.11c-20.71-11.95-33.27-34.11-33.24-58.03v-.77c-.03-23.92,12.53-46.07,33.24-58.03l46.94-27.11c34.07-19.67,45.74-63.24,26.08-97.31l-33.94-58.77c-13.19-22.85-37.14-35.63-61.76-35.63-12.08,0-24.33,3.08-35.55,9.55l-46.9,27.08c-10.26,5.92-21.68,8.86-33.12,8.86s-23.37-3.06-33.84-9.14c-.23-.13-.46-.27-.7-.4-20.68-11.92-33.55-33.87-33.55-57.75v-54.15c0-39.34-31.89-71.23-71.24-71.23h0Zm-33.93,564.93c-9.65,0-19.07-.97-28.17-2.82-30.37-6.18-57.18-22.16-76.99-44.49-12.45-14.04-22.12-30.58-28.18-48.78-4.65-13.97-7.18-28.91-7.18-44.44s2.52-30.48,7.18-44.44c6.06-18.19,15.74-34.73,28.18-48.78,19.81-22.32,46.62-38.3,76.99-44.49,9.1-1.85,18.52-2.82,28.17-2.82s19.07,.97,28.17,2.82c30.37,6.18,57.18,22.16,76.99,44.49,12.45,14.04,22.12,30.58,28.18,48.78,4.65,13.97,7.18,28.91,7.18,44.44s-2.52,30.48-7.18,44.44c-6.06,18.19-15.74,34.73-28.18,48.78-19.81,22.32-46.62,38.3-76.99,44.49-9.1,1.85-18.52,2.82-28.17,2.82h0Z"/>
</svg>