<?xml version="1.0" encoding="UTF-8"?>
<svg id="Layer_3" data-name="Layer 3" xmlns="http://www.w3.org/2000/svg" viewBox="0 0 847.81 851.39">
  <path d="M783.61,198.8c15.25,0,21.72,10.78,23.8,15.42,2.07,4.64,5.8,16.65-4.35,28.02l-359.71,402.64c-6.77,7.57-15.09,8.7-19.44,8.7s-12.68-1.13-19.44-8.7L44.75,242.24c-10.16-11.37-6.43-23.38-4.35-28.02,2.08-4.64,8.55-15.42,23.8-15.42H783.61m0-38H64.2c-55.36,0-84.66,65.48-47.78,106.76l359.71,402.64c12.74,14.26,30.26,21.39,47.78,21.39s35.04-7.13,47.78-21.39l359.71-402.64c36.88-41.28,7.58-106.76-47.78-106.76h0Z"/>
</svg>