<?xml version="1.0" encoding="UTF-8"?>
<svg id="Layer_3" data-name="Layer 3" xmlns="http://www.w3.org/2000/svg" viewBox="0 0 737.24 851.39">
  <path d="M569.54,40.28c10.98,0,26.45,8.13,26.45,26.2V785.9c0,18.07-15.47,26.2-26.45,26.2-6.25,0-11.97-2.27-16.98-6.75L149.92,445.63c-7.57-6.77-8.7-15.09-8.7-19.44s1.13-12.68,8.7-19.44L552.56,47.04c5.02-4.48,10.73-6.75,16.98-6.75m0-38c-14.65,0-29.62,5.08-42.3,16.42L124.6,378.41c-28.51,25.48-28.51,70.09,0,95.56l402.64,359.71c12.68,11.33,27.65,16.42,42.3,16.42,33.03,0,64.45-25.85,64.45-64.2V66.48c0-38.35-31.43-64.2-64.45-64.2h0Z"/>
</svg>