<?xml version="1.0" encoding="UTF-8"?>
<svg id="Layer_2" data-name="Layer 2" xmlns="http://www.w3.org/2000/svg" viewBox="0 0 850.41 738.22">
  <defs>
    <style>
      .cls-1 {
        fill: #231f20;
      }
    </style>
  </defs>
  <path class="cls-1" d="M811.47,369.83c0,2.7-.68,7.93-5.14,12.39l-310.53,310.53c-4.59,4.59-9.91,5.16-12.7,5.1l-2.21-.04-.57,.06c-12.29,.04-97.51,.04-109.8,0l-.61-.06-2.25,.06c-2.74,.06-8.03-.49-12.6-5.06L44.5,382.26c-4.47-4.47-5.14-9.69-5.14-12.39s.68-7.93,5.14-12.39l77.55-77.55c4.47-4.47,9.69-5.14,12.39-5.14s7.93,.68,12.39,5.14l138,138c11.47,11.47,28.56,14.85,43.53,8.66,14.97-6.21,24.66-20.69,24.66-36.89V56.44c0-9.65,7.85-17.51,17.51-17.51h109.76c6.29,0,10.43,3.2,12.35,5.12,1.91,1.91,5.12,6.06,5.12,12.39V389.66c0,16.2,9.67,30.69,24.66,36.89,14.97,6.21,32.06,2.81,43.53-8.66l138-138c6.84-6.84,17.96-6.84,24.81,0l77.55,77.55c4.47,4.47,5.14,9.69,5.14,12.39m38.92,0c0-14.44-5.51-28.9-16.53-39.92l-77.55-77.55c-22.04-22.04-57.79-22.04-79.85,0l-138,138c-.64,.64-1.74,.18-1.74-.72V56.37C536.71,25.24,511.43-.02,480.27,0h-109.72C339.42,0,314.12,25.3,314.12,56.44V389.66c0,.9-1.11,1.35-1.74,.72L174.38,252.37c-22.04-22.04-57.77-22.06-79.85,0L16.97,329.93C5.95,340.95,.44,355.39,.44,369.85s5.51,28.9,16.53,39.92l310.55,310.55c11.33,11.33,26.28,16.82,41.09,16.45,.64,.06,112.97,.06,113.61,0,14.83,.35,29.81-5.16,41.11-16.49l310.53-310.53c11.02-11.02,16.53-25.46,16.53-39.92h.02Z"/>
</svg>