<?xml version="1.0" encoding="UTF-8"?>
<svg id="Layer_52" data-name="Layer 52" xmlns="http://www.w3.org/2000/svg" viewBox="0 0 850.91 850.91">
  <defs>
    <style>
      .cls-1 {
        fill: #010101;
      }

      .cls-1, .cls-2 {
        stroke-width: 0px;
      }

      .cls-2 {
        fill: #231f20;
      }
    </style>
  </defs>
  <path class="cls-1" d="M.02,93.34v664.7c0,51.19,41.5,92.69,92.69,92.69h363.5c51.19,0,92.69-41.5,92.69-92.69v-176.11c0-16.87-13.68-30.55-30.55-30.55h-22.61c-16.87,0-30.55,13.68-30.55,30.55v145.19c0,22.08-17.9,39.98-39.98,39.98H123.72c-22.08,0-39.98-17.9-39.98-39.98V124.26c0-22.07,17.9-39.97,39.97-39.97h301.5c22.08,0,39.98,17.9,39.98,39.98v145.19c0,16.87,13.68,30.55,30.55,30.55h22.61c16.87,0,30.55-13.68,30.55-30.55V93.34c0-51.19-41.49-92.68-92.68-92.68H92.7c-51.19,0-92.68,41.49-92.68,92.68Z"/>
  <path class="cls-2" d="M666.81,637.61l163.58-163.58c26.69-26.69,26.69-69.97,0-96.66l-163.58-163.58c-12.95-12.95-33.95-12.95-46.9,0l-12.35,12.35c-12.95,12.95-12.95,33.95,0,46.9l110.77,110.77h-413.05c-18.31,0-33.16,14.84-33.16,33.16v17.47c0,18.31,14.85,33.16,33.16,33.16h413.04s-110.76,110.77-110.76,110.77c-12.95,12.95-12.95,33.95,0,46.9l12.35,12.35c12.95,12.95,33.95,12.95,46.9,0Z"/>
</svg>