<?xml version="1.0" encoding="UTF-8"?>
<svg id="Layer_88" data-name="Layer 88" xmlns="http://www.w3.org/2000/svg" viewBox="0 0 850.91 850.91">
  <defs>
    <style>
      .cls-1 {
        fill: #010101;
        stroke-width: 0px;
      }
    </style>
  </defs>
  <path class="cls-1" d="M757.73.5h-239.83c-51.19,0-92.69,41.49-92.69,92.68v166.49c0,51.19,41.5,92.69,92.69,92.69h239.83c51.19,0,92.68-41.5,92.68-92.69V93.19c0-51.19-41.49-92.68-92.68-92.68ZM766.78,228.67c0,22.08-17.9,39.97-39.98,39.97h-177.98c-22.08,0-39.98-17.89-39.98-39.97v-104.48c0-22.08,17.9-39.98,39.98-39.98h177.98c22.08,0,39.98,17.9,39.98,39.98v104.48Z"/>
  <path class="cls-1" d="M248.91.5H92.71C41.52.5.02,41.99.02,93.18v308.32c0,51.19,41.5,92.69,92.69,92.69h156.2c51.19,0,92.68-41.5,92.68-92.69V93.18c0-51.19-41.49-92.68-92.68-92.68ZM257.96,370.5c0,22.08-17.9,39.97-39.98,39.97h-94.35c-22.08,0-39.98-17.89-39.98-39.97V124.19c0-22.08,17.9-39.98,39.98-39.98h94.35c22.08,0,39.98,17.9,39.98,39.98v246.31Z"/>
  <path class="cls-1" d="M757.73,436h-239.83c-51.19,0-92.69,41.49-92.69,92.68v229.53c0,51.19,41.5,92.69,92.69,92.69h239.83c51.19,0,92.68-41.5,92.68-92.69v-229.53c0-51.19-41.49-92.68-92.68-92.68ZM766.78,727.2c0,22.08-17.9,39.97-39.98,39.97h-177.98c-22.08,0-39.98-17.89-39.98-39.97v-167.52c0-22.08,17.9-39.98,39.98-39.98h177.98c22.08,0,39.98,17.9,39.98,39.98v167.52Z"/>
  <path class="cls-1" d="M248.91,577.83H92.71c-51.19,0-92.69,41.49-92.69,92.68v87.7c0,51.19,41.5,92.69,92.69,92.69h156.2c51.19,0,92.68-41.5,92.68-92.69v-87.7c0-51.19-41.49-92.68-92.68-92.68ZM257.96,727.2c0,22.08-17.9,39.97-39.98,39.97h-94.35c-22.08,0-39.98-17.89-39.98-39.97v-25.69c0-22.08,17.9-39.98,39.98-39.98h94.35c22.08,0,39.98,17.9,39.98,39.98v25.69Z"/>
</svg>