<?xml version="1.0" encoding="UTF-8"?>
<svg xmlns="http://www.w3.org/2000/svg" viewBox="0 0 616.14 616.14">
  <path d="M308.11,616.14c-20.97,.01-39.96-8.48-53.7-22.22-13.74-13.74-22.21-32.68-22.22-53.61l.04-156.32-156.32-.04C34.01,383.97,.02,350.02,0,308.11c-.02-20.97,8.49-39.95,22.22-53.69s32.67-22.22,53.61-22.22l156.32,.04,.04-156.31C232.17,34.02,266.12,.03,308.03,0c20.97-.01,39.95,8.49,53.69,22.22,13.74,13.74,22.22,32.68,22.23,53.61l-.04,156.31,156.32,.05c41.9-.02,75.89,33.93,75.91,75.83,.01,20.97-8.48,39.96-22.22,53.7s-32.68,22.21-53.61,22.22l-156.32-.05-.04,156.32c.03,41.9-33.92,75.89-75.83,75.91Z"/>
</svg>