<?xml version="1.0" encoding="UTF-8"?>
<svg id="Layer_1" data-name="Layer 1" xmlns="http://www.w3.org/2000/svg" viewBox="0 0 609.73 609.73">
  <path d="M305.04,609.73c-15.82,.01-30.15-6.4-40.52-16.76-10.37-10.37-16.76-24.65-16.76-40.45l-.11-190.37-190.37,.11C25.66,362.28,.02,336.66,0,305.04c-.02-15.82,6.4-30.14,16.77-40.51,10.37-10.37,24.65-16.76,40.45-16.77l190.37-.11-.11-190.37C247.46,25.67,273.07,.02,304.69,0c15.82,0,30.14,6.4,40.51,16.77,10.37,10.37,16.77,24.65,16.77,40.45l.11,190.37,190.37-.11c31.61-.02,57.26,25.6,57.28,57.21,.01,15.82-6.4,30.15-16.77,40.52s-24.65,16.76-40.45,16.76l-190.37,.11,.11,190.37c.02,31.62-25.59,57.26-57.21,57.28h0Z"/>
</svg>