<?xml version="1.0" encoding="UTF-8"?>
<svg id="Layer_94" data-name="Layer 94" xmlns="http://www.w3.org/2000/svg" viewBox="0 0 850.91 850.91">
  <defs>
    <style>
      .cls-1 {
        fill: #231f20;
        stroke-width: 0px;
      }
    </style>
  </defs>
  <path class="cls-1" d="M50.69,586.37c0-17.82,14.44-32.26,32.26-32.26h130.07s26.26,0,26.26,0c31.77,0,57.52,25.76,57.53,57.53v26.26s0,130.07,0,130.07c0,17.82-14.44,32.26-32.26,32.26h-19.27c-17.82,0-32.26-14.44-32.26-32.26v-52.3c0-6.83-8.26-10.25-13.09-5.42l-131.21,131.2c-12.6,12.6-33.03,12.6-45.62,0l-13.62-13.62c-12.6-12.6-12.6-33.03,0-45.62l131.21-131.21c4.83-4.83,1.41-13.09-5.42-13.09h-52.31c-17.82,0-32.26-14.44-32.26-32.26v-19.27Z"/>
  <path class="cls-1" d="M799.75,265.03c0,17.82-14.44,32.26-32.26,32.26h-130.07s-26.26,0-26.26,0c-31.77,0-57.52-25.76-57.53-57.53v-26.26s0-130.07,0-130.07c0-17.82,14.44-32.26,32.26-32.26h19.27c17.82,0,32.26,14.44,32.26,32.26v52.3c0,6.83,8.26,10.25,13.09,5.42L781.72,9.95c12.6-12.6,33.03-12.6,45.62,0l13.62,13.62c12.6,12.6,12.6,33.03,0,45.62l-131.21,131.21c-4.83,4.83-1.41,13.09,5.42,13.09h52.31c17.82,0,32.26,14.44,32.26,32.26v19.27Z"/>
  <path class="cls-1" d="M685.9,383.8h-108.44c-7.28,0-13.74-4.52-16.39-11.29-14.8-37.77-44.89-67.86-82.66-82.65-6.78-2.65-11.3-9.11-11.3-16.39v-108.45c0-15.74-12.76-28.5-28.49-28.5h-26.8c-15.74,0-28.5,12.76-28.5,28.5v108.45c0,7.28-4.52,13.74-11.29,16.39-37.77,14.8-67.85,44.89-82.65,82.65-2.66,6.78-9.11,11.29-16.39,11.29h-108.45c-15.74,0-28.5,12.76-28.5,28.5v26.8c0,15.73,12.76,28.49,28.5,28.49h108.45c7.28,0,13.74,4.52,16.39,11.3,14.79,37.77,44.89,67.86,82.65,82.66,6.78,2.66,11.29,9.11,11.29,16.39v108.45c0,15.73,12.76,28.49,28.49,28.49h26.81c15.73,0,28.49-12.76,28.49-28.49v-108.45c0-7.28,4.52-13.74,11.29-16.39,37.77-14.8,67.86-44.89,82.66-82.66,2.66-6.78,9.11-11.29,16.39-11.29h108.45c15.74,0,28.49-12.76,28.49-28.49v-26.8c0-15.74-12.76-28.5-28.5-28.5ZM467.11,471.15c-11.02,10.17-25.74,16.39-41.89,16.39s-30.88-6.22-41.9-16.39c-1.23-1.14-2.42-2.32-3.56-3.56-10.18-11.02-16.39-25.74-16.39-41.89s6.21-30.88,16.39-41.9c1.14-1.23,2.33-2.42,3.56-3.56,11.02-10.18,25.74-16.39,41.9-16.39s30.87,6.21,41.89,16.39c1.24,1.14,2.42,2.33,3.56,3.56,10.17,11.02,16.39,25.74,16.39,41.9s-6.22,30.87-16.39,41.89c-1.14,1.24-2.32,2.42-3.56,3.56Z"/>
</svg>