<?xml version="1.0" encoding="UTF-8"?>
<svg id="Layer_75" data-name="Layer 75" xmlns="http://www.w3.org/2000/svg" viewBox="0 0 850.91 850.91">
  <defs>
    <style>
      .cls-1 {
        fill: #231f20;
        stroke-width: 0px;
      }
    </style>
  </defs>
  <path class="cls-1" d="M850.41,244.94v513.33c0,51.16-41.47,92.63-92.63,92.63h-88.28c-8.89,0-16.45-6.67-17.35-15.52-7.77-76.55-72.43-136.28-151.03-136.28s-143.25,59.73-151.03,136.28c-.9,8.85-8.46,15.52-17.35,15.52h-88.28c-51.16,0-92.63-41.47-92.63-92.63v-88.28c0-8.89-6.67-16.45-15.52-17.35C59.76,644.86.02,580.2.02,501.6s59.74-143.25,136.29-151.03c8.85-.9,15.52-8.46,15.52-17.35v-88.28c0-51.16,41.47-92.63,92.63-92.63h88.28c8.89,0,16.45-6.67,17.35-15.52C357.87,60.24,422.52.5,501.12.5s143.25,59.74,151.03,136.29c.9,8.85,8.46,15.52,17.35,15.52h88.28c51.16,0,92.63,41.47,92.63,92.63Z"/>
</svg>