<?xml version="1.0" encoding="UTF-8"?>
<svg id="Layer_75" data-name="Layer 75" xmlns="http://www.w3.org/2000/svg" viewBox="0 0 850.91 850.91">
  <defs>
    <style>
      .cls-1 {
        fill: #231f20;
        stroke-width: 0px;
      }
    </style>
  </defs>
  <path class="cls-1" d="M757.73,186.17h-65.55c-13.1,0-23.45-11.06-22.63-24.14.15-2.34.24-4.69.28-7.05,1.49-86.36-70.14-157.03-156.47-154.41-81.67,2.47-147.13,69.47-147.13,151.74,0,3.25.1,6.48.3,9.68.82,13.09-9.51,24.17-22.63,24.17h-65.55c-51.19,0-92.69,41.5-92.69,92.69v65.55c0,13.09-11.05,23.45-24.12,22.63-2.39-.15-4.79-.25-7.2-.29C67.92,365.33-2.7,437.15.1,523.55c2.65,81.52,69.57,146.79,151.73,146.79,3.25,0,6.48-.1,9.68-.3,13.09-.82,24.17,9.51,24.17,22.63v65.54c0,51.19,41.5,92.69,92.69,92.69h149.19c12.53,0,22.68-10.15,22.68-22.68h0c0-26.82,15.66-50.06,38.32-61.04,8.92-4.33,18.93-6.76,29.49-6.76s20.57,2.43,29.49,6.76c22.66,10.98,38.32,34.22,38.32,61.04h0c0,12.53,10.15,22.68,22.68,22.68h149.18c51.19,0,92.69-41.5,92.69-92.69v-479.35c0-51.19-41.49-92.68-92.68-92.68ZM766.78,727.2c0,22.08-17.9,39.97-39.97,39.97h-55.64c-8.24,0-15.87-4.44-19.82-11.67-25.77-47.13-75.8-79.09-133.3-79.09s-107.53,31.97-133.3,79.09c-3.95,7.23-11.59,11.67-19.82,11.67h-55.64c-22.08,0-39.98-17.9-39.98-39.98v-57.1c0-46.25-37.5-83.75-83.75-83.75h-32.74c-36.35,0-67.01-28.23-68.73-64.54-1.83-38.87,29.26-71.08,67.73-71.08h33.73c46.25,0,83.75-37.5,83.75-83.75v-57.12c0-22.08,17.9-39.98,39.98-39.98h57.2c46.25,0,83.75-37.5,83.75-83.75v-32.82c0-36.35,28.23-67.01,64.54-68.73,38.87-1.83,71.08,29.26,71.08,67.73v33.82c0,46.25,37.5,83.75,83.75,83.75h57.19c22.08,0,39.98,17.9,39.98,39.98v417.34Z"/>
</svg>