<?xml version="1.0" encoding="UTF-8"?>
<svg id="Layer_29" data-name="Layer 29" xmlns="http://www.w3.org/2000/svg" viewBox="0 0 850.41 850.42">
  <defs>
    <style>
      .cls-1 {
        fill: #010101;
      }
    </style>
  </defs>
  <path class="cls-1" d="M588.5,169.23H92.69C41.5,169.23,0,210.72,0,261.91v495.81C0,808.91,41.5,850.41,92.69,850.41h495.81c51.19,0,92.68-41.5,92.68-92.69V261.91c0-51.19-41.49-92.68-92.68-92.68Zm9.05,557.49c0,22.08-17.9,39.97-39.98,39.97H123.61c-22.08,0-39.98-17.89-39.98-39.97V292.92c0-22.08,17.9-39.98,39.98-39.98h433.96c22.08,0,39.98,17.9,39.98,39.98v433.8Z"/>
  <path class="cls-1" d="M850.39,241.1v155.51c0,15.8-12.81,28.61-28.61,28.61h-26.41c-15.8,0-28.61-12.81-28.61-28.61v-124.5c0-104.04-84.34-188.38-188.38-188.38h-124.58c-15.8,0-28.61-12.81-28.61-28.61V28.63C425.2,12.83,438.01,.02,453.81,.02h155.51c133.14,0,241.08,107.93,241.08,241.08Z"/>
</svg>