<?xml version="1.0" encoding="UTF-8"?>
<svg id="Layer_24" data-name="Layer 24" xmlns="http://www.w3.org/2000/svg" viewBox="0 0 850.41 850.42">
  <defs>
    <style>
      .cls-1 {
        fill: #231f20;
      }

      .cls-2 {
        fill: #010101;
      }
    </style>
  </defs>
  <path class="cls-2" d="M757.55,91.73H92.85C41.66,91.73,.16,133.22,.16,184.41v481.61c0,51.19,41.5,92.69,92.69,92.69H757.55c51.19,0,92.68-41.5,92.68-92.69V184.41c0-51.19-41.49-92.68-92.68-92.68Zm9.05,543.29c0,22.08-17.9,39.97-39.98,39.97H123.77c-22.08,0-39.98-17.89-39.98-39.97V215.42c0-22.08,17.9-39.98,39.98-39.98H726.62c22.08,0,39.98,17.9,39.98,39.98v419.6Z"/>
  <path class="cls-1" d="M682.8,278.41v293.61c0,10.64-8.62,19.26-19.25,19.26H186.85c-10.64,0-19.26-8.62-19.26-19.26V278.41c0-10.63,8.62-19.26,19.26-19.26h476.7c10.63,0,19.25,8.63,19.25,19.26Z"/>
</svg>