<?xml version="1.0" encoding="UTF-8"?>
<svg id="Layer_79" data-name="Layer 79" xmlns="http://www.w3.org/2000/svg" viewBox="0 0 850.91 850.91">
  <defs>
    <style>
      .cls-1 {
        fill: #010101;
        stroke-width: 0px;
      }
    </style>
  </defs>
  <path class="cls-1" d="M757.57,56.69H92.87C41.68,56.69.18,98.18.18,149.37v552.64c0,51.19,41.5,92.69,92.69,92.69h664.7c51.19,0,92.68-41.5,92.68-92.69V149.37c0-51.19-41.49-92.68-92.68-92.68ZM766.62,629.32c0,22.08-17.9,39.97-39.98,39.97H123.79c-22.08,0-39.98-17.89-39.98-39.97V222.08c0-22.08,17.9-39.98,39.98-39.98h602.85c22.08,0,39.98,17.9,39.98,39.98v407.24Z"/>
  <rect class="cls-1" x="406.2" y="373.16" width="38.03" height="463.99" rx="19.02" ry="19.02" transform="translate(1030.37 179.93) rotate(90)"/>
</svg>