<?xml version="1.0" encoding="UTF-8"?>
<svg id="Layer_1" data-name="Layer 1" xmlns="http://www.w3.org/2000/svg" viewBox="0 0 738.01 850.39">
  <path d="M690.22,0H47.8C21.4,0,0,21.4,0,47.8V802.6c0,26.39,21.4,47.79,47.8,47.79H690.22c26.39,0,47.79-21.4,47.79-47.79V47.8c0-26.4-21.4-47.8-47.79-47.8Zm-36.6,749.3c0,9.22-7.48,16.7-16.71,16.7H101.1c-9.23,0-16.71-7.48-16.71-16.7V101.1c0-9.23,7.48-16.71,16.71-16.71H643.22c5.74,0,10.4,4.66,10.4,10.4V749.3Z"/>
  <path d="M566.43,178.06H308.45c-12.09-19.15-33.45-31.88-57.78-31.88s-45.68,12.72-57.78,31.88h-35.26c-10.05,0-19.15,4.07-25.74,10.66-6.58,6.59-10.66,15.69-10.66,25.74,0,20.1,16.29,36.4,36.39,36.4h35.26c12.09,19.15,33.45,31.88,57.78,31.88s45.68-12.72,57.78-31.88h257.98c10.05,0,19.15-4.07,25.74-10.66,6.59-6.59,10.66-15.69,10.66-25.74,0-20.1-16.3-36.4-36.4-36.4Zm-296.85,72.8c-5.66,2.95-12.09,4.62-18.9,4.62s-13.24-1.67-18.9-4.62c-13.13-6.85-22.12-20.6-22.12-36.4s8.99-29.56,22.12-36.4c5.66-2.95,12.09-4.62,18.9-4.62s13.24,1.67,18.9,4.62c13.13,6.85,22.12,20.59,22.12,36.4s-8.99,29.55-22.12,36.4Z"/>
  <path d="M566.43,388.8h-46.44c-12.09-19.15-33.44-31.88-57.77-31.88s-45.68,12.72-57.77,31.88H157.64c-10.05,0-19.15,4.07-25.74,10.66-6.58,6.59-10.66,15.69-10.66,25.74,0,20.1,16.29,36.39,36.39,36.39h246.81c12.09,19.15,33.44,31.88,57.77,31.88s45.68-12.72,57.77-31.88h46.44c10.05,0,19.15-4.07,25.74-10.66,6.59-6.59,10.66-15.69,10.66-25.74,0-20.1-16.3-36.4-36.4-36.4Zm-85.31,72.79c-5.66,2.95-12.09,4.62-18.9,4.62s-13.25-1.67-18.9-4.62c-13.13-6.85-22.12-20.59-22.12-36.39s8.99-29.55,22.12-36.4c5.66-2.95,12.09-4.62,18.9-4.62s13.24,1.67,18.9,4.62c13.13,6.84,22.12,20.59,22.12,36.4s-8.99,29.55-22.12,36.39Z"/>
  <path d="M573.4,599.53h-197.1c-12.09-19.15-33.44-31.88-57.77-31.88s-45.68,12.72-57.77,31.88h-96.15c-10.05,0-19.15,4.07-25.74,10.66-6.58,6.59-10.66,15.69-10.66,25.74,0,20.1,16.29,36.39,36.39,36.39h96.15c12.09,19.15,33.44,31.88,57.77,31.88s45.68-12.72,57.77-31.88h197.1c10.05,0,19.15-4.07,25.74-10.66,6.59-6.59,10.66-15.69,10.66-25.74,0-20.11-16.3-36.4-36.4-36.4Zm-235.97,72.79c-5.66,2.95-12.09,4.62-18.9,4.62s-13.25-1.67-18.9-4.62c-13.13-6.85-22.12-20.59-22.12-36.39s8.99-29.55,22.12-36.4c5.66-2.95,12.09-4.62,18.9-4.62s13.25,1.67,18.9,4.62c13.13,6.85,22.12,20.59,22.12,36.4s-8.99,29.55-22.12,36.39Z"/>
</svg>