<?xml version="1.0" encoding="UTF-8"?>
<svg id="Layer_15" data-name="Layer 15" xmlns="http://www.w3.org/2000/svg" viewBox="0 0 850.41 850.41">
  <defs>
    <style>
      .cls-1 {
        fill: #010101;
      }
    </style>
  </defs>
  <g>
    <path class="cls-1" d="M575.95,666.87h-31.36v99.32c0,7.68-6.23,13.91-13.93,13.91H84.24c-7.7,0-13.93-6.23-13.93-13.91V226.12c0-7.69,6.23-13.93,13.93-13.93H229.84c-.2-12.94,2.99-26.08,9.92-38.08l18.61-32.23H39.83C17.83,141.88,0,159.71,0,181.71V810.6C0,832.58,17.83,850.41,39.83,850.41H575.08c21.99,0,39.82-17.83,39.82-39.81v-154.79c-11.33,7.01-24.68,11.06-38.95,11.06Z"/>
    <path class="cls-1" d="M302.72,296.25l-10.41-6.01h-35.31c-10.08-15.96-27.87-26.56-48.14-26.56s-38.06,10.6-48.14,26.56h-29.38c-8.37,0-15.95,3.4-21.44,8.89-5.48,5.49-8.88,13.06-8.88,21.44,0,16.75,13.58,30.33,30.32,30.33h29.38c10.08,15.96,27.87,26.55,48.14,26.55s38.06-10.59,48.14-26.55h45.27l.45-.26c9.48-5.47,15.35-15.77,15.34-26.91v-.61c.01-11.11-5.86-21.41-15.34-26.87Zm-78.11,54.65c-4.72,2.45-10.08,3.85-15.75,3.85s-11.03-1.4-15.75-3.85c-10.94-5.71-18.43-17.17-18.43-30.33s7.49-24.63,18.43-30.33c4.72-2.46,10.07-3.85,15.75-3.85s11.03,1.39,15.75,3.85c10.94,5.71,18.43,17.16,18.43,30.33s-7.49,24.62-18.43,30.33Z"/>
    <path class="cls-1" d="M434.52,524.71c-.18-.1-.35-.2-.53-.3l-.02-.02-.06-.03-.1-.06c-4.8-2.79-10.25-4.26-15.75-4.26-3.6,0-7.17,.64-10.52,1.87-2.03,1.77-4.27,3.3-6.68,4.56-2.1,1.09-4.32,1.97-6.65,2.62l-27.12,15.66c-1.91,1.1-3.87,2.12-5.87,3.03,7.26,3.37,15.36,5.25,23.89,5.25,20.27,0,38.06-10.6,48.14-26.56h3.96c-.86-.63-1.76-1.22-2.69-1.76Zm-168.9-7.16l-25.86-44.78c-1.31-2.27-2.49-4.59-3.54-6.95h-104.88c-8.37,0-15.95,3.4-21.44,8.89-5.48,5.49-8.88,13.07-8.88,21.44,0,16.75,13.58,30.32,30.32,30.32h140.35c-2.23-2.8-4.25-5.78-6.07-8.92Z"/>
    <path class="cls-1" d="M507.29,664.91c-15.38-3.59-28.93-11.99-38.99-23.51h-154.78c-10.07-15.96-27.86-26.56-48.13-26.56s-38.06,10.6-48.13,26.56h-80.11c-8.38,0-15.96,3.39-21.45,8.88-5.48,5.49-8.87,13.07-8.87,21.45,0,16.74,13.57,30.32,30.32,30.32h80.11c10.07,15.96,27.86,26.56,48.13,26.56s38.06-10.6,48.13-26.56h164.23c8.37,0,15.95-3.4,21.44-8.88,5.49-5.49,8.88-13.07,8.88-21.44,0-2.35-.27-4.63-.78-6.82Zm-226.15,37.14c-4.71,2.46-10.07,3.85-15.75,3.85s-11.03-1.39-15.75-3.85c-10.94-5.71-18.42-17.16-18.42-30.32s7.48-24.63,18.42-30.33c4.72-2.46,10.08-3.85,15.75-3.85s11.04,1.39,15.75,3.85c10.94,5.7,18.43,17.15,18.43,30.33s-7.49,24.61-18.43,30.32Z"/>
  </g>
  <path class="cls-1" d="M823.24,388.61l-35.77-20.65c-15.78-9.11-25.35-26-25.33-44.23v-.58c-.02-18.23,9.55-35.11,25.33-44.22l35.77-20.66c25.96-14.99,34.86-48.19,19.87-74.16l-25.86-44.78c-10.05-17.42-28.31-27.15-47.07-27.15-9.21,0-18.54,2.34-27.08,7.27l-35.74,20.64c-7.82,4.52-16.52,6.75-25.24,6.75s-17.81-2.33-25.78-6.96c-.18-.1-.35-.21-.54-.31-15.75-9.08-25.56-25.81-25.56-44.01V54.3C630.24,24.32,605.94,.02,575.95,.02h-51.71c-29.99,0-54.29,24.3-54.29,54.28v41.26c0,18.19-9.81,34.93-25.57,44.01-.17,.1-.35,.21-.53,.31-1.25,.72-2.51,1.39-3.8,2-6.96,3.3-14.48,4.96-21.99,4.96s-14.91-1.64-21.81-4.96c-1.16-.54-2.3-1.14-3.42-1.79l-35.74-20.64c-8.54-4.93-17.88-7.27-27.08-7.28-18.77,0-37.02,9.74-47.07,27.16l-1.47,2.55-24.39,42.23c-5.11,8.86-7.45,18.55-7.26,28.08,.32,18.41,10.03,36.2,27.14,46.08l35.77,20.66c5.2,3,9.73,6.84,13.45,11.31,7.6,9.07,11.89,20.69,11.88,32.91v.58c.01,9.77-2.73,19.16-7.73,27.17-4.3,6.93-10.28,12.83-17.6,17.06l-35.77,20.65c-25.97,14.99-34.87,48.2-19.88,74.16l1.76,3.05,24.1,41.73c4.61,7.99,10.94,14.36,18.27,18.92,8.64,5.38,18.64,8.23,28.8,8.23,4.03,0,8.08-.44,12.07-1.37,5.15-1.17,10.2-3.13,15.01-5.9l7.23-4.18,28.51-16.46c7.82-4.51,16.52-6.75,25.23-6.75,.34,0,.67,0,1.01,.02,8.57,.16,17.1,2.5,24.78,6.95,.18,.09,.35,.2,.53,.3,8.07,4.65,14.59,11.31,19.02,19.16,4.22,7.45,6.55,15.98,6.55,24.85v41.26c0,29.99,24.3,54.29,54.29,54.29h51.71c15.28,0,29.09-6.31,38.95-16.47,9.49-9.77,15.34-23.11,15.34-37.82v-41.26c0-18.19,9.81-34.93,25.56-44.01,.18-.1,.36-.21,.54-.3,7.98-4.63,16.89-6.97,25.78-6.97s17.42,2.24,25.24,6.75l35.74,20.64c8.54,4.93,17.88,7.28,27.08,7.28,18.77,0,37.01-9.74,47.07-27.16l25.86-44.78c14.99-25.96,6.09-59.16-19.87-74.16Zm-171.53-31.3c-4.62,13.86-11.99,26.47-21.47,37.17-4.64,5.22-9.77,9.99-15.34,14.22-12.56,9.57-27.3,16.42-43.33,19.69-6.94,1.41-14.11,2.14-21.47,2.14-1.85,0-3.68-.05-5.51-.14-5.43-.27-10.76-.94-15.95-2-23.15-4.71-43.58-16.89-58.67-33.91-9.49-10.7-16.86-23.3-21.48-37.17-.7-2.11-1.34-4.25-1.91-6.41-2.32-8.76-3.56-17.96-3.56-27.46,0-11.59,1.84-22.75,5.26-33.2,.06-.22,.14-.44,.21-.66,4.62-13.86,12-26.47,21.48-37.17,15.09-17.01,35.52-29.19,58.67-33.91,4.82-.98,9.77-1.63,14.81-1.93,2.2-.14,4.42-.21,6.65-.21,7.36,0,14.53,.73,21.47,2.14,16.03,3.26,30.77,10.11,43.33,19.68,5.57,4.23,10.7,9,15.34,14.23,9.49,10.7,16.85,23.3,21.47,37.17,3.55,10.65,5.47,22.03,5.47,33.86s-1.92,23.23-5.47,33.87Z"/>
</svg>