<?xml version="1.0" encoding="UTF-8"?>
<svg id="Layer_90" data-name="Layer 90" xmlns="http://www.w3.org/2000/svg" viewBox="0 0 850.91 850.91">
  <defs>
    <style>
      .cls-1 {
        fill: #010101;
        stroke-width: 0px;
      }
    </style>
  </defs>
  <path class="cls-1" d="M757.57,132.68H92.87C41.68,132.68.18,174.17.18,225.36v400.66c0,51.19,41.5,92.69,92.69,92.69h664.7c51.19,0,92.68-41.5,92.68-92.69V225.36c0-51.19-41.49-92.68-92.68-92.68ZM766.62,595.02c0,22.08-17.9,39.97-39.98,39.97H123.79c-22.08,0-39.98-17.89-39.98-39.97v-338.65c0-22.08,17.9-39.98,39.98-39.98h602.85c22.08,0,39.98,17.9,39.98,39.98v338.65Z"/>
  <rect class="cls-1" x="320.57" y="509.41" width="209.29" height="83.72" rx="37.76" ry="37.76"/>
  <rect class="cls-1" x="125.68" y="383.83" width="251.14" height="83.72" rx="37.76" ry="37.76"/>
  <rect class="cls-1" x="468.38" y="258.25" width="256.37" height="83.72" rx="37.76" ry="37.76"/>
  <rect class="cls-1" x="125.68" y="509.41" width="125.57" height="83.72" rx="37.76" ry="37.76"/>
  <rect class="cls-1" x="599.18" y="383.83" width="125.57" height="83.72" rx="37.76" ry="37.76"/>
  <rect class="cls-1" x="446.14" y="383.84" width="83.72" height="83.72" rx="37.76" ry="37.76"/>
  <rect class="cls-1" x="320.57" y="258.25" width="83.72" height="83.72" rx="37.76" ry="37.76"/>
  <rect class="cls-1" x="125.68" y="258.26" width="125.57" height="83.72" rx="37.76" ry="37.76"/>
  <rect class="cls-1" x="599.18" y="509.41" width="125.57" height="83.72" rx="37.76" ry="37.76"/>
</svg>