<?xml version="1.0" encoding="UTF-8"?>
<svg id="Layer_91" data-name="Layer 91" xmlns="http://www.w3.org/2000/svg" viewBox="0 0 850.91 850.91">
  <defs>
    <style>
      .cls-1 {
        fill: #231f20;
        stroke-width: 0px;
      }
    </style>
  </defs>
  <path class="cls-1" d="M574.09,782.44c12.35,12.34,12.35,32.35,0,44.69l-14.5,14.51c-12.34,12.34-32.35,12.34-44.7,0l-89.68-89.68-89.68,89.67c-12.34,12.35-32.35,12.35-44.7,0l-14.49-14.5c-12.34-12.34-12.34-32.35,0-44.69l89.67-89.68,17.35-17.35V175.98l-17.34-17.34-89.68-89.68c-12.34-12.35-12.34-32.36,0-44.7l14.5-14.5c12.34-12.35,32.36-12.35,44.7,0l89.68,89.68,89.68-89.68c12.34-12.34,32.36-12.34,44.7,0l14.5,14.5c12.34,12.34,12.34,32.35,0,44.7l-89.68,89.68-17.34,17.34v499.45l107.01,107.01Z"/>
</svg>