<?xml version="1.0" encoding="UTF-8"?>
<svg id="Layer_53" data-name="Layer 53" xmlns="http://www.w3.org/2000/svg" viewBox="0 0 850.89 850.9">
  <defs>
    <style>
      .cls-1 {
        fill: #010101;
      }

      .cls-1, .cls-2 {
        stroke-width: 0px;
      }

      .cls-2 {
        fill: #231f20;
      }
    </style>
  </defs>
  <path class="cls-2" d="M213.29,207.96L376.87,44.37c26.69-26.69,69.97-26.69,96.66,0l163.58,163.58c12.95,12.95,12.95,33.95,0,46.9l-12.35,12.35c-12.95,12.95-33.95,12.95-46.9,0l-110.77-110.77v326.24c0,18.31-14.85,33.16-33.16,33.16h-17.47c-18.31,0-33.16-14.85-33.16-33.16V156.45l-110.76,110.76c-12.95,12.95-33.95,12.95-46.9,0l-12.35-12.35c-12.95-12.95-12.95-33.95,0-46.9Z"/>
  <path class="cls-1" d="M766.6,452.83v250.52c0,22.07-17.9,39.97-39.97,39.97H123.77c-22.08,0-39.98-17.9-39.98-39.98v-250.51c0-18.16-14.72-32.88-32.88-32.88h-17.87c-18.16,0-32.88,14.72-32.88,32.88v281.52c0,51.19,41.5,92.69,92.69,92.69h664.7c51.19,0,92.68-41.49,92.68-92.68v-281.53c0-18.16-14.72-32.88-32.88-32.88h-17.87c-18.16,0-32.88,14.72-32.88,32.88Z"/>
</svg>