<?xml version="1.0" encoding="UTF-8"?>
<svg id="Layer_64" data-name="Layer 64" xmlns="http://www.w3.org/2000/svg" viewBox="0 0 850.91 850.91">
  <defs>
    <style>
      .cls-1 {
        fill: #231f20;
        stroke-width: 0px;
      }
    </style>
  </defs>
  <path class="cls-1" d="M819.32,383.8h-203.08c-16.27-74.26-74.87-132.86-149.13-149.14V31.6c0-17.18-13.92-31.1-31.09-31.1h-21.6c-17.18,0-31.1,13.92-31.1,31.1v203.07c-74.26,16.27-132.86,74.87-149.13,149.13H31.12C13.94,383.8.02,397.72.02,414.9v21.6c0,17.17,13.92,31.09,31.1,31.09h203.06c16.28,74.26,74.88,132.86,149.14,149.13v203.08c0,17.17,13.92,31.09,31.1,31.09h21.6c17.17,0,31.09-13.92,31.09-31.09v-203.07c74.26-16.28,132.86-74.88,149.14-149.14h203.07c17.17,0,31.09-13.92,31.09-31.09v-21.6c0-17.18-13.92-31.1-31.09-31.1ZM467.11,529.07c-12.94,5.27-27.08,8.17-41.89,8.17s-28.96-2.9-41.9-8.18c-27.87-11.32-50.15-33.61-61.48-61.47-5.27-12.94-8.17-27.08-8.17-41.89s2.9-28.96,8.18-41.9c11.32-27.86,33.61-50.15,61.47-61.47,12.94-5.28,27.09-8.18,41.9-8.18s28.95,2.9,41.89,8.17c27.86,11.33,50.15,33.61,61.47,61.48,5.28,12.94,8.18,27.09,8.18,41.9s-2.9,28.95-8.17,41.89c-11.33,27.86-33.62,50.15-61.48,61.48Z"/>
</svg>