<?xml version="1.0" encoding="UTF-8"?>
<svg id="Layer_102" data-name="Layer 102" xmlns="http://www.w3.org/2000/svg" viewBox="0 0 850.91 850.91">
  <defs>
    <style>
      .cls-1 {
        fill: #010101;
        stroke-width: 0px;
      }
    </style>
  </defs>
  <path class="cls-1" d="M794.22,758.05V93.35c0-51.19-41.49-92.69-92.68-92.69H148.9c-51.19,0-92.69,41.5-92.69,92.69v664.7c0,51.19,41.5,92.68,92.69,92.68h552.64c51.19,0,92.68-41.49,92.68-92.68ZM179.9,767.1c-22.08,0-39.97-17.9-39.97-39.98V124.27c0-22.08,17.89-39.98,39.97-39.98h490.63c22.08,0,39.98,17.9,39.98,39.98v602.85c0,22.08-17.9,39.98-39.98,39.98H179.9Z"/>
  <rect class="cls-1" x="223.55" y="167.92" width="403.33" height="83.63" rx="33.13" ry="33.13"/>
  <rect class="cls-1" x="223.55" y="599.84" width="403.33" height="83.63" rx="33.13" ry="33.13"/>
  <rect class="cls-1" x="223.55" y="453.98" width="403.33" height="83.63" rx="33.13" ry="33.13"/>
  <rect class="cls-1" x="223.55" y="313.78" width="403.33" height="83.63" rx="33.13" ry="33.13"/>
</svg>