<?xml version="1.0" encoding="UTF-8"?>
<svg id="Layer_119" data-name="Layer 119" xmlns="http://www.w3.org/2000/svg" viewBox="0 0 850.91 850.91">
  <defs>
    <style>
      .cls-1 {
        fill: #010101;
        stroke-width: 0px;
      }
    </style>
  </defs>
  <path class="cls-1" d="M592.61,547.48v179.72c0,22.07-17.9,39.97-39.97,39.97H123.62c-22.07,0-39.97-17.9-39.97-39.97v-428.83c0-22.08,17.9-39.98,39.98-39.98h179.8c16.73,0,30.3-13.57,30.3-30.3v-23.11c0-16.73-13.57-30.3-30.3-30.3H92.71C41.52,174.68.02,216.18.02,267.37v490.83c0,51.19,41.5,92.69,92.69,92.69h490.85c51.19,0,92.68-41.49,92.68-92.68v-210.73c0-16.73-13.57-30.3-30.3-30.3h-23.03c-16.73,0-30.3,13.57-30.3,30.3Z"/>
  <path class="cls-1" d="M839.27,124.18l-358.81,358.81c-4.99,4.99-11.27,8.49-18.13,10.12l-113.23,26.85c-10.91,2.59-20.73-7.23-18.14-18.14l26.85-113.23c1.63-6.87,5.13-13.14,10.12-18.13L726.73,11.65c14.86-14.86,38.96-14.86,53.83,0l58.71,58.71c14.86,14.86,14.86,38.96,0,53.83Z"/>
</svg>