<?xml version="1.0" encoding="UTF-8"?>
<svg id="Layer_67" data-name="Layer 67" xmlns="http://www.w3.org/2000/svg" viewBox="0 0 850.91 850.91">
  <defs>
    <style>
      .cls-1 {
        fill: #231f20;
        stroke-width: 0px;
      }
    </style>
  </defs>
  <path class="cls-1" d="M425.22.5C247,.5,102.52,144.98,102.52,323.2c0,1.31.01,2.62.03,3.93.36,21.87,3.66,46.96,9.46,74.04,38.63,180.5,187.95,449.72,313.21,449.72s274.58-269.22,313.21-449.72c5.8-27.08,9.1-52.17,9.46-74.04.02-1.31.03-2.62.03-3.93C747.92,144.98,603.44.5,425.22.5ZM425.22,433.69c-61.03,0-110.49-49.47-110.49-110.49s49.46-110.49,110.49-110.49,110.49,49.47,110.49,110.49-49.47,110.49-110.49,110.49Z"/>
</svg>