<?xml version="1.0" encoding="UTF-8"?>
<svg id="Layer_28" data-name="Layer 28" xmlns="http://www.w3.org/2000/svg" viewBox="0 0 850.41 850.42">
  <defs>
    <style>
      .cls-1 {
        fill: #010101;
      }
    </style>
  </defs>
  <path class="cls-1" d="M213.4,677.09v144.71c0,15.8,12.81,28.61,28.61,28.61h26.41c15.8,0,28.61-12.81,28.61-28.61v-175.72c0-51.19-41.5-92.69-92.69-92.69H28.77c-15.8,0-28.61,12.81-28.61,28.61v26.5c0,15.8,12.81,28.61,28.61,28.61H173.42c22.08,0,39.98,17.9,39.98,39.98Zm-9.06-380.04c51.19,0,92.69-41.5,92.69-92.69V28.63C297.03,12.83,284.22,.02,268.42,.02h-26.41c-15.8,0-28.61,12.81-28.61,28.61V173.36c0,22.08-17.9,39.98-39.98,39.98H28.77c-15.8,0-28.61,12.81-28.61,28.61v26.49c0,15.8,12.81,28.61,28.61,28.61H204.34Zm432.66,380.03c0-22.07,17.9-39.97,39.97-39.97h144.65c15.8,0,28.61-12.81,28.61-28.61v-26.5c0-15.8-12.81-28.61-28.61-28.61h-175.57c-51.19,0-92.68,41.49-92.68,92.68v175.73c0,15.8,12.81,28.61,28.61,28.61h26.41c15.8,0,28.61-12.81,28.61-28.61v-144.72Zm9.05-380.03h175.57c15.8,0,28.61-12.81,28.61-28.61v-26.49c0-15.8-12.81-28.61-28.61-28.61h-144.64c-22.08,0-39.98-17.9-39.98-39.98V28.63c0-15.8-12.81-28.61-28.61-28.61h-26.41c-15.8,0-28.61,12.81-28.61,28.61V204.37c0,51.19,41.49,92.68,92.68,92.68Z"/>
</svg>